<?xml version="1.0" encoding="utf-8"?>
<!-- Generator: Adobe Illustrator 24.1.2, SVG Export Plug-In . SVG Version: 6.00 Build 0)  -->
<svg version="1.1" id="Capa_1" xmlns="http://www.w3.org/2000/svg" xmlns:xlink="http://www.w3.org/1999/xlink" x="0px" y="0px"
	 viewBox="0 0 500 500" style="enable-background:new 0 0 500 500;" xml:space="preserve">
<style type="text/css">
	.st0{clip-path:url(#SVGID_1_);fill:#FFFFFF;}
	.st1{clip-path:url(#SVGID_1_);fill:#1A2D4F;}
</style>
<g>
	<defs>
		<path id="SVGID_3_" d="M250,0C111.93,0,0,111.93,0,250c0,138.07,111.93,250,250,250c138.07,0,250-111.93,250-250
			C500,111.93,388.07,0,250,0z"/>
	</defs>
	<use xlink:href="#SVGID_3_"  style="overflow:visible;fill:#003358;"/>
	<clipPath id="SVGID_1_">
		<use xlink:href="#SVGID_3_"  style="overflow:visible;"/>
	</clipPath>
	<path class="st0" d="M303.27,237.11h-14c-11.13,5.77-23.76,9.06-37.14,9.06c-13.38,0-26.01-3.29-37.14-9.06h-14
		c-34.34,0-62.28,27.94-62.28,62.27v80.73h226.83v-80.73C365.54,265.04,337.6,237.11,303.27,237.11z"/>
	<path class="st0" d="M317.59,165.24c0-36.1-29.37-65.47-65.47-65.47s-65.47,29.37-65.47,65.47c0,36.1,29.37,65.47,65.47,65.47
		S317.59,201.34,317.59,165.24z"/>
	<path class="st1" d="M538.48,446.59c-0.21-0.21-0.42-0.43-0.64-0.64c-0.21-0.21-0.42-0.43-0.64-0.64
		c-0.21-0.21-0.42-0.43-0.64-0.64c-0.21-0.21-0.42-0.43-0.64-0.64c-0.21-0.21-0.42-0.43-0.64-0.64c-0.21-0.21-0.42-0.43-0.64-0.64
		c-0.21-0.21-0.42-0.43-0.64-0.64c-0.21-0.21-0.42-0.43-0.64-0.64c-0.21-0.21-0.42-0.43-0.64-0.64c-0.21-0.21-0.42-0.43-0.64-0.64
		c-0.21-0.21-0.42-0.43-0.64-0.64c-0.21-0.21-0.42-0.43-0.64-0.64c-0.21-0.21-0.42-0.43-0.64-0.64c-0.21-0.21-0.42-0.43-0.64-0.64
		c-0.21-0.21-0.42-0.43-0.64-0.64c-0.21-0.21-0.42-0.43-0.64-0.64c-0.21-0.21-0.42-0.43-0.64-0.64c-0.21-0.21-0.42-0.43-0.64-0.64
		c-0.21-0.21-0.42-0.43-0.64-0.64c-0.21-0.21-0.42-0.43-0.64-0.64c-0.21-0.21-0.42-0.43-0.64-0.64c-0.21-0.21-0.42-0.43-0.64-0.64
		c-0.21-0.21-0.42-0.43-0.64-0.64c-0.21-0.21-0.42-0.43-0.64-0.64c-0.21-0.21-0.42-0.43-0.64-0.64c-0.21-0.21-0.42-0.43-0.64-0.64
		c-0.21-0.21-0.42-0.43-0.64-0.64c-0.21-0.21-0.42-0.43-0.64-0.64c-0.21-0.21-0.42-0.43-0.64-0.64c-0.21-0.21-0.42-0.43-0.64-0.64
		c-0.21-0.21-0.42-0.43-0.64-0.64c-0.21-0.21-0.42-0.43-0.64-0.64c-0.21-0.21-0.42-0.43-0.64-0.64c-0.21-0.21-0.42-0.43-0.64-0.64
		c-0.21-0.21-0.42-0.43-0.64-0.64c-0.21-0.21-0.42-0.43-0.64-0.64c-0.21-0.21-0.42-0.43-0.64-0.64c-0.21-0.21-0.42-0.43-0.64-0.64
		c-0.21-0.21-0.42-0.43-0.64-0.64c-0.21-0.21-0.42-0.43-0.64-0.64c-0.21-0.21-0.42-0.43-0.64-0.64c-0.21-0.21-0.42-0.43-0.64-0.64
		c-0.21-0.21-0.42-0.43-0.64-0.64c-0.21-0.21-0.42-0.43-0.64-0.64c-0.21-0.21-0.42-0.43-0.64-0.64c-0.21-0.21-0.42-0.43-0.64-0.64
		c-0.21-0.21-0.42-0.43-0.64-0.64c-0.21-0.21-0.42-0.43-0.64-0.64c-0.21-0.21-0.42-0.43-0.64-0.64c-0.21-0.21-0.42-0.43-0.64-0.64
		c-0.21-0.21-0.42-0.43-0.64-0.64c-0.21-0.21-0.42-0.43-0.64-0.64c-0.21-0.21-0.42-0.43-0.64-0.64c-0.21-0.21-0.42-0.43-0.64-0.64
		c-0.21-0.21-0.42-0.43-0.64-0.64c-0.21-0.21-0.42-0.43-0.64-0.64c-0.21-0.21-0.42-0.43-0.64-0.64c-0.21-0.21-0.42-0.43-0.64-0.64
		c-0.21-0.21-0.42-0.43-0.64-0.64c-0.21-0.21-0.42-0.43-0.64-0.64c-0.21-0.21-0.42-0.43-0.64-0.64c-0.21-0.21-0.42-0.43-0.64-0.64
		c-0.21-0.21-0.42-0.43-0.64-0.64c-0.21-0.21-0.42-0.43-0.64-0.64c-0.21-0.21-0.42-0.43-0.64-0.64c-0.21-0.21-0.42-0.43-0.64-0.64
		c-0.21-0.21-0.42-0.43-0.64-0.64c-0.21-0.21-0.42-0.43-0.64-0.64c-0.21-0.21-0.42-0.43-0.64-0.64c-0.21-0.21-0.42-0.43-0.64-0.64
		c-0.21-0.21-0.42-0.43-0.64-0.64c-0.21-0.21-0.42-0.43-0.64-0.64c-0.05-0.05-0.1-0.11-0.15-0.16
		c10.41-11.6,16.76-26.91,16.76-43.69c0-18.21-7.48-34.7-19.53-46.58c-0.21-0.21-0.42-0.43-0.64-0.64
		c-0.21-0.21-0.42-0.43-0.64-0.64c-0.21-0.21-0.42-0.43-0.64-0.64c-0.21-0.21-0.42-0.43-0.64-0.64c-0.21-0.21-0.42-0.43-0.64-0.64
		c-0.21-0.21-0.42-0.43-0.64-0.64c-0.21-0.21-0.42-0.43-0.64-0.64c-0.21-0.21-0.42-0.43-0.64-0.64c-0.21-0.21-0.42-0.43-0.64-0.64
		c-0.21-0.21-0.42-0.43-0.64-0.64c-0.21-0.21-0.42-0.43-0.64-0.64c-0.21-0.21-0.42-0.43-0.64-0.64c-0.21-0.21-0.42-0.43-0.64-0.64
		c-0.21-0.21-0.42-0.43-0.64-0.64c-0.21-0.21-0.42-0.43-0.64-0.64c-0.21-0.21-0.42-0.43-0.64-0.64c-0.21-0.21-0.42-0.43-0.64-0.64
		c-0.21-0.21-0.42-0.43-0.64-0.64c-0.21-0.21-0.42-0.43-0.64-0.64c-0.21-0.21-0.42-0.43-0.64-0.64c-0.21-0.21-0.42-0.43-0.64-0.64
		c-0.21-0.21-0.42-0.43-0.64-0.64c-0.21-0.21-0.42-0.43-0.64-0.64c-0.21-0.21-0.42-0.43-0.64-0.64c-0.21-0.21-0.42-0.43-0.64-0.64
		c-0.21-0.21-0.42-0.43-0.64-0.64c-0.21-0.21-0.42-0.43-0.64-0.64c-0.21-0.21-0.42-0.43-0.64-0.64c-0.21-0.21-0.42-0.43-0.64-0.64
		c-0.21-0.21-0.42-0.43-0.64-0.64c-0.21-0.21-0.42-0.43-0.64-0.64c-0.21-0.21-0.42-0.43-0.64-0.64c-0.21-0.21-0.42-0.43-0.64-0.64
		c-0.21-0.21-0.42-0.43-0.64-0.64c-0.21-0.21-0.42-0.43-0.64-0.64c-0.21-0.21-0.42-0.43-0.64-0.64c-0.21-0.21-0.42-0.43-0.64-0.64
		c-0.21-0.21-0.42-0.43-0.64-0.64c-0.21-0.21-0.42-0.43-0.64-0.64c-0.21-0.21-0.42-0.43-0.64-0.64c-0.21-0.21-0.42-0.43-0.64-0.64
		c-0.21-0.21-0.42-0.43-0.64-0.64c-0.21-0.21-0.42-0.43-0.64-0.64c-0.21-0.21-0.42-0.43-0.64-0.64c-0.21-0.21-0.42-0.43-0.64-0.64
		c-0.21-0.21-0.42-0.43-0.64-0.64c-0.21-0.21-0.42-0.43-0.64-0.64c-0.21-0.21-0.42-0.43-0.64-0.64c-0.21-0.21-0.42-0.43-0.64-0.64
		c-0.21-0.21-0.42-0.43-0.64-0.64c-0.21-0.21-0.42-0.43-0.64-0.64c-0.21-0.21-0.42-0.43-0.64-0.64c-0.21-0.21-0.42-0.43-0.64-0.64
		c-0.21-0.21-0.42-0.43-0.64-0.64c-0.21-0.21-0.42-0.43-0.64-0.64c-0.21-0.21-0.42-0.43-0.64-0.64c-0.21-0.21-0.42-0.43-0.64-0.64
		c-0.21-0.21-0.42-0.43-0.64-0.64c-0.21-0.21-0.42-0.43-0.64-0.64c-0.21-0.21-0.42-0.43-0.64-0.64c-0.21-0.21-0.42-0.43-0.64-0.64
		c-0.21-0.21-0.42-0.43-0.64-0.64c-0.21-0.21-0.42-0.43-0.64-0.64c-0.21-0.21-0.42-0.43-0.64-0.64c-0.21-0.21-0.42-0.43-0.64-0.64
		c-0.21-0.21-0.42-0.43-0.64-0.64c-0.21-0.21-0.42-0.43-0.64-0.64c-0.21-0.21-0.42-0.43-0.64-0.64c-0.21-0.21-0.42-0.43-0.64-0.64
		c-0.21-0.21-0.42-0.43-0.64-0.64c-0.21-0.21-0.42-0.43-0.64-0.64c-0.21-0.21-0.42-0.43-0.64-0.64c-0.21-0.21-0.42-0.43-0.64-0.64
		c-0.21-0.21-0.42-0.43-0.64-0.64c-0.21-0.21-0.42-0.43-0.64-0.64c-0.21-0.21-0.42-0.43-0.64-0.64c-0.21-0.21-0.42-0.43-0.64-0.64
		c-0.21-0.21-0.42-0.43-0.64-0.64c-0.21-0.21-0.42-0.43-0.64-0.64c-0.21-0.21-0.42-0.43-0.64-0.64c-0.21-0.21-0.42-0.43-0.64-0.64
		c-0.21-0.21-0.42-0.43-0.64-0.64c-0.21-0.21-0.42-0.43-0.64-0.64c-0.21-0.21-0.42-0.43-0.64-0.64c-0.21-0.21-0.42-0.43-0.64-0.64
		c-0.21-0.21-0.42-0.43-0.64-0.64c-0.21-0.21-0.42-0.43-0.64-0.64c-0.21-0.21-0.42-0.43-0.64-0.64c-0.21-0.21-0.42-0.43-0.64-0.64
		c-0.21-0.21-0.42-0.43-0.64-0.64c-0.21-0.21-0.42-0.43-0.64-0.64c-0.21-0.21-0.42-0.43-0.64-0.64c-0.21-0.21-0.42-0.43-0.64-0.64
		c-0.21-0.21-0.42-0.43-0.64-0.64c-0.21-0.21-0.42-0.43-0.64-0.64c-0.21-0.21-0.42-0.43-0.64-0.64c-0.21-0.21-0.42-0.43-0.64-0.64
		c-0.21-0.21-0.42-0.43-0.64-0.64c-0.21-0.21-0.42-0.43-0.64-0.64c-0.21-0.21-0.42-0.43-0.64-0.64c-0.21-0.21-0.42-0.43-0.64-0.64
		c-0.21-0.21-0.42-0.43-0.64-0.64c-0.21-0.21-0.42-0.43-0.64-0.64c-0.21-0.21-0.42-0.43-0.64-0.64c-0.21-0.21-0.42-0.43-0.64-0.64
		c-0.21-0.21-0.42-0.43-0.64-0.64c-0.21-0.21-0.42-0.43-0.64-0.64c-0.21-0.21-0.42-0.43-0.64-0.64c-0.21-0.21-0.42-0.43-0.64-0.64
		c-0.21-0.21-0.42-0.43-0.64-0.64c-0.21-0.21-0.42-0.43-0.64-0.64c-0.21-0.21-0.42-0.43-0.64-0.64c-0.21-0.21-0.42-0.43-0.64-0.64
		c-0.21-0.21-0.42-0.43-0.64-0.64c-0.21-0.21-0.42-0.43-0.64-0.64c-0.21-0.21-0.42-0.43-0.64-0.64c-0.21-0.21-0.42-0.43-0.64-0.64
		c-0.21-0.21-0.42-0.43-0.64-0.64c-0.21-0.21-0.42-0.43-0.64-0.64c-0.21-0.21-0.42-0.43-0.64-0.64c-0.21-0.21-0.42-0.43-0.64-0.64
		c-0.21-0.21-0.42-0.43-0.64-0.64c-0.21-0.21-0.42-0.43-0.64-0.64c-0.21-0.21-0.42-0.43-0.64-0.64c-0.21-0.21-0.42-0.43-0.64-0.64
		c-0.21-0.21-0.42-0.43-0.64-0.64c-0.21-0.21-0.42-0.43-0.64-0.64c-0.21-0.21-0.42-0.43-0.64-0.64c-0.21-0.21-0.42-0.43-0.64-0.64
		c-0.21-0.21-0.42-0.43-0.64-0.64c-0.21-0.21-0.42-0.43-0.64-0.64c-0.21-0.21-0.42-0.43-0.64-0.64c-0.21-0.21-0.42-0.43-0.64-0.64
		c-0.21-0.21-0.42-0.43-0.64-0.64c-0.21-0.21-0.42-0.43-0.64-0.64c-0.21-0.21-0.42-0.43-0.64-0.64c-0.21-0.21-0.42-0.43-0.64-0.64
		c-0.21-0.21-0.42-0.43-0.64-0.64c-0.21-0.21-0.42-0.43-0.64-0.64c-0.21-0.21-0.42-0.43-0.64-0.64c-0.21-0.21-0.42-0.43-0.64-0.64
		c-0.21-0.21-0.42-0.43-0.64-0.64c-0.21-0.21-0.42-0.43-0.64-0.64c-0.21-0.21-0.42-0.43-0.64-0.64c-0.21-0.21-0.42-0.43-0.64-0.64
		c-0.21-0.21-0.42-0.43-0.64-0.64c-0.21-0.21-0.42-0.43-0.64-0.64c-0.21-0.21-0.42-0.43-0.64-0.64c-0.21-0.21-0.42-0.43-0.64-0.64
		c-0.21-0.21-0.42-0.43-0.64-0.64c-0.21-0.21-0.42-0.43-0.64-0.64c-0.21-0.21-0.42-0.43-0.64-0.64c-0.21-0.21-0.42-0.43-0.64-0.64
		c-0.21-0.21-0.42-0.43-0.64-0.64c-0.21-0.21-0.42-0.43-0.64-0.64c-0.21-0.21-0.42-0.43-0.64-0.64c-0.21-0.21-0.42-0.43-0.64-0.64
		c-0.21-0.21-0.42-0.43-0.64-0.64c-0.21-0.21-0.42-0.43-0.64-0.64c-0.21-0.21-0.42-0.43-0.64-0.64c-0.21-0.21-0.42-0.43-0.64-0.64
		c-0.21-0.21-0.42-0.43-0.64-0.64c-0.21-0.21-0.42-0.43-0.64-0.64c-0.21-0.21-0.42-0.43-0.64-0.64c-0.21-0.21-0.42-0.43-0.64-0.64
		c-0.21-0.21-0.42-0.43-0.64-0.64c-0.21-0.21-0.42-0.43-0.64-0.64c-0.21-0.21-0.42-0.43-0.64-0.64c-0.21-0.21-0.42-0.43-0.64-0.64
		c-0.21-0.21-0.42-0.43-0.64-0.64c-0.21-0.21-0.42-0.43-0.64-0.64c-0.21-0.21-0.42-0.43-0.64-0.64c-0.21-0.21-0.42-0.43-0.64-0.64
		c-0.21-0.21-0.42-0.43-0.64-0.64c-0.21-0.21-0.42-0.43-0.64-0.64c-0.21-0.21-0.42-0.43-0.64-0.64c-0.21-0.21-0.42-0.43-0.64-0.64
		c-0.21-0.21-0.42-0.43-0.64-0.64c-0.21-0.21-0.42-0.43-0.64-0.64c-0.21-0.21-0.42-0.43-0.64-0.64c-0.21-0.21-0.42-0.43-0.64-0.64
		c-0.21-0.21-0.42-0.43-0.64-0.64c-0.21-0.21-0.42-0.43-0.64-0.64c-0.21-0.21-0.42-0.43-0.64-0.64c-0.21-0.21-0.42-0.43-0.64-0.64
		c-0.21-0.21-0.42-0.43-0.64-0.64c-0.21-0.21-0.42-0.43-0.64-0.64c-0.21-0.21-0.42-0.43-0.64-0.64c-0.21-0.21-0.42-0.43-0.64-0.64
		c-0.21-0.21-0.42-0.43-0.64-0.64c-0.21-0.21-0.42-0.43-0.64-0.64c-0.21-0.21-0.42-0.43-0.64-0.64c-0.21-0.21-0.42-0.43-0.64-0.64
		c-0.21-0.21-0.42-0.43-0.64-0.64c-0.21-0.21-0.42-0.43-0.64-0.64c-0.21-0.21-0.42-0.43-0.64-0.64c-0.21-0.21-0.42-0.43-0.64-0.64
		c-0.21-0.21-0.42-0.43-0.64-0.64c-0.21-0.21-0.42-0.43-0.64-0.64c-0.21-0.21-0.42-0.43-0.64-0.64c-0.21-0.21-0.42-0.43-0.64-0.64
		c-0.21-0.21-0.42-0.43-0.64-0.64c-0.21-0.21-0.42-0.43-0.64-0.64c-0.21-0.21-0.42-0.43-0.64-0.64c-0.21-0.21-0.42-0.43-0.64-0.64
		c-0.21-0.21-0.42-0.43-0.64-0.64c-0.21-0.21-0.42-0.43-0.64-0.64c-0.21-0.21-0.42-0.43-0.64-0.64c-0.21-0.21-0.42-0.43-0.64-0.64
		c-0.21-0.21-0.42-0.43-0.64-0.64c-0.21-0.21-0.42-0.43-0.64-0.64c-0.21-0.21-0.42-0.43-0.64-0.64c-0.21-0.21-0.42-0.43-0.64-0.64
		c-0.21-0.21-0.42-0.43-0.64-0.64c-0.21-0.21-0.42-0.43-0.64-0.64c-0.21-0.21-0.42-0.43-0.64-0.64c-0.21-0.21-0.42-0.43-0.64-0.64
		c-0.21-0.21-0.42-0.43-0.64-0.64c-0.21-0.21-0.42-0.43-0.64-0.64c-0.21-0.21-0.42-0.43-0.64-0.64c-0.21-0.21-0.42-0.43-0.64-0.64
		c-0.21-0.21-0.42-0.43-0.64-0.64c-0.21-0.21-0.42-0.43-0.64-0.64c-0.21-0.21-0.42-0.43-0.64-0.64c-0.21-0.21-0.42-0.43-0.64-0.64
		c-0.21-0.21-0.42-0.43-0.64-0.64c-0.21-0.21-0.42-0.43-0.64-0.64c-0.21-0.21-0.42-0.43-0.64-0.64c-0.21-0.21-0.42-0.43-0.64-0.64
		c-0.21-0.21-0.42-0.43-0.64-0.64c-0.21-0.21-0.42-0.43-0.64-0.64c-0.21-0.21-0.42-0.43-0.64-0.64c-0.21-0.21-0.42-0.43-0.64-0.64
		c-0.21-0.21-0.42-0.43-0.64-0.64c-0.21-0.21-0.42-0.43-0.64-0.64c-0.21-0.21-0.42-0.43-0.64-0.64c-0.21-0.21-0.42-0.43-0.64-0.64
		c-0.21-0.21-0.42-0.43-0.64-0.64c-0.21-0.21-0.42-0.43-0.64-0.64c-0.21-0.21-0.42-0.43-0.64-0.64c-0.21-0.21-0.42-0.43-0.64-0.64
		c-0.21-0.21-0.42-0.43-0.64-0.64c-0.21-0.21-0.42-0.43-0.64-0.64c-0.21-0.21-0.42-0.43-0.64-0.64c-0.21-0.21-0.42-0.43-0.64-0.64
		c-0.21-0.21-0.42-0.43-0.64-0.64c-0.21-0.21-0.42-0.43-0.64-0.64c-0.21-0.21-0.42-0.43-0.64-0.64c-0.21-0.21-0.42-0.43-0.64-0.64
		c-0.21-0.21-0.42-0.43-0.64-0.64c-0.21-0.21-0.42-0.43-0.64-0.64c-0.21-0.21-0.42-0.43-0.64-0.64c-0.21-0.21-0.42-0.43-0.64-0.64
		c-0.21-0.21-0.42-0.43-0.64-0.64c-0.21-0.21-0.42-0.43-0.64-0.64c-0.21-0.21-0.42-0.43-0.64-0.64c-0.21-0.21-0.42-0.43-0.64-0.64
		c-0.21-0.21-0.42-0.43-0.64-0.64c-0.21-0.21-0.42-0.43-0.64-0.64c-0.21-0.21-0.42-0.43-0.64-0.64c-0.21-0.21-0.42-0.43-0.64-0.64
		c-0.21-0.21-0.42-0.43-0.64-0.64c-0.21-0.21-0.42-0.43-0.64-0.64c-0.21-0.21-0.42-0.43-0.64-0.64c-0.21-0.21-0.42-0.43-0.64-0.64
		c-0.21-0.21-0.42-0.43-0.64-0.64c-0.21-0.21-0.42-0.43-0.64-0.64c-0.21-0.21-0.42-0.43-0.64-0.64c-0.21-0.21-0.42-0.43-0.64-0.64
		c-0.21-0.21-0.42-0.43-0.64-0.64c-0.21-0.21-0.42-0.43-0.64-0.64c-0.21-0.21-0.42-0.43-0.64-0.64c-0.21-0.21-0.42-0.43-0.64-0.64
		c-0.21-0.21-0.42-0.43-0.64-0.64c-0.21-0.21-0.42-0.43-0.64-0.64c-0.21-0.21-0.42-0.43-0.64-0.64c-0.21-0.21-0.42-0.43-0.64-0.64
		c-0.21-0.21-0.42-0.43-0.64-0.64c-0.21-0.21-0.42-0.43-0.64-0.64c-0.21-0.21-0.42-0.43-0.64-0.64c-0.21-0.21-0.42-0.43-0.64-0.64
		c-0.21-0.21-0.42-0.43-0.64-0.64c-0.21-0.21-0.42-0.43-0.64-0.64c-0.21-0.21-0.42-0.43-0.64-0.64c-0.21-0.21-0.42-0.43-0.64-0.64
		c-0.21-0.21-0.42-0.43-0.64-0.64c-0.21-0.21-0.42-0.43-0.64-0.64c-0.21-0.21-0.42-0.43-0.64-0.64c-0.21-0.21-0.42-0.43-0.64-0.64
		c-0.21-0.21-0.42-0.43-0.64-0.64c-0.21-0.21-0.42-0.43-0.64-0.64c-0.21-0.21-0.42-0.43-0.64-0.64c-0.21-0.21-0.42-0.43-0.64-0.64
		c-0.21-0.21-0.42-0.43-0.64-0.64c-0.21-0.21-0.42-0.43-0.64-0.64c-0.21-0.21-0.42-0.43-0.64-0.64c-0.21-0.21-0.42-0.43-0.64-0.64
		c-0.21-0.21-0.42-0.43-0.64-0.64c-0.21-0.21-0.42-0.43-0.64-0.64c-11.88-12.04-28.37-19.52-46.58-19.52
		c-36.1,0-65.47,29.37-65.47,65.47c0,18.21,7.48,34.7,19.52,46.58c0.21,0.21,0.42,0.43,0.64,0.64c0.21,0.21,0.42,0.43,0.64,0.64
		c0.21,0.21,0.42,0.43,0.64,0.64c0.21,0.21,0.42,0.43,0.64,0.64c0.21,0.21,0.42,0.43,0.64,0.64c0.21,0.21,0.42,0.43,0.64,0.64
		c0.21,0.21,0.42,0.43,0.64,0.64c0.21,0.21,0.42,0.43,0.64,0.64c0.21,0.21,0.42,0.43,0.64,0.64c0.21,0.21,0.42,0.43,0.64,0.64
		c0.21,0.21,0.42,0.43,0.64,0.64c0.21,0.21,0.42,0.43,0.64,0.64c0.21,0.21,0.42,0.43,0.64,0.64c0.21,0.21,0.42,0.43,0.64,0.64
		c0.21,0.21,0.42,0.43,0.64,0.64c0.21,0.21,0.42,0.43,0.64,0.64c0.21,0.21,0.42,0.43,0.64,0.64c0.21,0.21,0.42,0.43,0.64,0.64
		c0.21,0.21,0.42,0.43,0.64,0.64c0.21,0.21,0.42,0.43,0.64,0.64c0.21,0.21,0.42,0.43,0.64,0.64c0.21,0.21,0.42,0.43,0.64,0.64
		c0.21,0.21,0.42,0.43,0.64,0.64c0.21,0.21,0.42,0.43,0.64,0.64c0.21,0.21,0.42,0.43,0.64,0.64c0.21,0.21,0.42,0.43,0.64,0.64
		c0.21,0.21,0.42,0.43,0.64,0.64c0.21,0.21,0.42,0.43,0.64,0.64c0.21,0.21,0.42,0.43,0.64,0.64c0.21,0.21,0.42,0.43,0.64,0.64
		c0.21,0.21,0.42,0.43,0.64,0.64c0.21,0.21,0.42,0.43,0.64,0.64c0.21,0.21,0.42,0.43,0.64,0.64c0.21,0.21,0.42,0.43,0.64,0.64
		c0.21,0.21,0.42,0.43,0.64,0.64c0.21,0.21,0.42,0.43,0.64,0.64c0.21,0.21,0.42,0.43,0.64,0.64c0.21,0.21,0.42,0.43,0.64,0.64
		c0.21,0.21,0.42,0.43,0.64,0.64c0.21,0.21,0.42,0.43,0.64,0.64c0.21,0.21,0.42,0.43,0.64,0.64c0.21,0.21,0.42,0.43,0.64,0.64
		c0.21,0.21,0.42,0.43,0.64,0.64c0.21,0.21,0.42,0.43,0.64,0.64c0.21,0.21,0.42,0.43,0.64,0.64c0.21,0.21,0.42,0.43,0.64,0.64
		c0.21,0.21,0.42,0.43,0.64,0.64c0.21,0.21,0.42,0.43,0.64,0.64c0.21,0.21,0.42,0.43,0.64,0.64c0.21,0.21,0.42,0.43,0.64,0.64
		c0.21,0.21,0.42,0.43,0.64,0.64c0.21,0.21,0.42,0.43,0.64,0.64c0.04,0.04,0.07,0.08,0.11,0.12c-8.7-1.38-16.95-4.12-24.51-8.04h-14
		c-34.34,0-62.28,27.94-62.28,62.27v80.73h0.64v0.64h0.64v0.64h0.64v0.64h0.64v0.64h0.64v0.64h0.64v0.64h0.64v0.64h0.64v0.64h0.64
		v0.64h0.64v0.64h0.64v0.64h0.64v0.64h0.64v0.64h0.64v0.64h0.64v0.64h0.64v0.64h0.64v0.64h0.64v0.64h0.64v0.64h0.64v0.64h0.64v0.64
		h0.64v0.64h0.64v0.64h0.64v0.64h0.64v0.64h0.64v0.64h0.64v0.64h0.64v0.64h0.64v0.64h0.64v0.64h0.64v0.64h0.64v0.64h0.64v0.64h0.64
		v0.64h0.64v0.64h0.64v0.64h0.64v0.64h0.64v0.64h0.64v0.64h0.64v0.64h0.64v0.64h0.64v0.64h0.64v0.64h0.64v0.64h0.64v0.64h0.64v0.64
		h0.64v0.64h0.64v0.64h0.64v0.64h0.64v0.64h0.64v0.64h0.64v0.64h0.64v0.64h0.64v0.64h0.64v0.64h0.64v0.64h0.64v0.64h0.64v0.64h0.64
		v0.64h0.64v0.64h0.64v0.64h0.64v0.64h0.64v0.64h0.64v0.64h0.64v0.64h0.64v0.64h0.64v0.64h0.64v0.64h0.64v0.64h0.64v0.64h0.64v0.64
		h0.64v0.64h0.64v0.64h0.64v0.64h0.64V428h0.64v0.64h0.64v0.64h0.64v0.64h0.64v0.64h0.64v0.64h0.64v0.64h0.64v0.64h0.64v0.64h0.64
		v0.64h0.64v0.64h0.64v0.64h0.64v0.64h0.64v0.64h0.64v0.64h0.64v0.64h0.64v0.64h0.64v0.64h0.64v0.64h0.64v0.64h0.64v0.64H200v0.64
		h0.64v0.64h0.64v0.64h0.64v0.64h0.64v0.64h0.64v0.64h0.64v0.64h0.64v0.64h0.64v0.64h0.64v0.64h0.64v0.64h0.64v0.64h0.64v0.64h0.64
		v0.64h0.64v0.64h0.64v0.64h0.64v0.64h0.64v0.64h0.64v0.64h0.64v0.64h0.64v0.64h0.64v0.64h0.64v0.64h0.64v0.64h0.64v0.64h0.64v0.64
		h0.64v0.64h0.64v0.64h0.64v0.64h0.64v0.64h0.64v0.64h0.64v0.64h0.64v0.64h0.64v0.64h0.64v0.64h0.64v0.64h0.64v0.64h0.64v0.64h0.64
		v0.64h0.64v0.64h0.64v0.64h0.64v0.64h0.64v0.64h0.64v0.64h0.64v0.64h0.64v0.64h0.64v0.64h0.64v0.64h0.64v0.64h0.64v0.64h0.64v0.64
		h0.64v0.64h0.64v0.64h0.64v0.64h0.64v0.64h0.64v0.64h0.64v0.64h0.64v0.64h0.64v0.64h0.64v0.64h0.64v0.64h0.64v0.64h0.64v0.64h0.64
		v0.64h0.64v0.64h0.64v0.64h0.64v0.64h0.64v0.64h0.64v0.64h0.64v0.64h0.64v0.64h0.64v0.64h0.64v0.64h0.64v0.64h0.64v0.64h0.64v0.64
		h0.64v0.64h0.64v0.64h0.64v0.64h0.64v0.64h0.64v0.64h0.64v0.64h0.64v0.64h0.64v0.64h0.64v0.64h0.64v0.64h0.64v0.64h0.64v0.64h0.64
		v0.64h0.64v0.64h0.64v0.64h0.64v0.64h0.64v0.64h0.64v0.64h0.64v0.64h0.64v0.64h0.64v0.64h0.64v0.64h0.64v0.64h0.64v0.64h0.64v0.64
		h0.64v0.64h0.64v0.64h0.64v0.64h0.64v0.64h0.64v0.64h0.64v0.64h0.64v0.64h0.64v0.64h0.64V511h0.64v0.64h0.64v0.64h0.64v0.64h0.64
		v0.64h0.64v0.64h0.64v0.64h0.64v0.64h0.64v0.64h0.64v0.64h0.64v0.64h0.64v0.64h0.64v0.64h0.64v0.64h0.64v0.64h0.64v0.64h0.64v0.64
		h0.64v0.64h0.64v0.64h0.64v0.64h0.64v0.64H283v0.64h0.64v0.64h0.64v0.64h0.64v0.64h0.64v0.64h0.64v0.64h0.64v0.64h0.64v0.64h0.64
		v0.64h0.64v0.64h0.64v0.64h0.64v0.64h0.64v0.64h0.64v0.64h0.64v0.64h0.64v0.64h0.64v0.64h0.64v0.64h0.64v0.64h0.64v0.64h0.64v0.64
		h0.64v0.64h0.64v0.64h0.64v0.64h0.64v0.64h0.64v0.64h0.64V541h0.64v0.64h0.64v0.64h0.64v0.64h0.64v0.64h0.64v0.64h0.64v0.64h0.64
		v0.64h0.64v0.64h0.64v0.64h0.64v0.64h0.64v0.64h0.64v0.64h0.64v0.64h0.64v0.64h0.64v0.64h0.64v0.64h0.64v0.64h0.64v0.64h0.64v0.64
		h0.64v0.64H313v0.64h0.64v0.64h0.64v0.64h0.64v0.64h0.64v0.64h0.64v0.64h0.64v0.64h0.64v0.64h0.64v0.64h0.64v0.64h0.64v0.64h0.64
		v0.64h0.64v0.64h0.64v0.64h0.64v0.64h0.64v0.64h0.64v0.64h0.64v0.64h0.64v0.64h0.64v0.64h0.64v0.64h0.64v0.64h0.64v0.64h0.64v0.64
		h0.64v0.64h0.64v0.64h0.64v0.64h0.64v0.64h226.83v-80.73C557.07,473.58,549.95,457.89,538.48,446.59z"/>
	<path class="st0" d="M303.27,237.11h-14c-11.13,5.77-23.76,9.06-37.14,9.06c-13.38,0-26.01-3.29-37.14-9.06h-14
		c-34.34,0-62.28,27.94-62.28,62.27v80.73h226.83v-80.73C365.54,265.04,337.6,237.11,303.27,237.11z"/>
	<path class="st0" d="M317.59,165.24c0-36.1-29.37-65.47-65.47-65.47s-65.47,29.37-65.47,65.47c0,36.1,29.37,65.47,65.47,65.47
		S317.59,201.34,317.59,165.24z"/>
</g>
</svg>
