<?xml version="1.0" encoding="utf-8"?>
<!-- Generator: Adobe Illustrator 24.1.2, SVG Export Plug-In . SVG Version: 6.00 Build 0)  -->
<svg version="1.1" id="Capa_1" xmlns="http://www.w3.org/2000/svg" xmlns:xlink="http://www.w3.org/1999/xlink" x="0px" y="0px"
	 viewBox="0 0 500 500" style="enable-background:new 0 0 500 500;" xml:space="preserve">
<style type="text/css">
	.st0{clip-path:url(#SVGID_1_);fill:#FFFFFF;}
	.st1{clip-path:url(#SVGID_1_);fill:#E46B1D;}
</style>
<g>
	<defs>
		<path id="SVGID_3_" d="M500,250C500,111.93,388.07,0,250,0C111.93,0,0,111.93,0,250c0,138.06,111.93,249.99,250,249.99
			C388.07,499.99,500,388.06,500,250z"/>
	</defs>
	<use xlink:href="#SVGID_3_"  style="overflow:visible;fill:#ED7621;"/>
	<clipPath id="SVGID_1_">
		<use xlink:href="#SVGID_3_"  style="overflow:visible;"/>
	</clipPath>
	<path class="st0" d="M306.99,233.72h-14.28c-11.35,5.89-24.23,9.24-37.88,9.24c-13.65,0-26.53-3.35-37.88-9.24h-14.27
		c-35.03,0-63.51,28.49-63.51,63.51v82.33H370.5v-82.33C370.5,262.21,342,233.72,306.99,233.72z"/>
	<path class="st0" d="M321.6,160.43c0-36.82-29.95-66.78-66.77-66.78c-36.81,0-66.77,29.96-66.77,66.78
		c0,36.82,29.96,66.77,66.77,66.77C291.65,227.19,321.6,197.24,321.6,160.43z"/>
	<path class="st1" d="M580.66,481.85c-0.25-0.26-0.51-0.51-0.77-0.77c-0.25-0.26-0.51-0.51-0.77-0.77
		c-0.25-0.26-0.51-0.52-0.77-0.77c-0.25-0.26-0.51-0.52-0.77-0.77c-0.25-0.26-0.51-0.52-0.77-0.77c-0.25-0.26-0.51-0.51-0.77-0.77
		c-0.25-0.26-0.51-0.52-0.77-0.77c-0.25-0.26-0.51-0.52-0.77-0.77c-0.25-0.26-0.51-0.52-0.77-0.77c-0.25-0.26-0.5-0.51-0.76-0.76
		c-0.25-0.26-0.51-0.52-0.78-0.78c-0.25-0.25-0.51-0.51-0.77-0.77c-0.25-0.25-0.5-0.5-0.75-0.76c-0.25-0.25-0.51-0.51-0.77-0.77
		c-0.26-0.26-0.51-0.52-0.78-0.78c-0.25-0.25-0.5-0.51-0.76-0.76c-0.25-0.26-0.51-0.51-0.76-0.77c-0.25-0.26-0.51-0.51-0.77-0.77
		c-0.25-0.26-0.51-0.51-0.77-0.77c-0.25-0.26-0.51-0.51-0.77-0.77c-0.25-0.26-0.51-0.51-0.77-0.77c-0.25-0.26-0.51-0.51-0.76-0.77
		c-0.25-0.26-0.51-0.51-0.77-0.77c-0.25-0.26-0.51-0.51-0.77-0.77c-0.25-0.26-0.51-0.51-0.77-0.77c-0.25-0.26-0.51-0.51-0.77-0.77
		c-0.25-0.26-0.51-0.51-0.76-0.77c-0.25-0.26-0.51-0.51-0.77-0.77c-0.25-0.26-0.51-0.51-0.77-0.77c-0.25-0.26-0.51-0.51-0.77-0.77
		c-0.25-0.26-0.51-0.52-0.76-0.77c-0.25-0.26-0.51-0.52-0.77-0.77c-0.25-0.26-0.51-0.52-0.76-0.77c-0.25-0.26-0.51-0.52-0.77-0.77
		c-0.25-0.25-0.51-0.51-0.77-0.77c-0.25-0.25-0.51-0.51-0.76-0.77c-0.25-0.25-0.51-0.51-0.77-0.77c-0.25-0.25-0.51-0.51-0.76-0.77
		c-0.25-0.25-0.51-0.51-0.77-0.77c-0.25-0.26-0.51-0.51-0.76-0.77c-0.25-0.26-0.51-0.51-0.77-0.77c-0.25-0.26-0.51-0.51-0.77-0.77
		c-0.25-0.26-0.51-0.51-0.76-0.77c-0.25-0.26-0.51-0.51-0.77-0.77c-0.25-0.26-0.51-0.51-0.76-0.77c-0.25-0.26-0.51-0.51-0.77-0.77
		c-0.25-0.25-0.5-0.5-0.75-0.75c-0.25-0.26-0.5-0.52-0.76-0.77c-0.26-0.26-0.52-0.52-0.78-0.78c-0.25-0.26-0.51-0.51-0.77-0.77
		c-0.25-0.25-0.5-0.5-0.75-0.75c-0.25-0.26-0.51-0.52-0.76-0.77c-0.26-0.26-0.52-0.52-0.78-0.78c-0.25-0.25-0.5-0.51-0.76-0.76
		c-0.25-0.26-0.51-0.51-0.76-0.77c-0.25-0.26-0.5-0.51-0.76-0.77c-0.25-0.26-0.51-0.51-0.76-0.77c-0.25-0.26-0.5-0.51-0.76-0.77
		c-0.25-0.26-0.51-0.51-0.76-0.77c-0.25-0.26-0.5-0.51-0.76-0.77c-0.25-0.26-0.51-0.51-0.76-0.77c-0.13-0.13-0.24-0.27-0.37-0.4
		c10.57-11.82,17.06-27.36,17.06-44.42c0-18.6-7.66-35.43-19.97-47.55c-0.25-0.26-0.51-0.51-0.76-0.77
		c-0.25-0.26-0.51-0.51-0.76-0.77c-0.25-0.26-0.51-0.51-0.76-0.77c-0.25-0.26-0.51-0.51-0.76-0.77c-0.25-0.26-0.51-0.51-0.76-0.77
		c-0.25-0.26-0.51-0.51-0.76-0.77c-0.25-0.26-0.51-0.51-0.76-0.77c-0.25-0.26-0.51-0.51-0.76-0.77c-0.25-0.26-0.51-0.51-0.76-0.77
		c-0.25-0.26-0.51-0.51-0.76-0.77c-0.25-0.26-0.51-0.51-0.76-0.77c-0.25-0.26-0.51-0.51-0.76-0.77c-0.25-0.26-0.51-0.51-0.76-0.77
		c-0.25-0.26-0.51-0.51-0.76-0.77c-0.25-0.26-0.51-0.51-0.76-0.77c-0.25-0.26-0.51-0.51-0.76-0.77c-0.25-0.26-0.51-0.51-0.76-0.77
		c-0.25-0.26-0.51-0.51-0.76-0.77c-0.25-0.26-0.51-0.51-0.76-0.77c-0.25-0.26-0.51-0.51-0.76-0.77c-0.25-0.26-0.51-0.51-0.76-0.77
		c-0.25-0.26-0.51-0.51-0.76-0.77c-0.25-0.26-0.51-0.51-0.76-0.77c-0.25-0.26-0.51-0.51-0.76-0.77c-0.25-0.26-0.51-0.51-0.76-0.77
		c-0.25-0.26-0.51-0.51-0.76-0.77c-0.25-0.26-0.51-0.51-0.76-0.77c-0.25-0.26-0.51-0.51-0.76-0.77c-0.25-0.26-0.51-0.51-0.76-0.77
		c-0.25-0.26-0.51-0.51-0.76-0.77c-0.25-0.26-0.51-0.51-0.76-0.77c-0.25-0.26-0.51-0.51-0.76-0.77c-0.25-0.26-0.51-0.51-0.76-0.77
		c-0.25-0.26-0.51-0.51-0.76-0.77c-0.25-0.26-0.51-0.51-0.76-0.77c-0.25-0.26-0.51-0.51-0.76-0.77c-0.25-0.26-0.51-0.51-0.76-0.77
		c-0.25-0.26-0.51-0.51-0.76-0.77c-0.25-0.26-0.51-0.51-0.76-0.77c-0.25-0.26-0.51-0.51-0.76-0.77c-0.25-0.26-0.51-0.51-0.76-0.77
		c-0.25-0.26-0.51-0.51-0.76-0.77c-0.25-0.26-0.51-0.51-0.76-0.77c-0.25-0.26-0.51-0.51-0.76-0.77c-0.25-0.26-0.51-0.51-0.76-0.77
		c-0.25-0.26-0.51-0.51-0.76-0.77c-0.25-0.26-0.51-0.51-0.76-0.77c-0.25-0.26-0.51-0.51-0.76-0.77c-0.25-0.26-0.51-0.51-0.76-0.77
		c-0.25-0.26-0.51-0.51-0.76-0.77c-0.25-0.26-0.51-0.51-0.76-0.77c-0.25-0.26-0.51-0.51-0.76-0.77c-0.25-0.26-0.51-0.51-0.76-0.77
		c-0.25-0.26-0.51-0.51-0.76-0.77c-0.25-0.26-0.51-0.51-0.76-0.77c-0.25-0.26-0.51-0.51-0.76-0.77c-0.25-0.26-0.51-0.51-0.76-0.77
		c-0.25-0.26-0.51-0.51-0.76-0.77c-0.25-0.26-0.51-0.51-0.76-0.77c-0.25-0.26-0.51-0.51-0.76-0.77c-0.25-0.26-0.51-0.51-0.76-0.77
		c-0.25-0.26-0.51-0.51-0.76-0.77c-0.25-0.26-0.51-0.51-0.76-0.77c-0.25-0.26-0.51-0.51-0.76-0.77c-0.25-0.26-0.51-0.51-0.76-0.77
		c-0.25-0.26-0.51-0.51-0.76-0.77c-0.25-0.26-0.51-0.51-0.76-0.77c-0.25-0.26-0.51-0.51-0.76-0.77c-0.25-0.26-0.51-0.51-0.76-0.77
		c-0.25-0.26-0.51-0.51-0.76-0.77c-0.25-0.26-0.51-0.51-0.76-0.77c-0.25-0.26-0.51-0.51-0.76-0.77c-0.25-0.26-0.51-0.51-0.76-0.77
		c-0.25-0.26-0.51-0.51-0.76-0.77c-0.25-0.26-0.51-0.51-0.76-0.77c-0.25-0.26-0.51-0.51-0.76-0.77c-0.25-0.26-0.51-0.51-0.76-0.77
		c-0.25-0.26-0.51-0.51-0.76-0.77c-0.25-0.26-0.51-0.51-0.76-0.77c-0.25-0.26-0.51-0.51-0.76-0.77c-0.25-0.26-0.51-0.51-0.76-0.77
		c-0.25-0.26-0.51-0.51-0.76-0.77c-0.25-0.26-0.51-0.51-0.76-0.77c-0.25-0.26-0.51-0.51-0.76-0.77c-0.25-0.26-0.51-0.51-0.76-0.77
		c-0.25-0.26-0.51-0.51-0.76-0.77c-0.25-0.26-0.51-0.51-0.76-0.77c-0.25-0.26-0.51-0.51-0.76-0.77c-0.25-0.26-0.51-0.51-0.76-0.77
		c-0.25-0.26-0.51-0.51-0.76-0.77c-0.25-0.26-0.51-0.51-0.76-0.77c-0.25-0.26-0.51-0.51-0.76-0.77c-0.25-0.26-0.51-0.51-0.76-0.77
		c-0.25-0.26-0.51-0.51-0.76-0.77c-0.25-0.26-0.51-0.51-0.76-0.77c-0.25-0.26-0.51-0.51-0.76-0.77c-0.25-0.26-0.51-0.51-0.76-0.77
		c-0.25-0.26-0.51-0.51-0.76-0.77c-0.25-0.26-0.51-0.51-0.76-0.77c-0.25-0.26-0.51-0.51-0.76-0.77c-0.25-0.26-0.51-0.51-0.76-0.77
		c-0.25-0.26-0.51-0.51-0.76-0.77c-0.25-0.26-0.51-0.51-0.76-0.77c-0.25-0.26-0.51-0.51-0.76-0.77c-0.25-0.26-0.51-0.51-0.76-0.77
		c-0.25-0.26-0.51-0.51-0.76-0.77c-0.25-0.26-0.51-0.51-0.76-0.77c-0.25-0.26-0.51-0.51-0.76-0.77c-0.25-0.26-0.51-0.51-0.76-0.77
		c-0.25-0.26-0.51-0.51-0.76-0.77c-0.25-0.26-0.51-0.51-0.76-0.77c-0.25-0.26-0.51-0.51-0.76-0.77c-0.25-0.26-0.51-0.51-0.76-0.77
		c-0.25-0.26-0.51-0.51-0.76-0.77c-0.25-0.26-0.51-0.51-0.76-0.77c-0.25-0.26-0.51-0.51-0.76-0.77c-0.25-0.26-0.51-0.51-0.76-0.77
		c-0.25-0.26-0.51-0.51-0.76-0.77c-0.25-0.26-0.51-0.51-0.76-0.77c-0.25-0.26-0.51-0.51-0.76-0.77c-0.25-0.26-0.51-0.51-0.76-0.77
		c-0.25-0.26-0.51-0.51-0.76-0.77c-0.25-0.26-0.51-0.51-0.76-0.77c-0.25-0.26-0.51-0.51-0.76-0.77c-0.25-0.26-0.51-0.51-0.76-0.77
		c-0.25-0.26-0.51-0.51-0.76-0.77c-0.25-0.26-0.51-0.51-0.76-0.77c-0.25-0.26-0.51-0.51-0.76-0.77c-0.25-0.26-0.51-0.51-0.76-0.77
		c-0.25-0.26-0.51-0.51-0.76-0.77c-0.25-0.26-0.51-0.51-0.76-0.77c-0.25-0.26-0.51-0.51-0.76-0.77c-0.25-0.26-0.51-0.51-0.76-0.77
		c-0.25-0.26-0.51-0.51-0.76-0.77c-0.25-0.26-0.51-0.51-0.76-0.77c-0.25-0.26-0.51-0.51-0.76-0.77c-0.25-0.26-0.51-0.51-0.76-0.77
		c-0.25-0.26-0.51-0.51-0.76-0.77c-0.25-0.26-0.51-0.51-0.76-0.77c-0.25-0.26-0.51-0.51-0.76-0.77c-0.25-0.26-0.51-0.51-0.76-0.77
		c-0.25-0.26-0.51-0.51-0.76-0.77c-0.25-0.26-0.51-0.51-0.76-0.77c-0.25-0.26-0.51-0.51-0.76-0.77c-0.25-0.26-0.51-0.51-0.76-0.77
		c-0.25-0.26-0.51-0.51-0.76-0.77c-0.25-0.26-0.51-0.51-0.76-0.77c-0.25-0.26-0.51-0.51-0.76-0.77c-0.25-0.26-0.51-0.51-0.76-0.77
		c-0.25-0.26-0.51-0.51-0.76-0.77c-0.25-0.26-0.51-0.51-0.76-0.77c-0.25-0.26-0.51-0.51-0.76-0.77c-0.25-0.26-0.51-0.51-0.76-0.77
		c-0.25-0.26-0.51-0.51-0.76-0.77c-0.25-0.26-0.51-0.51-0.76-0.77c-0.25-0.26-0.51-0.51-0.76-0.77c-0.25-0.26-0.51-0.51-0.76-0.77
		c-0.25-0.26-0.51-0.51-0.76-0.77c-0.25-0.26-0.51-0.51-0.76-0.77c-0.25-0.26-0.51-0.51-0.76-0.77c-0.25-0.26-0.51-0.51-0.76-0.77
		c-0.25-0.26-0.51-0.51-0.76-0.77c-0.25-0.26-0.51-0.51-0.76-0.77c-0.25-0.26-0.51-0.51-0.76-0.77c-0.25-0.26-0.51-0.51-0.76-0.77
		c-0.25-0.26-0.51-0.51-0.76-0.77c-0.25-0.26-0.51-0.51-0.76-0.77c-0.25-0.26-0.51-0.51-0.76-0.77c-0.25-0.26-0.51-0.51-0.76-0.77
		c-0.25-0.26-0.51-0.51-0.76-0.77c-0.25-0.26-0.51-0.51-0.76-0.77c-0.25-0.26-0.51-0.51-0.76-0.77c-0.25-0.26-0.51-0.51-0.76-0.77
		c-0.25-0.26-0.51-0.51-0.76-0.77c-0.25-0.26-0.51-0.51-0.76-0.77c-0.25-0.26-0.51-0.51-0.76-0.77c-0.25-0.26-0.51-0.51-0.76-0.77
		c-0.25-0.26-0.51-0.51-0.76-0.77c-0.25-0.26-0.51-0.51-0.76-0.77c-0.25-0.26-0.51-0.51-0.76-0.77c-0.25-0.26-0.51-0.51-0.76-0.77
		c-0.25-0.26-0.51-0.51-0.76-0.77c-0.25-0.26-0.51-0.51-0.76-0.77c-0.25-0.26-0.51-0.51-0.76-0.77c-0.25-0.26-0.51-0.51-0.76-0.77
		c-0.25-0.26-0.51-0.51-0.76-0.77c-0.25-0.26-0.51-0.51-0.76-0.77c-0.25-0.26-0.51-0.51-0.76-0.77c-0.25-0.26-0.51-0.51-0.76-0.77
		c-0.25-0.26-0.51-0.51-0.76-0.77c-0.25-0.26-0.51-0.51-0.76-0.77c-0.25-0.26-0.51-0.51-0.76-0.77c-0.25-0.26-0.51-0.51-0.76-0.77
		c-0.25-0.26-0.51-0.51-0.76-0.77c-0.25-0.26-0.51-0.51-0.76-0.77c-0.25-0.26-0.51-0.51-0.76-0.77c-0.25-0.26-0.51-0.51-0.76-0.77
		c-0.25-0.26-0.51-0.51-0.76-0.77c-0.25-0.26-0.51-0.51-0.76-0.77c-0.25-0.26-0.51-0.51-0.76-0.77c-0.25-0.26-0.51-0.51-0.76-0.77
		c-0.25-0.26-0.51-0.51-0.76-0.77c-0.25-0.26-0.51-0.51-0.76-0.77c-0.25-0.26-0.51-0.51-0.76-0.77c-0.25-0.26-0.51-0.51-0.76-0.77
		c-0.25-0.26-0.51-0.51-0.76-0.77c-0.25-0.26-0.51-0.51-0.76-0.77c-0.25-0.26-0.51-0.51-0.76-0.77c-0.25-0.26-0.51-0.51-0.76-0.77
		c-0.25-0.26-0.51-0.51-0.76-0.77c-0.25-0.26-0.51-0.51-0.76-0.77c-0.25-0.26-0.51-0.51-0.76-0.77c-0.25-0.26-0.51-0.51-0.76-0.77
		c-0.25-0.26-0.51-0.51-0.76-0.77c-0.25-0.26-0.51-0.51-0.76-0.77c-0.25-0.26-0.51-0.51-0.76-0.77c-0.25-0.26-0.51-0.51-0.76-0.77
		c-0.25-0.26-0.51-0.51-0.76-0.77c-0.25-0.26-0.51-0.51-0.76-0.77c-0.25-0.26-0.51-0.51-0.76-0.77c-0.25-0.26-0.51-0.51-0.76-0.77
		c-0.25-0.26-0.51-0.51-0.76-0.77c-0.25-0.26-0.51-0.51-0.76-0.77c-0.25-0.26-0.51-0.51-0.76-0.77c-0.25-0.26-0.51-0.51-0.76-0.77
		c-0.25-0.26-0.51-0.51-0.76-0.77c-0.25-0.26-0.51-0.51-0.76-0.77c-0.25-0.26-0.51-0.51-0.76-0.77c-0.25-0.26-0.51-0.51-0.76-0.77
		c-0.25-0.26-0.51-0.51-0.76-0.77c-0.25-0.26-0.51-0.51-0.76-0.77c-0.25-0.26-0.51-0.51-0.76-0.77c-0.25-0.26-0.51-0.51-0.76-0.77
		c-0.25-0.26-0.51-0.51-0.76-0.77c-0.25-0.26-0.51-0.51-0.76-0.77c-0.25-0.26-0.51-0.51-0.76-0.77c-0.25-0.26-0.51-0.51-0.76-0.77
		c-0.25-0.26-0.51-0.51-0.76-0.77c-0.25-0.26-0.51-0.51-0.76-0.77c-0.25-0.26-0.51-0.51-0.76-0.77c-0.25-0.26-0.51-0.51-0.76-0.77
		c-0.25-0.26-0.51-0.51-0.76-0.77c-0.25-0.26-0.51-0.51-0.76-0.77c-0.25-0.26-0.51-0.51-0.76-0.77c-0.25-0.26-0.51-0.51-0.76-0.77
		c-0.25-0.26-0.51-0.51-0.76-0.77c-0.25-0.26-0.51-0.51-0.76-0.77c-0.25-0.26-0.51-0.51-0.76-0.77c-0.25-0.26-0.51-0.51-0.76-0.77
		c-0.25-0.26-0.51-0.51-0.76-0.77c-0.25-0.26-0.51-0.51-0.76-0.77c-0.25-0.26-0.51-0.51-0.76-0.77c-0.25-0.26-0.51-0.51-0.76-0.77
		c-0.25-0.26-0.51-0.51-0.76-0.77c-0.25-0.26-0.51-0.51-0.76-0.77c-0.25-0.26-0.51-0.51-0.76-0.77c-0.25-0.26-0.51-0.51-0.76-0.77
		c-0.25-0.26-0.51-0.51-0.76-0.77c-0.25-0.26-0.51-0.51-0.76-0.77c-0.25-0.26-0.51-0.51-0.76-0.77c-0.25-0.26-0.51-0.51-0.76-0.77
		c-0.25-0.26-0.51-0.51-0.76-0.77c-0.25-0.26-0.51-0.51-0.76-0.77c-0.25-0.26-0.51-0.51-0.76-0.77c-0.25-0.26-0.51-0.51-0.76-0.77
		c-0.25-0.26-0.51-0.51-0.76-0.77c-0.25-0.26-0.51-0.51-0.76-0.77c-0.25-0.26-0.51-0.51-0.76-0.77c-0.25-0.26-0.51-0.51-0.76-0.77
		c-0.25-0.26-0.51-0.51-0.76-0.77c-0.25-0.26-0.51-0.51-0.76-0.77c-0.25-0.26-0.51-0.51-0.76-0.77c-0.25-0.26-0.51-0.51-0.76-0.77
		c-0.25-0.26-0.51-0.51-0.76-0.77c-0.25-0.26-0.51-0.51-0.76-0.77c-0.25-0.26-0.51-0.51-0.76-0.77c-0.25-0.26-0.51-0.51-0.76-0.77
		c-0.25-0.26-0.51-0.51-0.76-0.77c-0.25-0.26-0.51-0.51-0.76-0.77c-0.25-0.26-0.51-0.51-0.76-0.77c-0.25-0.26-0.51-0.51-0.76-0.77
		c-0.25-0.26-0.51-0.51-0.76-0.77c-0.25-0.26-0.51-0.51-0.76-0.77c-0.25-0.26-0.51-0.51-0.76-0.77c-0.25-0.26-0.51-0.51-0.76-0.77
		c-0.25-0.26-0.51-0.51-0.76-0.77c-0.25-0.26-0.51-0.51-0.76-0.77c-0.25-0.26-0.51-0.51-0.76-0.77c-0.25-0.26-0.51-0.51-0.76-0.77
		c-0.25-0.26-0.51-0.51-0.76-0.77c-0.25-0.26-0.51-0.51-0.76-0.77c-0.25-0.26-0.51-0.51-0.76-0.77c-0.25-0.26-0.51-0.51-0.76-0.77
		c-0.25-0.26-0.51-0.51-0.76-0.77c-0.25-0.26-0.51-0.51-0.76-0.77c-0.25-0.26-0.51-0.51-0.76-0.77c-0.25-0.26-0.51-0.51-0.76-0.77
		c-0.25-0.26-0.51-0.51-0.76-0.77c-0.25-0.26-0.51-0.51-0.76-0.77c-12.12-12.32-28.96-20-47.57-20c-36.81,0-66.77,29.96-66.77,66.78
		c0,18.6,7.66,35.42,19.97,47.54c0.25,0.25,0.51,0.51,0.76,0.77c0.25,0.25,0.51,0.51,0.76,0.77c0.25,0.25,0.51,0.51,0.76,0.77
		c0.25,0.25,0.51,0.51,0.76,0.77c0.25,0.25,0.51,0.51,0.76,0.77c0.25,0.25,0.51,0.51,0.76,0.77c0.25,0.25,0.51,0.51,0.76,0.77
		c0.25,0.25,0.51,0.51,0.76,0.77c0.25,0.25,0.51,0.51,0.76,0.77c0.25,0.25,0.51,0.51,0.76,0.77c0.25,0.25,0.51,0.51,0.76,0.77
		c0.25,0.25,0.51,0.51,0.76,0.77c0.25,0.25,0.51,0.51,0.76,0.77c0.25,0.25,0.51,0.51,0.76,0.77c0.25,0.25,0.51,0.51,0.76,0.77
		c0.25,0.25,0.51,0.51,0.76,0.77c0.25,0.25,0.51,0.51,0.76,0.77c0.25,0.25,0.51,0.51,0.76,0.77c0.25,0.25,0.51,0.51,0.76,0.77
		c0.25,0.25,0.51,0.51,0.76,0.77c0.25,0.25,0.51,0.51,0.76,0.77c0.25,0.25,0.51,0.51,0.76,0.77c0.25,0.25,0.51,0.51,0.76,0.77
		c0.25,0.25,0.51,0.51,0.76,0.77c0.25,0.25,0.51,0.51,0.76,0.77c0.25,0.25,0.51,0.51,0.76,0.77c0.25,0.25,0.51,0.51,0.76,0.77
		c0.25,0.25,0.51,0.51,0.76,0.77c0.25,0.25,0.51,0.51,0.76,0.77c0.25,0.25,0.51,0.51,0.76,0.77c0.25,0.25,0.51,0.51,0.76,0.77
		c0.25,0.25,0.51,0.51,0.76,0.77c0.25,0.25,0.51,0.51,0.76,0.77c0.25,0.25,0.51,0.51,0.76,0.77c0.25,0.25,0.51,0.51,0.76,0.77
		c0.25,0.25,0.51,0.51,0.76,0.77c0.25,0.25,0.51,0.51,0.76,0.77c0.25,0.25,0.51,0.51,0.76,0.77c0.25,0.25,0.51,0.51,0.76,0.77
		c0.25,0.25,0.51,0.51,0.76,0.77c0.25,0.25,0.51,0.51,0.76,0.77c0.25,0.25,0.51,0.51,0.76,0.77c0.25,0.25,0.51,0.51,0.76,0.77
		c0.25,0.25,0.51,0.51,0.76,0.77c0.07,0.07,0.13,0.15,0.2,0.22c-8.83-1.41-17.21-4.2-24.88-8.18h-14.27
		c-35.03,0-63.51,28.49-63.51,63.51v82.33h0.76v0.77h0.76v0.77h0.76v0.77h0.76v0.77h0.76v0.77h0.76v0.77h0.76v0.77h0.76v0.77h0.76
		v0.77h0.76v0.77h0.76v0.77h0.76v0.77h0.76v0.77h0.76v0.77h0.76v0.77h0.76v0.77h0.76v0.77h0.76v0.77h0.76v0.77h0.76v0.77h0.76v0.77
		h0.76v0.77h0.76v0.77h0.76v0.77h0.76v0.77h0.76v0.77h0.76v0.77h0.76v0.77h0.76v0.77h0.76v0.77h0.76v0.77h0.76v0.77h0.76v0.77h0.76
		v0.77h0.76v0.77h0.76v0.77h0.76v0.77h0.76v0.77h0.76v0.77h0.76v0.77h0.76v0.77h0.76v0.77H172v0.77h0.76v0.77h0.76v0.77h0.76v0.77
		h0.76v0.77h0.76v0.77h0.76v0.77h0.76v0.77h0.76v0.77h0.76v0.77h0.76v0.77h0.76v0.77h0.76v0.77h0.76v0.77h0.76v0.77h0.76V424h0.76
		v0.77h0.76v0.77h0.76v0.77h0.76v0.77h0.76v0.77h0.76v0.77h0.76v0.77h0.76v0.77h0.76v0.77h0.76v0.77h0.76v0.77h0.76v0.77h0.76v0.77
		h0.76v0.77h0.76v0.77h0.76v0.77h0.76v0.77h0.76v0.77h0.76v0.77h0.76v0.77h0.76v0.77h0.76v0.77h0.76v0.77h0.76v0.77h0.76v0.77h0.76
		v0.77h0.76v0.77h0.76v0.77h0.76v0.77h0.76v0.77h0.76v0.77h0.76v0.77h0.76v0.77h0.76v0.77h0.76v0.77h0.76v0.77h0.76v0.77h0.76v0.77
		h0.76v0.77h0.76v0.77h0.76v0.77h0.76v0.77h0.76v0.77h0.76v0.77h0.76v0.77h0.76v0.77h0.76v0.77h0.76v0.77h0.76v0.77h0.76v0.77h0.76
		v0.77h0.76v0.77h0.76v0.77h0.76v0.77h0.76v0.77h0.76v0.77h0.76v0.77h0.76v0.77h0.76v0.77h0.76v0.77h0.76v0.77h0.76v0.77h0.76v0.77
		h0.76v0.77h0.76v0.77h0.76v0.77h0.76v0.77h0.76v0.77h0.76v0.77h0.76v0.77h0.76v0.77h0.76v0.77h0.76v0.77h0.76v0.77h0.76v0.77h0.76
		v0.77h0.76V483h0.76v0.77h0.76v0.77h0.76v0.77h0.76v0.77h0.76v0.77h0.76v0.77h0.76v0.77h0.76v0.77h0.76v0.77h0.76v0.77h0.76v0.77
		h0.76v0.77h0.76v0.77h0.76v0.77h0.76v0.77h0.76v0.77h0.76v0.77h0.76v0.77h0.76v0.77h0.76v0.77h0.76v0.77h0.76v0.77h0.76v0.77h0.76
		v0.77h0.76v0.77h0.76v0.77h0.76v0.77h0.76v0.77h0.76v0.77h0.76v0.77h0.76v0.77h0.76v0.77h0.76v0.77h0.76v0.77h0.76v0.77h0.76v0.77
		h0.76v0.77h0.76v0.77h0.76v0.77h0.76v0.77h0.76v0.77h0.76v0.77h0.76v0.77h0.76v0.77h0.76v0.77h0.76v0.77h0.76v0.77h0.76v0.77h0.76
		v0.77h0.76v0.77h0.76v0.77h0.76v0.77h0.76v0.77h0.76v0.77h0.76v0.77h0.76v0.77h0.76v0.77h0.76v0.77h0.76v0.77h0.76v0.77h0.76v0.77
		h0.76v0.77h0.76v0.77h0.76v0.77h0.76v0.77h0.76v0.77h0.76v0.77h0.76v0.77h0.76v0.77h0.76v0.77h0.76v0.77h0.76v0.77h0.76v0.77h0.76
		v0.77h0.76v0.77h0.76v0.77h0.76V542h0.76v0.77h0.76v0.77h0.76v0.77h0.76v0.77h0.76v0.77h0.76v0.77h0.76v0.77h0.76v0.77h0.76v0.77
		h0.76v0.77h0.76v0.77h0.76v0.77H311v0.77h0.76v0.77h0.76v0.77h0.76v0.77h0.76v0.77h0.76v0.77h0.76v0.77h0.76v0.77h0.76v0.77h0.76
		v0.77h0.76v0.77h0.76v0.77h0.76v0.77h0.76v0.77h0.76v0.77h0.76v0.77h0.76v0.77h0.76v0.77h0.76v0.77h0.76v0.77h0.76v0.77h0.76v0.77
		h0.76v0.77h0.76v0.77h0.76v0.77h0.76v0.77h0.76v0.77h0.76v0.77h0.76v0.77h0.76v0.77h0.76v0.77h0.76v0.77h0.76v0.77h0.76v0.77h0.76
		v0.77h0.76v0.77h0.76v0.77h0.76v0.77h0.76v0.77h0.76v0.77h0.76v0.77h0.76v0.77h0.76v0.77h0.76v0.77h0.76v0.77h0.76v0.77h0.76v0.77
		h0.76v0.77h0.76v0.77h0.76v0.77h0.76v0.77h0.76v0.77h0.76v0.77h0.76v0.77h0.76v0.77H353v0.77h0.76v0.77h0.76v0.77h0.76v0.77h0.76
		v0.77h0.76v0.77h0.76v0.77h0.76v0.77h0.76v0.77h0.76v0.77h0.76v0.77h0.76v0.77h0.76v0.77h0.76v0.77h0.76v0.77h0.76v0.77h0.76v0.77
		h0.76v0.77h0.76v0.77h0.76v0.77h0.76v0.77h231.44v-82.33C599.72,509.39,592.4,493.37,580.66,481.85z"/>
	<path class="st0" d="M306.99,233.72h-14.28c-11.35,5.89-24.23,9.24-37.88,9.24c-13.65,0-26.53-3.35-37.88-9.24h-14.27
		c-35.03,0-63.51,28.49-63.51,63.51v82.33H370.5v-82.33C370.5,262.21,342,233.72,306.99,233.72z"/>
	<path class="st0" d="M321.6,160.43c0-36.82-29.95-66.78-66.77-66.78c-36.81,0-66.77,29.96-66.77,66.78
		c0,36.82,29.96,66.77,66.77,66.77C291.65,227.19,321.6,197.24,321.6,160.43z"/>
</g>
</svg>
