<?xml version="1.0" encoding="utf-8"?>
<!-- Generator: Adobe Illustrator 24.1.2, SVG Export Plug-In . SVG Version: 6.00 Build 0)  -->
<svg version="1.1" id="Capa_1" xmlns="http://www.w3.org/2000/svg" xmlns:xlink="http://www.w3.org/1999/xlink" x="0px" y="0px"
	 viewBox="0 0 500 500" style="enable-background:new 0 0 500 500;" xml:space="preserve">
<style type="text/css">
	.st0{clip-path:url(#SVGID_1_);fill:#FFFFFF;}
	.st1{clip-path:url(#SVGID_1_);fill:#1193B6;}
</style>
<g>
	<defs>
		<path id="SVGID_3_" d="M500.01,250C500.01,111.93,388.07,0,250,0C111.93,0,0,111.93,0,250c0,138.06,111.93,250,250,250
			C388.07,500,500.01,388.07,500.01,250z"/>
	</defs>
	<use xlink:href="#SVGID_3_"  style="overflow:visible;fill:#099AC3;"/>
	<clipPath id="SVGID_1_">
		<use xlink:href="#SVGID_3_"  style="overflow:visible;"/>
	</clipPath>
	<path class="st0" d="M302.96,233.72h-14.28c-11.35,5.89-24.23,9.24-37.89,9.24c-13.65,0-26.52-3.35-37.87-9.24h-14.28
		c-35.02,0-63.51,28.49-63.51,63.51v82.33h231.34v-82.33C366.47,262.21,337.98,233.72,302.96,233.72z"/>
	<path class="st0" d="M317.57,160.43c0-36.82-29.96-66.78-66.78-66.78c-36.81,0-66.76,29.96-66.76,66.78
		c0,36.82,29.95,66.77,66.76,66.77C287.61,227.2,317.57,197.24,317.57,160.43z"/>
	<path class="st1" d="M577.3,481.84c-0.25-0.26-0.51-0.51-0.77-0.77c-0.25-0.26-0.51-0.51-0.77-0.77c-0.25-0.26-0.51-0.51-0.77-0.77
		c-0.25-0.26-0.51-0.51-0.77-0.77c-0.25-0.26-0.51-0.51-0.77-0.77c-0.25-0.26-0.51-0.51-0.77-0.77c-0.25-0.26-0.51-0.51-0.77-0.77
		c-0.25-0.26-0.51-0.51-0.77-0.77c-0.25-0.26-0.51-0.51-0.77-0.77c-0.25-0.26-0.51-0.51-0.77-0.77c-0.25-0.26-0.51-0.51-0.77-0.77
		c-0.25-0.26-0.51-0.51-0.77-0.77c-0.25-0.26-0.51-0.51-0.77-0.77c-0.25-0.26-0.51-0.51-0.77-0.77c-0.25-0.26-0.51-0.51-0.77-0.77
		c-0.25-0.26-0.51-0.51-0.77-0.77c-0.25-0.26-0.51-0.51-0.77-0.77c-0.25-0.26-0.51-0.51-0.77-0.77c-0.25-0.26-0.51-0.51-0.77-0.77
		c-0.25-0.26-0.51-0.51-0.77-0.77c-0.25-0.26-0.51-0.51-0.77-0.77c-0.25-0.26-0.51-0.51-0.77-0.77c-0.25-0.26-0.51-0.51-0.77-0.77
		c-0.25-0.26-0.51-0.51-0.77-0.77c-0.25-0.26-0.51-0.51-0.77-0.77c-0.25-0.26-0.51-0.51-0.77-0.77c-0.25-0.26-0.51-0.51-0.77-0.77
		c-0.25-0.26-0.51-0.51-0.77-0.77c-0.25-0.26-0.51-0.51-0.77-0.77c-0.25-0.26-0.51-0.51-0.77-0.77c-0.25-0.26-0.51-0.51-0.77-0.77
		c-0.25-0.26-0.51-0.51-0.77-0.77c-0.25-0.26-0.51-0.51-0.77-0.77c-0.25-0.26-0.51-0.51-0.77-0.77c-0.25-0.26-0.51-0.51-0.77-0.77
		c-0.25-0.26-0.51-0.51-0.77-0.77c-0.25-0.26-0.51-0.51-0.77-0.77c-0.25-0.26-0.51-0.51-0.77-0.77c-0.25-0.26-0.51-0.51-0.77-0.77
		c-0.25-0.26-0.51-0.51-0.77-0.77c-0.25-0.26-0.51-0.51-0.77-0.77c-0.25-0.26-0.51-0.51-0.77-0.77c-0.25-0.26-0.51-0.51-0.77-0.77
		c-0.25-0.26-0.51-0.51-0.77-0.77c-0.25-0.26-0.51-0.51-0.77-0.77c-0.25-0.26-0.51-0.51-0.77-0.77c-0.25-0.26-0.51-0.51-0.77-0.77
		c-0.25-0.26-0.51-0.51-0.77-0.77c-0.25-0.26-0.51-0.51-0.77-0.77c-0.25-0.26-0.51-0.51-0.77-0.77c-0.25-0.26-0.51-0.51-0.77-0.77
		c-0.25-0.26-0.51-0.51-0.77-0.77c-0.25-0.26-0.51-0.51-0.77-0.77c-0.25-0.26-0.51-0.51-0.77-0.77c-0.25-0.26-0.51-0.51-0.77-0.77
		c-0.25-0.26-0.51-0.51-0.77-0.77c-0.25-0.26-0.51-0.51-0.77-0.77c-0.25-0.26-0.51-0.51-0.77-0.77c-0.25-0.26-0.51-0.51-0.77-0.77
		c-0.25-0.26-0.51-0.51-0.77-0.77c-0.25-0.26-0.51-0.51-0.77-0.77c-0.09-0.1-0.18-0.21-0.28-0.31
		c10.62-11.83,17.14-27.4,17.14-44.51c0-18.6-7.67-35.44-19.99-47.56c-0.25-0.26-0.51-0.51-0.77-0.77
		c-0.25-0.26-0.51-0.51-0.77-0.77c-0.25-0.26-0.51-0.51-0.77-0.77c-0.25-0.26-0.51-0.51-0.77-0.77c-0.25-0.26-0.51-0.51-0.77-0.77
		c-0.25-0.26-0.51-0.51-0.77-0.77c-0.25-0.26-0.51-0.51-0.77-0.77c-0.25-0.26-0.51-0.51-0.77-0.77c-0.25-0.26-0.51-0.51-0.77-0.77
		c-0.25-0.26-0.51-0.51-0.77-0.77c-0.25-0.26-0.51-0.51-0.77-0.77c-0.25-0.26-0.51-0.51-0.77-0.77c-0.25-0.26-0.51-0.51-0.77-0.77
		c-0.25-0.26-0.51-0.51-0.77-0.77c-0.25-0.26-0.51-0.51-0.77-0.77c-0.25-0.26-0.51-0.51-0.77-0.77c-0.25-0.26-0.51-0.51-0.77-0.77
		c-0.25-0.26-0.51-0.51-0.77-0.77c-0.25-0.26-0.51-0.51-0.77-0.77c-0.25-0.26-0.51-0.51-0.77-0.77c-0.25-0.26-0.51-0.51-0.77-0.77
		c-0.25-0.26-0.51-0.51-0.77-0.77c-0.25-0.26-0.51-0.51-0.77-0.77c-0.25-0.26-0.51-0.51-0.77-0.77c-0.25-0.26-0.51-0.51-0.77-0.77
		c-0.25-0.26-0.51-0.51-0.77-0.77c-0.25-0.26-0.51-0.51-0.77-0.77c-0.25-0.26-0.51-0.51-0.77-0.77c-0.25-0.26-0.51-0.51-0.77-0.77
		c-0.25-0.26-0.51-0.51-0.77-0.77c-0.25-0.26-0.51-0.51-0.77-0.77c-0.25-0.26-0.51-0.51-0.77-0.77c-0.25-0.26-0.51-0.51-0.77-0.77
		c-0.25-0.26-0.51-0.51-0.77-0.77c-0.25-0.26-0.51-0.51-0.77-0.77c-0.25-0.26-0.51-0.51-0.77-0.77c-0.25-0.26-0.51-0.51-0.77-0.77
		c-0.25-0.26-0.51-0.51-0.77-0.77c-0.25-0.26-0.51-0.51-0.77-0.77c-0.25-0.26-0.51-0.51-0.77-0.77c-0.25-0.26-0.51-0.51-0.77-0.77
		c-0.25-0.26-0.51-0.51-0.77-0.77c-0.25-0.26-0.51-0.51-0.77-0.77c-0.25-0.26-0.51-0.51-0.77-0.77c-0.25-0.26-0.51-0.51-0.77-0.77
		c-0.25-0.26-0.51-0.51-0.77-0.77c-0.25-0.26-0.51-0.51-0.77-0.77c-0.25-0.26-0.51-0.51-0.77-0.77c-0.25-0.26-0.51-0.51-0.77-0.77
		c-0.25-0.26-0.51-0.51-0.77-0.77c-0.25-0.26-0.51-0.51-0.77-0.77c-0.25-0.26-0.51-0.51-0.77-0.77c-0.25-0.26-0.51-0.51-0.77-0.77
		c-0.25-0.26-0.51-0.51-0.77-0.77c-0.25-0.26-0.51-0.51-0.77-0.77c-0.25-0.26-0.51-0.51-0.77-0.77c-0.25-0.26-0.51-0.51-0.77-0.77
		c-0.25-0.26-0.51-0.51-0.77-0.77c-0.25-0.26-0.51-0.51-0.77-0.77c-0.25-0.26-0.51-0.51-0.77-0.77c-0.25-0.26-0.51-0.51-0.77-0.77
		c-0.25-0.26-0.51-0.51-0.77-0.77c-0.25-0.26-0.51-0.51-0.77-0.77c-0.25-0.26-0.51-0.51-0.77-0.77c-0.25-0.26-0.51-0.51-0.77-0.77
		c-0.25-0.26-0.51-0.51-0.77-0.77c-0.25-0.26-0.51-0.51-0.77-0.77c-0.25-0.26-0.51-0.51-0.77-0.77c-0.25-0.26-0.51-0.51-0.77-0.77
		c-0.25-0.26-0.51-0.51-0.77-0.77c-0.25-0.26-0.51-0.51-0.77-0.77c-0.25-0.26-0.51-0.51-0.77-0.77c-0.25-0.26-0.51-0.51-0.77-0.77
		c-0.25-0.26-0.51-0.51-0.77-0.77c-0.25-0.26-0.51-0.51-0.77-0.77c-0.25-0.26-0.51-0.51-0.77-0.77c-0.25-0.26-0.51-0.51-0.77-0.77
		c-0.25-0.26-0.51-0.51-0.77-0.77c-0.25-0.26-0.51-0.51-0.77-0.77c-0.25-0.26-0.51-0.51-0.77-0.77c-0.25-0.26-0.51-0.51-0.77-0.77
		c-0.25-0.26-0.51-0.51-0.77-0.77c-0.25-0.26-0.51-0.51-0.77-0.77c-0.25-0.26-0.51-0.51-0.77-0.77c-0.25-0.26-0.51-0.51-0.77-0.77
		c-0.25-0.26-0.51-0.51-0.77-0.77c-0.25-0.26-0.51-0.51-0.77-0.77c-0.25-0.26-0.51-0.51-0.77-0.77c-0.25-0.26-0.51-0.51-0.77-0.77
		c-0.25-0.26-0.51-0.51-0.77-0.77c-0.25-0.26-0.51-0.51-0.77-0.77c-0.25-0.26-0.51-0.51-0.77-0.77c-0.25-0.26-0.51-0.51-0.77-0.77
		c-0.25-0.26-0.51-0.51-0.77-0.77c-0.25-0.26-0.51-0.51-0.77-0.77c-0.25-0.26-0.51-0.51-0.77-0.77c-0.25-0.26-0.51-0.51-0.77-0.77
		c-0.25-0.26-0.51-0.51-0.77-0.77c-0.25-0.26-0.51-0.51-0.77-0.77c-0.25-0.26-0.51-0.51-0.77-0.77c-0.25-0.26-0.51-0.51-0.77-0.77
		c-0.25-0.26-0.51-0.51-0.77-0.77c-0.25-0.26-0.51-0.51-0.77-0.77c-0.25-0.26-0.51-0.51-0.77-0.77c-0.25-0.26-0.51-0.51-0.77-0.77
		c-0.25-0.26-0.51-0.51-0.77-0.77c-0.25-0.26-0.51-0.51-0.77-0.77c-0.25-0.26-0.51-0.51-0.77-0.77c-0.25-0.26-0.51-0.51-0.77-0.77
		c-0.25-0.26-0.51-0.51-0.77-0.77c-0.25-0.26-0.51-0.51-0.77-0.77c-0.25-0.26-0.51-0.51-0.77-0.77c-0.25-0.26-0.51-0.51-0.77-0.77
		c-0.25-0.26-0.51-0.51-0.77-0.77c-0.25-0.26-0.51-0.51-0.77-0.77c-0.25-0.26-0.51-0.51-0.77-0.77c-0.25-0.26-0.51-0.51-0.77-0.77
		c-0.25-0.26-0.51-0.51-0.77-0.77c-0.25-0.26-0.51-0.51-0.77-0.77c-0.25-0.26-0.51-0.51-0.77-0.77c-0.25-0.26-0.51-0.51-0.77-0.77
		c-0.25-0.26-0.51-0.51-0.77-0.77c-0.25-0.26-0.51-0.51-0.77-0.77c-0.25-0.26-0.51-0.51-0.77-0.77c-0.25-0.26-0.51-0.51-0.77-0.77
		c-0.25-0.26-0.51-0.51-0.77-0.77c-0.25-0.26-0.51-0.51-0.77-0.77c-0.25-0.26-0.51-0.51-0.77-0.77c-0.25-0.26-0.51-0.51-0.77-0.77
		c-0.25-0.26-0.51-0.51-0.77-0.77c-0.25-0.26-0.51-0.51-0.77-0.77c-0.25-0.26-0.51-0.51-0.77-0.77c-0.25-0.26-0.51-0.51-0.77-0.77
		c-0.25-0.26-0.51-0.51-0.77-0.77c-0.25-0.26-0.51-0.51-0.77-0.77c-0.25-0.26-0.51-0.51-0.77-0.77c-0.25-0.26-0.51-0.51-0.77-0.77
		c-0.25-0.26-0.51-0.51-0.77-0.77c-0.25-0.26-0.51-0.51-0.77-0.77c-0.25-0.26-0.51-0.51-0.77-0.77c-0.25-0.26-0.51-0.51-0.77-0.77
		c-0.25-0.26-0.51-0.51-0.77-0.77c-0.25-0.26-0.51-0.51-0.77-0.77c-0.25-0.26-0.51-0.51-0.77-0.77c-0.25-0.26-0.51-0.51-0.77-0.77
		c-0.25-0.26-0.51-0.51-0.77-0.77c-0.25-0.26-0.51-0.51-0.77-0.77c-0.25-0.26-0.51-0.51-0.77-0.77c-0.25-0.26-0.51-0.51-0.77-0.77
		c-0.25-0.26-0.51-0.51-0.77-0.77c-0.25-0.26-0.51-0.51-0.77-0.77c-0.25-0.26-0.51-0.51-0.77-0.77c-0.25-0.26-0.51-0.51-0.77-0.77
		c-0.25-0.26-0.51-0.51-0.77-0.77c-0.25-0.26-0.51-0.51-0.77-0.77c-0.25-0.26-0.51-0.51-0.77-0.77c-0.25-0.26-0.51-0.51-0.77-0.77
		c-0.25-0.26-0.51-0.51-0.77-0.77c-0.25-0.26-0.51-0.51-0.77-0.77c-0.25-0.26-0.51-0.51-0.77-0.77c-0.25-0.26-0.51-0.51-0.77-0.77
		c-0.25-0.26-0.51-0.51-0.77-0.77c-0.25-0.26-0.51-0.51-0.77-0.77c-0.25-0.26-0.51-0.51-0.77-0.77c-0.25-0.26-0.51-0.51-0.77-0.77
		c-0.25-0.26-0.51-0.51-0.77-0.77c-0.25-0.26-0.51-0.51-0.77-0.77c-0.25-0.26-0.51-0.51-0.77-0.77c-0.25-0.26-0.51-0.51-0.77-0.77
		c-0.25-0.26-0.51-0.51-0.77-0.77c-0.25-0.26-0.51-0.51-0.77-0.77c-0.25-0.26-0.51-0.51-0.77-0.77c-0.25-0.26-0.51-0.51-0.77-0.77
		c-0.25-0.26-0.51-0.51-0.77-0.77c-0.25-0.26-0.51-0.51-0.77-0.77c-0.25-0.26-0.51-0.51-0.77-0.77c-0.25-0.26-0.51-0.51-0.77-0.77
		c-0.25-0.26-0.51-0.51-0.77-0.77c-0.25-0.26-0.51-0.51-0.77-0.77c-0.25-0.26-0.51-0.51-0.77-0.77c-0.25-0.26-0.51-0.51-0.77-0.77
		c-0.25-0.26-0.51-0.51-0.77-0.77c-0.25-0.26-0.51-0.51-0.77-0.77c-0.25-0.26-0.51-0.51-0.77-0.77c-0.25-0.26-0.51-0.51-0.77-0.77
		c-0.25-0.26-0.51-0.51-0.77-0.77c-0.25-0.26-0.51-0.51-0.77-0.77c-0.25-0.26-0.51-0.51-0.77-0.77c-0.25-0.26-0.51-0.51-0.77-0.77
		c-0.25-0.26-0.51-0.51-0.77-0.77c-0.25-0.26-0.51-0.51-0.77-0.77c-0.25-0.26-0.51-0.51-0.77-0.77c-0.25-0.26-0.51-0.51-0.77-0.77
		c-0.25-0.26-0.51-0.51-0.77-0.77c-0.25-0.26-0.51-0.51-0.77-0.77c-0.25-0.26-0.51-0.51-0.77-0.77c-0.25-0.26-0.51-0.51-0.77-0.77
		c-0.25-0.26-0.51-0.51-0.77-0.77c-0.25-0.26-0.51-0.51-0.77-0.77c-0.25-0.26-0.51-0.51-0.77-0.77c-0.25-0.26-0.51-0.51-0.77-0.77
		c-0.25-0.26-0.51-0.51-0.77-0.77c-0.25-0.26-0.51-0.51-0.77-0.77c-0.25-0.26-0.51-0.51-0.77-0.77c-0.25-0.26-0.51-0.51-0.77-0.77
		c-0.25-0.26-0.51-0.51-0.77-0.77c-0.25-0.26-0.51-0.51-0.77-0.77c-0.25-0.26-0.51-0.51-0.77-0.77c-0.25-0.26-0.51-0.51-0.77-0.77
		c-0.25-0.26-0.51-0.51-0.77-0.77c-0.25-0.26-0.51-0.51-0.77-0.77c-0.25-0.26-0.51-0.51-0.77-0.77c-0.25-0.26-0.51-0.51-0.77-0.77
		c-0.25-0.26-0.51-0.51-0.77-0.77c-0.25-0.26-0.51-0.51-0.77-0.77c-0.25-0.26-0.51-0.51-0.77-0.77c-0.25-0.26-0.51-0.51-0.77-0.77
		c-0.25-0.26-0.51-0.51-0.77-0.77c-0.25-0.26-0.51-0.51-0.77-0.77c-0.25-0.26-0.51-0.51-0.77-0.77c-0.25-0.26-0.51-0.51-0.77-0.77
		c-0.25-0.26-0.51-0.51-0.77-0.77c-0.25-0.26-0.51-0.51-0.77-0.77c-0.25-0.26-0.51-0.51-0.77-0.77c-0.25-0.26-0.51-0.51-0.77-0.77
		c-0.25-0.26-0.51-0.51-0.77-0.77c-0.25-0.26-0.51-0.51-0.77-0.77c-0.25-0.26-0.51-0.51-0.77-0.77c-0.25-0.26-0.51-0.51-0.77-0.77
		c-0.25-0.26-0.51-0.51-0.77-0.77c-0.25-0.26-0.51-0.51-0.77-0.77c-0.25-0.26-0.51-0.51-0.77-0.77c-0.25-0.26-0.51-0.51-0.77-0.77
		c-0.25-0.26-0.51-0.51-0.77-0.77c-0.25-0.26-0.51-0.51-0.77-0.77c-0.25-0.26-0.51-0.51-0.77-0.77c-0.25-0.26-0.51-0.51-0.77-0.77
		c-0.25-0.26-0.51-0.51-0.77-0.77c-0.25-0.26-0.51-0.51-0.77-0.77c-0.25-0.26-0.51-0.51-0.77-0.77c-0.25-0.26-0.51-0.51-0.77-0.77
		c-0.25-0.26-0.51-0.51-0.77-0.77c-0.25-0.26-0.51-0.51-0.77-0.77c-0.25-0.26-0.51-0.51-0.77-0.77c-0.25-0.26-0.51-0.51-0.77-0.77
		c-0.25-0.26-0.51-0.51-0.77-0.77c-0.25-0.26-0.51-0.51-0.77-0.77c-0.25-0.26-0.51-0.51-0.77-0.77c-0.25-0.26-0.51-0.51-0.77-0.77
		c-0.25-0.26-0.51-0.51-0.77-0.77c-0.25-0.26-0.51-0.51-0.77-0.77c-0.25-0.26-0.51-0.51-0.77-0.77c-0.25-0.26-0.51-0.51-0.77-0.77
		c-0.25-0.26-0.51-0.51-0.77-0.77c-0.25-0.26-0.51-0.51-0.77-0.77c-0.25-0.26-0.51-0.51-0.77-0.77c-0.25-0.26-0.51-0.51-0.77-0.77
		c-0.25-0.26-0.51-0.51-0.77-0.77c-0.25-0.26-0.51-0.51-0.77-0.77c-0.25-0.26-0.51-0.51-0.77-0.77c-0.25-0.26-0.51-0.51-0.77-0.77
		c-0.25-0.26-0.51-0.51-0.77-0.77c-0.25-0.26-0.51-0.51-0.77-0.77c-0.25-0.26-0.51-0.51-0.77-0.77c-0.25-0.26-0.51-0.51-0.77-0.77
		c-0.25-0.26-0.51-0.51-0.77-0.77c-0.25-0.26-0.51-0.51-0.77-0.77c-0.25-0.26-0.51-0.51-0.77-0.77c-0.25-0.26-0.51-0.51-0.77-0.77
		c-0.25-0.26-0.51-0.51-0.77-0.77c-0.25-0.26-0.51-0.51-0.77-0.77c-0.25-0.26-0.51-0.51-0.77-0.77c-0.25-0.26-0.51-0.51-0.77-0.77
		c-0.25-0.26-0.51-0.51-0.77-0.77c-0.25-0.26-0.51-0.51-0.77-0.77c-0.25-0.26-0.51-0.51-0.77-0.77c-0.25-0.26-0.51-0.51-0.77-0.77
		c-0.25-0.26-0.51-0.51-0.77-0.77c-0.25-0.26-0.51-0.51-0.77-0.77c-0.25-0.26-0.51-0.51-0.77-0.77c-0.25-0.26-0.51-0.51-0.77-0.77
		c-0.25-0.26-0.51-0.51-0.77-0.77c-0.25-0.26-0.51-0.51-0.77-0.77c-0.25-0.26-0.51-0.51-0.77-0.77c-0.25-0.26-0.51-0.51-0.77-0.77
		c-0.25-0.26-0.51-0.51-0.77-0.77c-0.25-0.26-0.51-0.51-0.77-0.77c-0.25-0.26-0.51-0.51-0.77-0.77c-0.25-0.26-0.51-0.51-0.77-0.77
		c-0.25-0.26-0.51-0.51-0.77-0.77c-0.25-0.26-0.51-0.51-0.77-0.77c-0.25-0.26-0.51-0.51-0.77-0.77c-0.25-0.26-0.51-0.51-0.77-0.77
		c-0.25-0.26-0.51-0.51-0.77-0.77c-0.25-0.26-0.51-0.51-0.77-0.77c-0.25-0.26-0.51-0.51-0.77-0.77c-0.25-0.26-0.51-0.51-0.77-0.77
		c-0.25-0.26-0.51-0.51-0.77-0.77c-0.25-0.26-0.51-0.51-0.77-0.77c-12.12-12.32-28.96-19.99-47.56-19.99
		c-36.81,0-66.76,29.96-66.76,66.78c0,18.6,7.66,35.43,19.98,47.55c0.25,0.26,0.51,0.51,0.77,0.77c0.25,0.26,0.51,0.51,0.77,0.77
		c0.25,0.26,0.51,0.51,0.77,0.77c0.25,0.26,0.51,0.51,0.77,0.77c0.25,0.26,0.51,0.51,0.77,0.77c0.25,0.26,0.51,0.51,0.77,0.77
		c0.25,0.26,0.51,0.51,0.77,0.77c0.25,0.26,0.51,0.51,0.77,0.77c0.25,0.26,0.51,0.51,0.77,0.77c0.25,0.26,0.51,0.51,0.77,0.77
		c0.25,0.26,0.51,0.51,0.77,0.77c0.25,0.26,0.51,0.51,0.77,0.77c0.25,0.26,0.51,0.51,0.77,0.77c0.25,0.26,0.51,0.51,0.77,0.77
		c0.25,0.26,0.51,0.51,0.77,0.77c0.25,0.26,0.51,0.51,0.77,0.77c0.25,0.26,0.51,0.51,0.77,0.77c0.25,0.26,0.51,0.51,0.77,0.77
		c0.25,0.26,0.51,0.51,0.77,0.77c0.25,0.26,0.51,0.51,0.77,0.77c0.25,0.26,0.51,0.51,0.77,0.77c0.25,0.26,0.51,0.51,0.77,0.77
		c0.25,0.26,0.51,0.51,0.77,0.77c0.25,0.26,0.51,0.51,0.77,0.77c0.25,0.26,0.51,0.51,0.77,0.77c0.25,0.26,0.51,0.51,0.77,0.77
		c0.25,0.26,0.51,0.51,0.77,0.77c0.25,0.26,0.51,0.51,0.77,0.77c0.25,0.26,0.51,0.51,0.77,0.77c0.25,0.26,0.51,0.51,0.77,0.77
		c0.25,0.26,0.51,0.51,0.77,0.77c0.25,0.26,0.51,0.51,0.77,0.77c0.25,0.26,0.51,0.51,0.77,0.77c0.25,0.26,0.51,0.51,0.77,0.77
		c0.25,0.26,0.51,0.51,0.77,0.77c0.25,0.26,0.51,0.51,0.77,0.77c0.25,0.26,0.51,0.51,0.77,0.77c0.25,0.26,0.51,0.51,0.77,0.77
		c0.25,0.26,0.51,0.51,0.77,0.77c0.25,0.26,0.51,0.51,0.77,0.77c0.25,0.26,0.51,0.51,0.77,0.77c0.25,0.26,0.51,0.51,0.77,0.77
		c0.25,0.26,0.51,0.51,0.77,0.77c0.25,0.26,0.51,0.51,0.77,0.77c0.07,0.07,0.13,0.15,0.2,0.23c-8.88-1.4-17.3-4.2-25.01-8.2h-14.28
		c-35.02,0-63.51,28.49-63.51,63.51v82.33h0.77v0.77h0.77v0.77h0.77v0.77h0.77v0.77h0.77v0.77h0.77v0.77h0.77v0.77h0.77v0.77h0.77
		v0.77h0.77v0.77h0.77V388h0.77v0.77h0.77v0.77h0.77v0.77h0.77v0.77h0.77v0.77h0.77v0.77h0.77v0.77h0.77v0.77h0.77v0.77h0.77v0.77
		h0.77v0.77h0.77v0.77h0.77v0.77h0.77v0.77h0.77v0.77h0.77v0.77h0.77v0.77h0.77v0.77h0.77v0.77h0.77v0.77h0.77v0.77h0.77v0.77h0.77
		v0.77h0.77v0.77h0.77v0.77h0.77v0.77h0.77v0.77h0.77v0.77h0.77v0.77h0.77v0.77h0.77v0.77h0.77v0.77h0.77v0.77h0.77v0.77h0.77v0.77
		h0.77v0.77h0.77v0.77h0.77v0.77h0.77v0.77h0.77v0.77h0.77v0.77h0.77v0.77h0.77v0.77h0.77v0.77h0.77v0.77h0.77v0.77h0.77v0.77h0.77
		v0.77h0.77v0.77h0.77v0.77h0.77v0.77h0.77v0.77h0.77v0.77h0.77v0.77h0.77v0.77h0.77v0.77h0.77v0.77H188v0.77h0.77v0.77h0.77v0.77
		h0.77v0.77h0.77v0.77h0.77v0.77h0.77v0.77h0.77v0.77h0.77v0.77h0.77v0.77h0.77v0.77h0.77v0.77h0.77v0.77h0.77v0.77h0.77v0.77h0.77
		v0.77h0.77v0.77h0.77v0.77h0.77v0.77h0.77v0.77h0.77v0.77h0.77v0.77h0.77v0.77h0.77v0.77h0.77v0.77h0.77v0.77h0.77v0.77h0.77v0.77
		h0.77v0.77h0.77v0.77h0.77v0.77h0.77v0.77h0.77v0.77h0.77v0.77h0.77v0.77h0.77v0.77h0.77v0.77h0.77v0.77h0.77v0.77h0.77v0.77h0.77
		v0.77h0.77v0.77h0.77v0.77h0.77v0.77h0.77v0.77h0.77v0.77h0.77v0.77h0.77v0.77h0.77v0.77h0.77v0.77h0.77v0.77h0.77v0.77h0.77v0.77
		h0.77v0.77h0.77v0.77h0.77v0.77h0.77v0.77h0.77v0.77h0.77v0.77h0.77v0.77h0.77v0.77h0.77v0.77h0.77v0.77h0.77v0.77h0.77v0.77h0.77
		v0.77h0.77V483h0.77v0.77h0.77v0.77h0.77v0.77h0.77v0.77h0.77v0.77h0.77v0.77h0.77v0.77h0.77v0.77h0.77v0.77h0.77v0.77h0.77v0.77
		h0.77v0.77h0.77v0.77h0.77v0.77h0.77v0.77h0.77v0.77h0.77v0.77h0.77v0.77h0.77v0.77h0.77v0.77h0.77v0.77h0.77v0.77h0.77v0.77h0.77
		v0.77h0.77v0.77h0.77v0.77h0.77v0.77h0.77v0.77h0.77v0.77h0.77v0.77h0.77v0.77h0.77v0.77h0.77v0.77h0.77v0.77h0.77v0.77h0.77v0.77
		h0.77v0.77h0.77v0.77h0.77v0.77h0.77v0.77h0.77v0.77h0.77v0.77h0.77v0.77h0.77v0.77h0.77v0.77h0.77v0.77h0.77v0.77h0.77v0.77h0.77
		v0.77h0.77v0.77h0.77v0.77h0.77v0.77h0.77v0.77h0.77v0.77h0.77v0.77h0.77v0.77h0.77v0.77H283v0.77h0.77v0.77h0.77v0.77h0.77v0.77
		h0.77v0.77h0.77v0.77h0.77v0.77h0.77v0.77h0.77v0.77h0.77v0.77h0.77v0.77h0.77v0.77h0.77v0.77h0.77v0.77h0.77v0.77h0.77v0.77h0.77
		v0.77h0.77v0.77h0.77v0.77h0.77V542h0.77v0.77h0.77v0.77h0.77v0.77h0.77v0.77h0.77v0.77h0.77v0.77h0.77v0.77h0.77v0.77h0.77v0.77
		h0.77v0.77h0.77v0.77h0.77v0.77h0.77v0.77h0.77v0.77h0.77v0.77h0.77v0.77h0.77v0.77h0.77v0.77h0.77v0.77h0.77v0.77h0.77v0.77h0.77
		v0.77h0.77v0.77h0.77v0.77h0.77v0.77h0.77v0.77h0.77v0.77h0.77v0.77h0.77v0.77h0.77v0.77h0.77v0.77h0.77v0.77h0.77v0.77h0.77v0.77
		h0.77v0.77h0.77v0.77h0.77v0.77h0.77v0.77h0.77v0.77h0.77v0.77h0.77v0.77h0.77v0.77h0.77v0.77h0.77v0.77h0.77v0.77h0.77v0.77h0.77
		v0.77h0.77v0.77h0.77v0.77h0.77v0.77h0.77v0.77h0.77v0.77h0.77v0.77h0.77v0.77h0.77v0.77h0.77v0.77h0.77v0.77H342v0.77h0.77v0.77
		h0.77v0.77h0.77v0.77h0.77v0.77h0.77v0.77h0.77v0.77h0.77v0.77h0.77v0.77h0.77v0.77h0.77v0.77h0.77v0.77h0.77v0.77h0.77v0.77h0.77
		v0.77h0.77v0.77h0.77v0.77h0.77v0.77h0.77v0.77h0.77V601h0.77v0.77h0.77v0.77h0.77v0.77h0.77v0.77h0.77v0.77h0.77v0.77h0.77v0.77
		h0.77v0.77h0.77v0.77h0.77v0.77h0.77v0.77h231.34V527.1C596.33,509.39,589.03,493.37,577.3,481.84z"/>
	<path class="st0" d="M302.96,233.72h-14.28c-11.35,5.89-24.23,9.24-37.89,9.24c-13.65,0-26.52-3.35-37.87-9.24h-14.28
		c-35.02,0-63.51,28.49-63.51,63.51v82.33h231.34v-82.33C366.47,262.21,337.98,233.72,302.96,233.72z"/>
	<path class="st0" d="M317.57,160.43c0-36.82-29.96-66.78-66.78-66.78c-36.81,0-66.76,29.96-66.76,66.78
		c0,36.82,29.95,66.77,66.76,66.77C287.61,227.2,317.57,197.24,317.57,160.43z"/>
</g>
</svg>
