<?xml version="1.0" encoding="utf-8"?>
<!-- Generator: Adobe Illustrator 24.1.2, SVG Export Plug-In . SVG Version: 6.00 Build 0)  -->
<svg version="1.1" id="Capa_1" xmlns="http://www.w3.org/2000/svg" xmlns:xlink="http://www.w3.org/1999/xlink" x="0px" y="0px"
	 viewBox="0 0 500 500" style="enable-background:new 0 0 500 500;" xml:space="preserve">
<style type="text/css">
	.st0{fill:#FFFFFF;}
</style>
<path class="st0" d="M315.17,208.15c30.29-19.48,50.4-53.38,50.4-92.05c0-60.43-49-109.41-109.42-109.41
	c-60.43,0-109.42,48.98-109.42,109.41c0,38.67,20.1,72.57,50.4,92.05c-71.37,6.38-127.51,66.49-127.51,139.5v113.57l0.29,1.79
	l7.83,2.43c73.71,23.03,137.77,30.72,190.48,30.72c102.96,0,162.64-29.38,166.34-31.23l7.31-3.72h0.77V347.65
	C442.65,274.67,386.53,214.56,315.17,208.15z"/>
</svg>
