<?xml version="1.0" encoding="utf-8"?>
<!-- Generator: Adobe Illustrator 24.1.2, SVG Export Plug-In . SVG Version: 6.00 Build 0)  -->
<svg version="1.1" id="Capa_1" xmlns="http://www.w3.org/2000/svg" xmlns:xlink="http://www.w3.org/1999/xlink" x="0px" y="0px"
	 viewBox="0 0 500 500" style="enable-background:new 0 0 500 500;" xml:space="preserve">
<style type="text/css">
	.st0{fill:#FFFFFF;}
</style>
<g>
	<path class="st0" d="M209.25,237.32V65.45c0-18.97,15.41-34.37,34.38-34.37S278,46.48,278,65.45v171.87
		c0,18.97-15.41,34.38-34.38,34.38S209.25,256.29,209.25,237.32z M379.88,81.47c-11.14-8.82-27.38-6.88-36.2,4.27
		c-8.82,11.17-6.9,27.38,4.27,36.22c40.89,32.26,64.33,80.56,64.33,132.55c0,92.99-75.67,168.66-168.64,168.66
		c-92.99,0-168.66-75.67-168.66-168.66c0-51.97,23.42-100.26,64.28-132.5c11.17-8.82,13.09-25.03,4.27-36.22
		c-8.82-11.17-25.01-13.07-36.22-4.27c-53.32,42.08-83.9,105.13-83.9,172.99c0,121.44,98.8,220.22,220.22,220.22
		s220.22-98.8,220.22-220.22C463.84,186.63,433.22,123.57,379.88,81.47z"/>
</g>
</svg>
