<?xml version="1.0" encoding="utf-8"?>
<!-- Generator: Adobe Illustrator 24.1.2, SVG Export Plug-In . SVG Version: 6.00 Build 0)  -->
<svg version="1.1" id="Capa_1" xmlns="http://www.w3.org/2000/svg" xmlns:xlink="http://www.w3.org/1999/xlink" x="0px" y="0px"
	 viewBox="0 0 500 500" style="enable-background:new 0 0 500 500;" xml:space="preserve">
<style type="text/css">
	.st0{fill:#FFFFFF;}
</style>
<path class="st0" d="M367.44,222.44c-2.44,0.24-4.89,0.36-7.34,0.37c-26.9,0-52-13.56-66.73-36.07v122.81
	c0,50.13-40.64,90.77-90.77,90.77c-50.13,0-90.77-40.64-90.77-90.77c0-50.13,40.64-90.77,90.77-90.77l0,0
	c1.89,0,3.75,0.17,5.61,0.29v44.73c-1.86-0.22-3.69-0.56-5.61-0.56c-25.59,0-46.33,20.74-46.33,46.33
	c0,25.59,20.74,46.33,46.33,46.33c25.59,0,48.19-20.16,48.19-45.75l0.45-208.58h42.79c4.04,38.37,34.98,68.35,73.46,71.16v49.71"/>
</svg>
