<?xml version="1.0" encoding="utf-8"?>
<!-- Generator: Adobe Illustrator 24.1.2, SVG Export Plug-In . SVG Version: 6.00 Build 0)  -->
<svg version="1.1" id="Capa_1" xmlns="http://www.w3.org/2000/svg" xmlns:xlink="http://www.w3.org/1999/xlink" x="0px" y="0px"
	 viewBox="0 0 500 500" style="enable-background:new 0 0 500 500;" xml:space="preserve">
<style type="text/css">
	.st0{fill:#FFFFFF;}
	.st1{fill-rule:evenodd;clip-rule:evenodd;fill:#FFFFFF;}
</style>
<g>
	<path class="st0" d="M106.05,400.33l21.16-78.96c-11.98-21.62-18.29-45.84-18.29-70.43c0-80.39,65.41-145.8,145.8-145.8
		c80.39,0,145.8,65.41,145.8,145.8c0,80.39-65.4,145.8-145.8,145.8c-24.13,0-47.97-6.09-69.3-17.67L106.05,400.33z M189.36,349.47
		l5,2.98c18.35,10.93,39.22,16.72,60.36,16.72c65.19,0,118.24-53.04,118.24-118.24c0-65.2-53.04-118.24-118.24-118.24
		c-65.19,0-118.24,53.04-118.24,118.24c0,21.53,5.98,42.72,17.29,61.3l3.07,5.04l-11.81,44.09L189.36,349.47z"/>
	<path class="st1" d="M308.96,271.21c-6-3.59-13.81-7.6-20.88-4.7c-5.42,2.22-8.89,10.71-12.4,15.04c-1.8,2.23-3.96,2.57-6.73,1.46
		c-20.36-8.11-35.96-21.7-47.2-40.43c-1.9-2.91-1.56-5.2,0.73-7.9c3.4-3.99,7.66-8.53,8.57-13.92c0.92-5.38-1.61-11.68-3.83-16.47
		c-2.85-6.13-6.03-14.87-12.16-18.33c-5.65-3.19-13.08-1.4-18.1,2.69c-8.68,7.07-12.86,18.14-12.74,29.11
		c0.04,3.12,0.42,6.23,1.15,9.24c1.75,7.24,5.1,14,8.86,20.42c2.84,4.84,5.92,9.55,9.25,14.07c10.89,14.79,24.44,27.65,40.12,37.26
		c7.84,4.8,16.28,9.01,25.02,11.9c9.8,3.24,18.54,6.61,29.13,4.6c11.08-2.1,22.01-8.96,26.41-19.65c1.3-3.16,1.95-6.69,1.22-10.03
		C323.89,278.65,314.54,274.55,308.96,271.21z"/>
</g>
</svg>
