<?xml version="1.0" encoding="utf-8"?>
<!-- Generator: Adobe Illustrator 24.1.2, SVG Export Plug-In . SVG Version: 6.00 Build 0)  -->
<svg version="1.1" id="Capa_1" xmlns="http://www.w3.org/2000/svg" xmlns:xlink="http://www.w3.org/1999/xlink" x="0px" y="0px"
	 viewBox="0 0 500 500" style="enable-background:new 0 0 500 500;" xml:space="preserve">
<style type="text/css">
	.st0{fill:#FFFFFF;}
</style>
<path class="st0" d="M423.57,323.54L314.46,110.45c-26.91-52.55-102.01-52.55-128.92,0L76.43,323.54
	c-24.68,48.19,10.32,105.43,64.46,105.43h218.22C413.25,428.96,448.25,371.73,423.57,323.54z M231.23,167.93h37.83v54.54
	c0,16.24-0.57,31.1-1.76,44.56c-1.17,13.51-2.64,27.09-4.4,40.79h-25.22c-1.94-13.71-3.52-27.33-4.69-40.91
	c-1.16-13.58-1.76-28.4-1.76-44.43V167.93z M266.73,368.51c-4.51,4.34-10.09,6.46-16.73,6.46c-6.45,0-11.97-2.12-16.57-6.46
	c-4.59-4.3-6.87-9.86-6.87-16.69c0-6.84,2.29-12.48,6.87-16.86c4.6-4.42,10.12-6.63,16.57-6.63c6.65,0,12.23,2.21,16.73,6.63
	c4.48,4.38,6.73,10.02,6.73,16.86C273.45,358.65,271.21,364.21,266.73,368.51z"/>
</svg>
