<?xml version="1.0" encoding="utf-8"?>
<!-- Generator: Adobe Illustrator 24.1.2, SVG Export Plug-In . SVG Version: 6.00 Build 0)  -->
<svg version="1.1" id="Capa_1" xmlns="http://www.w3.org/2000/svg" xmlns:xlink="http://www.w3.org/1999/xlink" x="0px" y="0px"
	 viewBox="0 0 500 500" style="enable-background:new 0 0 500 500;" xml:space="preserve">
<style type="text/css">
	.st0{fill:#FFFFFF;}
</style>
<g>
	<g>
		<path class="st0" d="M335.37,155.03c-9.67,0-17.51,7.84-17.51,17.51c0,9.67,7.84,17.51,17.51,17.51c9.67,0,17.51-7.84,17.51-17.51
			C352.88,162.87,345.04,155.03,335.37,155.03z"/>
		<path class="st0" d="M257.54,177.48c-40.55,0-73.54,32.99-73.54,73.54c0,40.55,32.99,73.54,73.54,73.54
			c40.55,0,73.54-32.99,73.54-73.54C331.08,210.47,298.09,177.48,257.54,177.48z M257.54,298.13c-25.98,0-47.11-21.13-47.11-47.11
			s21.13-47.11,47.11-47.11c25.97,0,47.1,21.13,47.1,47.11S283.51,298.13,257.54,298.13z"/>
		<path class="st0" d="M315.92,400.33H196.7c-49.46,0-89.69-40.24-89.69-89.69V191.41c0-49.46,40.24-89.69,89.69-89.69h119.22
			c49.46,0,89.7,40.24,89.7,89.69v119.23C405.62,360.09,365.38,400.33,315.92,400.33z M196.7,129.81c-33.97,0-61.6,27.63-61.6,61.6
			v119.23c0,33.97,27.63,61.6,61.6,61.6h119.22c33.97,0,61.61-27.63,61.61-61.6V191.41c0-33.97-27.64-61.6-61.61-61.6H196.7z"/>
	</g>
</g>
</svg>
