<?xml version="1.0" encoding="utf-8"?>
<!-- Generator: Adobe Illustrator 24.1.2, SVG Export Plug-In . SVG Version: 6.00 Build 0)  -->
<svg version="1.1" id="Capa_1" xmlns="http://www.w3.org/2000/svg" xmlns:xlink="http://www.w3.org/1999/xlink" x="0px" y="0px"
	 viewBox="0 0 500 500" style="enable-background:new 0 0 500 500;" xml:space="preserve">
<style type="text/css">
	.st0{fill-rule:evenodd;clip-rule:evenodd;fill:#FFFFFF;}
</style>
<g>
	<path class="st0" d="M247.57,48.79c109.82,0,198.82,89.01,198.82,198.82s-89,198.82-198.82,198.82
		c-109.81,0-198.81-89.01-198.81-198.82S137.76,48.79,247.57,48.79 M247.57,28.25c-121.16,0-219.39,98.21-219.39,219.36
		c0,121.16,98.22,219.37,219.39,219.37c121.15,0,219.37-98.22,219.37-219.37C466.94,126.46,368.72,28.25,247.57,28.25"/>
	<path class="st0" d="M363.08,175.31c15.64,16.41,26.9,36.17,32.93,58.03c13.05,47.21-0.45,96.32-32.54,132.68
		c-3.24,3.65-8.87,4-12.53,0.75c-3.67-3.21-4.02-8.85-0.78-12.51c28.15-31.86,40.23-74.79,28.78-116.19
		c-5.28-19.04-15.08-36.25-28.69-50.54c-3.4-3.54-3.24-9.17,0.29-12.54C354.08,171.63,359.71,171.76,363.08,175.31"/>
	<path class="st0" d="M321.4,212.46c9.55,9.93,16.42,21.96,20.09,35.22c7.82,28.31-0.04,58.18-19.95,79.49
		c-3.35,3.57-8.98,3.78-12.55,0.43c-3.57-3.32-3.78-8.95-0.43-12.51c15.71-16.83,21.98-40.33,15.85-62.67
		c-2.9-10.42-8.29-19.86-15.77-27.65c-3.4-3.51-3.29-9.15,0.22-12.53C312.4,208.84,318.01,208.95,321.4,212.46"/>
	<path class="st0" d="M286.13,236.64c6.34,5.81,10.9,13.25,13.18,21.55c4.6,16.61-0.54,34.3-13.2,45.92
		c-3.59,3.32-9.22,3.07-12.51-0.53c-3.32-3.6-3.05-9.23,0.55-12.52c7.75-7.14,10.88-17.96,8.06-28.13
		c-1.41-5.11-4.15-9.63-8.04-13.19c-3.59-3.31-3.87-8.92-0.57-12.54C276.9,233.59,282.52,233.35,286.13,236.64"/>
	<path class="st0" d="M208.81,38.71c-14.48,65.55,36.7,105.71,61.55,131.7c13.12,13.71,9.91,22.64,3.28,28.31
		c-9,7.72-26.33,10.09-27.74,13.59c-3,7.3,10.87,36.71,8.3,45.44c-7.26,11.08-26.22,10.23-24.89,15.33
		c-0.24,7.27,20.96,4.73,24.03,14.94c3.07,10.2-13.55,24.06-15.41,26.55c-7.17,16.47,19.92,55.72-8.22,71.49
		c-40.88,22.42-92.73-11.66-117.02,20.89c-15.83-14.73-82.96-49.51-75.72-191.21C76.83,40.52,202,40.28,208.81,38.71"/>
</g>
</svg>
