<?xml version="1.0" encoding="utf-8"?>
<!-- Generator: Adobe Illustrator 24.1.2, SVG Export Plug-In . SVG Version: 6.00 Build 0)  -->
<svg version="1.1" id="Capa_1" xmlns="http://www.w3.org/2000/svg" xmlns:xlink="http://www.w3.org/1999/xlink" x="0px" y="0px"
	 viewBox="0 0 500 500" style="enable-background:new 0 0 500 500;" xml:space="preserve">
<style type="text/css">
	.st0{fill-rule:evenodd;clip-rule:evenodd;fill:#102B6E;}
	.st1{fill-rule:evenodd;clip-rule:evenodd;fill:#FFFFFF;}
	.st2{fill:#102B6E;}
	.st3{fill-rule:evenodd;clip-rule:evenodd;fill:#4596D1;}
	.st4{fill-rule:evenodd;clip-rule:evenodd;fill:#00ADEE;}
	.st5{fill-rule:evenodd;clip-rule:evenodd;fill:#00A551;}
	.st6{fill-rule:evenodd;clip-rule:evenodd;fill:#EC1C24;}
	.st7{fill-rule:evenodd;clip-rule:evenodd;fill:#3DABF9;}
	.st8{clip-path:url(#SVGID_3_);fill:url(#SVGID_8_);}
	.st9{fill-rule:evenodd;clip-rule:evenodd;fill:#A5DBFD;}
	.st10{fill:#E4F5FB;}
	.st11{clip-path:url(#SVGID_9_);fill:url(#SVGID_10_);}
	.st12{clip-path:url(#SVGID_11_);fill:url(#SVGID_12_);}
	.st13{clip-path:url(#SVGID_13_);fill:url(#SVGID_14_);}
	.st14{fill-rule:evenodd;clip-rule:evenodd;fill:#D4ECFD;}
	.st15{clip-path:url(#SVGID_15_);fill:url(#SVGID_16_);}
	.st16{clip-path:url(#SVGID_17_);fill:url(#SVGID_18_);}
	.st17{fill-rule:evenodd;clip-rule:evenodd;fill:#8DD7F7;}
	.st18{fill:#8DD7F7;}
</style>
<g>
	<path class="st0" d="M331.04,224.04h89.31c6.22,0,11.31,5.09,11.31,11.31v188.74c0,6.22-5.09,11.31-11.31,11.31h-89.31
		c-6.22,0-11.31-5.09-11.31-11.31V235.35C319.73,229.13,324.82,224.04,331.04,224.04"/>
	<rect x="327.97" y="239.3" class="st1" width="96.93" height="159.38"/>
	<path class="st2" d="M326.64,255.69V239.3v-1.32h1.32h96.93h1.32v1.32v16.39v1.32v12.3v4.09v1.32v12.3v4.09v1.32v12.3v4.09v1.32
		v12.3v4.09v1.32v12.3v4.09v1.32v12.3v4.09v1.32v12.3v4.09v1.32v1.32v16.39V400h-1.32h-96.93h-1.32v-1.32v-16.39v-1.32v-1.32v-15.07
		v-1.32v9.66v-26.05v-1.32v9.66v-26.05v-1.32v9.66v-26.05v-1.32v9.66v-26.05v-1.32v9.66v-26.05v-1.32v9.66v-26.05v-1.32V255.69z
		 M353.05,264.35h45.67c1.59,0,2.98,0.95,3.6,2.32h21.25v-26.05h-94.29v26.05h20.16C350.08,265.3,351.46,264.35,353.05,264.35z
		 M353.05,299.29h45.67c1.77,0,3.28,1.18,3.78,2.79h21.07v-5.42v-9.65v-2.64v-7.53v-7.53h-21.02c-0.45,1.7-2,2.96-3.83,2.96h-45.67
		c-1.83,0-3.39-1.26-3.83-2.96h-19.93v7.53v7.53v2.64v9.65v5.42h19.98C349.77,300.47,351.28,299.29,353.05,299.29z M353.05,335.29
		h45.67c1.55,0,2.9,0.91,3.55,2.21h21.3v-5.35v-9.72v-2.64v-7.47v-7.6H402.4c-0.59,1.45-2.02,2.49-3.67,2.49h-45.67
		c-1.66,0-3.09-1.03-3.68-2.49h-20.09v7.6v7.47v2.64v9.72v5.35h20.21C350.15,336.2,351.5,335.29,353.05,335.29z M353.05,370.76
		h45.67c1.53,0,2.87,0.88,3.53,2.16h21.33v-3.73v-11.34v-2.64v-5.84v-9.22h-21c-0.41,1.75-1.99,3.07-3.86,3.07h-45.67
		c-1.87,0-3.45-1.32-3.86-3.07h-19.91v9.22v5.84v2.64v11.34v3.73h20.24C350.18,371.64,351.52,370.76,353.05,370.76z M329.29,397.36
		h94.29v-5.65v-9.41v-2.64v3.21v-7.3h-20.98c-0.39,1.78-1.98,3.12-3.87,3.12h-45.67c-1.89,0-3.48-1.34-3.87-3.12h-19.9v7.3v-3.21
		v2.64v9.41V397.36z"/>
	<rect x="330.05" y="407.33" class="st3" width="12.34" height="12.34"/>
	<rect x="351.09" y="410.4" class="st4" width="6.21" height="6.21"/>
	<rect x="361.76" y="410.4" class="st4" width="6.21" height="6.21"/>
	<rect x="372.44" y="410.4" class="st5" width="6.21" height="6.21"/>
	<rect x="383.12" y="410.4" class="st4" width="6.21" height="6.21"/>
	<rect x="393.79" y="410.4" class="st5" width="6.21" height="6.21"/>
	<path class="st6" d="M418.04,403.66c2.38,0,4.31,1.93,4.31,4.31c0,2.38-1.93,4.31-4.31,4.31c-2.38,0-4.31-1.93-4.31-4.31
		C413.73,405.59,415.66,403.66,418.04,403.66"/>
	<path class="st5" d="M418.04,416.24c1.45,0,2.62,1.17,2.62,2.62c0,1.45-1.17,2.62-2.62,2.62c-1.45,0-2.62-1.17-2.62-2.62
		C415.42,417.41,416.59,416.24,418.04,416.24"/>
	<rect x="331.04" y="435.39" class="st0" width="88.77" height="6.01"/>
	<path class="st7" d="M72.59,287.76h192.34c4.72,0,7.33,4.03,8.58,8.58l36.02,131.21c1.25,4.55-3.86,8.58-8.58,8.58H102.08
		c-4.72,0-7.54-3.97-8.58-8.58L64.01,296.34C62.98,291.74,67.87,287.76,72.59,287.76"/>
	<path class="st0" d="M78.26,287.76H270.6c4.72,0,7.33,4.03,8.58,8.58l36.01,131.21c1.25,4.55-3.86,8.58-8.58,8.58H107.75
		c-4.72,0-7.54-3.97-8.58-8.58L69.68,296.34C68.65,291.74,73.54,287.76,78.26,287.76"/>
	<g>
		<defs>
			<path id="SVGID_7_" d="M80.46,294.67h188.5c1.36,0,2.1,1.16,2.47,2.47l32.89,115.82c0.37,1.31-1.11,2.47-2.47,2.47H107.03
				c-1.36,0-2.17-1.15-2.47-2.47L77.99,297.14C77.68,295.81,79.1,294.67,80.46,294.67"/>
		</defs>
		<clipPath id="SVGID_3_">
			<use xlink:href="#SVGID_7_"  style="overflow:visible;"/>
		</clipPath>
		<linearGradient id="SVGID_8_" gradientUnits="userSpaceOnUse" x1="190.9346" y1="403.2216" x2="191.4349" y2="307.9546">
			<stop  offset="0" style="stop-color:#1E9DF8"/>
			<stop  offset="1" style="stop-color:#B9E4FF"/>
		</linearGradient>
		<rect x="77.68" y="294.67" class="st8" width="227.01" height="120.76"/>
	</g>
	<path class="st7" d="M98.83,425.76h258.41v6.83c0,3.76-3.07,6.83-6.83,6.83H105.66c-3.76,0-6.83-3.07-6.83-6.83V425.76z"/>
	<path class="st9" d="M244.38,425.76h191.74v6.83c0,3.76-3.07,6.83-6.83,6.83H251.22c-3.76,0-6.83-3.07-6.83-6.83V425.76z"/>
	<path class="st0" d="M321.65,431.09h58.79c0.72,0,1.3,0.58,1.3,1.3c0,0.72-0.58,1.3-1.3,1.3h-58.79c-0.72,0-1.3-0.59-1.3-1.3
		C320.35,431.67,320.93,431.09,321.65,431.09"/>
	<path class="st0" d="M105.02,428.32c1.55,0,2.81,1.57,2.81,3.51c0,1.94-1.26,3.51-2.81,3.51c-1.55,0-2.81-1.57-2.81-3.51
		C102.21,429.89,103.47,428.32,105.02,428.32"/>
	<rect x="156.21" y="430.69" class="st0" width="35.27" height="3.83"/>
	<rect x="194.94" y="430.69" class="st0" width="9.01" height="3.83"/>
	<rect x="207.11" y="430.69" class="st0" width="9.01" height="3.83"/>
	<path class="st10" d="M189.06,386.8h-64.78c-1.1,0-2.09,0.45-2.81,1.17l0,0c-0.72,0.72-1.17,1.72-1.17,2.81
		c0,1.09,0.45,2.09,1.17,2.81l0,0c0.72,0.72,1.72,1.17,2.81,1.17h64.78c1.1,0,2.09-0.45,2.81-1.17l0,0
		c0.72-0.72,1.17-1.72,1.17-2.81c0-1.1-0.45-2.09-1.17-2.81l0,0C191.15,387.25,190.15,386.8,189.06,386.8 M124.28,386.25h64.78
		c1.24,0,2.38,0.51,3.2,1.33v0h0c0.82,0.82,1.33,1.95,1.33,3.2c0,1.24-0.51,2.38-1.33,3.2l0,0v0c-0.82,0.82-1.95,1.33-3.2,1.33
		h-64.78c-1.25,0-2.38-0.51-3.2-1.33l0,0l0,0c-0.82-0.82-1.33-1.95-1.33-3.2c0-1.24,0.51-2.38,1.33-3.2h0l0,0
		C121.9,386.76,123.03,386.25,124.28,386.25z"/>
	<path class="st10" d="M183.69,367.79h-64.78c-1.09,0-2.09,0.45-2.81,1.17l0,0c-0.72,0.72-1.17,1.72-1.17,2.81
		c0,1.09,0.45,2.09,1.17,2.81l0,0c0.72,0.72,1.72,1.17,2.81,1.17h64.78c1.1,0,2.09-0.45,2.81-1.17l0,0
		c0.72-0.72,1.17-1.72,1.17-2.81c0-1.09-0.45-2.09-1.17-2.81l0,0C185.78,368.24,184.79,367.79,183.69,367.79 M118.91,367.24h64.78
		c1.24,0,2.38,0.51,3.2,1.33l0,0v0c0.82,0.82,1.33,1.95,1.33,3.2c0,1.24-0.51,2.38-1.33,3.2l0,0l0,0c-0.82,0.82-1.95,1.33-3.2,1.33
		h-64.78c-1.24,0-2.38-0.51-3.2-1.33l0,0h0c-0.82-0.82-1.33-1.95-1.33-3.2c0-1.24,0.51-2.38,1.33-3.2l0,0l0,0
		C116.54,367.75,117.67,367.24,118.91,367.24z"/>
	<path class="st10" d="M178.87,348.79h-64.78c-1.1,0-2.09,0.45-2.81,1.17l0,0c-0.72,0.72-1.17,1.72-1.17,2.81
		c0,1.1,0.45,2.09,1.17,2.81l0,0c0.72,0.72,1.72,1.17,2.81,1.17h64.78c1.09,0,2.09-0.45,2.81-1.17l0,0
		c0.72-0.72,1.17-1.72,1.17-2.81c0-1.09-0.45-2.09-1.17-2.81l0,0C180.96,349.23,179.97,348.79,178.87,348.79 M114.09,348.24h64.78
		c1.24,0,2.38,0.51,3.2,1.33l0,0v0c0.82,0.82,1.33,1.95,1.33,3.2c0,1.24-0.51,2.38-1.33,3.2v0h0c-0.82,0.82-1.95,1.33-3.2,1.33
		h-64.78c-1.24,0-2.38-0.51-3.2-1.33h0l0,0c-0.82-0.82-1.33-1.95-1.33-3.2c0-1.24,0.51-2.38,1.33-3.2l0,0l0,0
		C111.72,348.75,112.85,348.24,114.09,348.24z"/>
	<g>
		<defs>
			<path id="SVGID_6_" d="M211.18,417.41C142.92,373.77,98.99,286.15,105.5,205.25l1.54-19.1l18.93-2.98
				c33.21-5.23,57.62-15.25,86.8-31.71l11.95-6.74l11.95,6.74c29.34,16.54,53.67,26.18,87.02,31.74l18.73,3.12l1.52,18.92
				c6.51,80.9-37.42,168.52-105.67,212.16H211.18z"/>
		</defs>
		<clipPath id="SVGID_9_">
			<use xlink:href="#SVGID_6_"  style="overflow:visible;"/>
		</clipPath>
		<linearGradient id="SVGID_10_" gradientUnits="userSpaceOnUse" x1="224.7242" y1="252.9689" x2="224.7312" y2="443.037">
			<stop  offset="0" style="stop-color:#0094FF"/>
			<stop  offset="0.1765" style="stop-color:#008BF1"/>
			<stop  offset="0.5111" style="stop-color:#0074CC"/>
			<stop  offset="0.9653" style="stop-color:#004E90"/>
			<stop  offset="1" style="stop-color:#004B8B"/>
		</linearGradient>
		<rect x="98.99" y="144.72" class="st11" width="251.47" height="272.69"/>
	</g>
	<g>
		<defs>
			<path id="SVGID_5_" d="M224.73,172.65c-32.56,18.36-58.74,28.85-94.97,34.55c-5.96,74.02,35.71,152.36,94.97,190
				c59.26-37.63,100.93-115.98,94.97-190C282.78,201.05,257.28,191.01,224.73,172.65"/>
		</defs>
		<clipPath id="SVGID_11_">
			<use xlink:href="#SVGID_5_"  style="overflow:visible;"/>
		</clipPath>
		<linearGradient id="SVGID_12_" gradientUnits="userSpaceOnUse" x1="224.7254" y1="161.2898" x2="224.7254" y2="397.1997">
			<stop  offset="0" style="stop-color:#0094FF"/>
			<stop  offset="0.1426" style="stop-color:#008CF1"/>
			<stop  offset="0.4111" style="stop-color:#0176CD"/>
			<stop  offset="0.7736" style="stop-color:#025393"/>
			<stop  offset="1" style="stop-color:#033B6B"/>
		</linearGradient>
		<rect x="123.8" y="172.65" class="st12" width="201.86" height="224.55"/>
	</g>
	<g>
		<defs>
			<path id="SVGID_4_" d="M135.76,212.64c-1.43,28.09,4.12,56.44,14.57,82.47c14.9,37.11,40.92,72.07,74.39,94.51
				c33.48-22.43,59.49-57.4,74.4-94.5c10.46-26.04,16.01-54.41,14.57-82.51c-15.35-2.79-30.29-6.61-44.99-12.02
				c-15.27-5.63-29.77-12.77-43.98-20.65c-14.91,8.28-30.16,15.76-46.24,21.56C164.52,206.51,150.33,210.1,135.76,212.64"/>
		</defs>
		<clipPath id="SVGID_13_">
			<use xlink:href="#SVGID_4_"  style="overflow:visible;"/>
		</clipPath>
		<linearGradient id="SVGID_14_" gradientUnits="userSpaceOnUse" x1="224.7286" y1="586.1132" x2="224.7286" y2="259.82">
			<stop  offset="0" style="stop-color:#1E9DF8"/>
			<stop  offset="0.133" style="stop-color:#45AEF9"/>
			<stop  offset="0.3603" style="stop-color:#82C8FB"/>
			<stop  offset="0.5689" style="stop-color:#B2DDFD"/>
			<stop  offset="0.7517" style="stop-color:#D4ECFE"/>
			<stop  offset="0.9016" style="stop-color:#E9F6FF"/>
			<stop  offset="1" style="stop-color:#F1F9FF"/>
		</linearGradient>
		<rect x="134.33" y="179.93" class="st13" width="180.8" height="209.69"/>
	</g>
	<rect x="346.72" y="282.32" class="st14" width="29.43" height="5.76"/>
	<rect x="346.72" y="248.9" class="st14" width="29.43" height="5.76"/>
	<path class="st1" d="M425.7,251.56c-1.13,0.36-1.7,1.76-1.26,3.12c0.44,1.36,1.71,2.16,2.84,1.8c1.13-0.36,1.7-1.76,1.26-3.12
		C428.11,252,426.83,251.19,425.7,251.56"/>
	<g>
		<defs>
			<path id="SVGID_2_" d="M258.01,253.9c6.97,0.78,12.43,6.74,12.43,13.91v50.39c0,7.7-6.3,14-14,14h-62.29c-7.7,0-14-6.3-14-14
				v-50.39c0-6.93,5.1-12.72,11.73-13.81v-11.85l0.01-0.29c0.83-17.57,15.59-31.08,33.06-31.08c17.48,0,32.2,13.53,33.03,31.08
				l0,0.05c0.02,0.5,0.04,0.99,0.04,1.49c0,0.39-0.01,0.79-0.02,1.18V253.9z M225.31,268.82c7.77,0,14.07,6.3,14.07,14.07
				c0,5.4-3.05,10.1-7.52,12.45v23.26h-13.11v-23.26c-4.47-2.36-7.52-7.05-7.52-12.45C211.24,275.12,217.54,268.82,225.31,268.82z
				 M203.96,253.81h41.99v-9.47c0.01-0.31,0.02-0.62,0.02-0.94c0-0.31-0.01-0.63-0.02-0.94v-0.03h0
				c-0.52-10.9-9.71-19.59-20.98-19.59c-11.03,0-20.48,8.45-21.01,19.59v0.97V253.81z"/>
		</defs>
		<clipPath id="SVGID_15_">
			<use xlink:href="#SVGID_2_"  style="overflow:visible;"/>
		</clipPath>
		<linearGradient id="SVGID_16_" gradientUnits="userSpaceOnUse" x1="225.3057" y1="204.6517" x2="225.3057" y2="332.195">
			<stop  offset="0" style="stop-color:#0094FF"/>
			<stop  offset="0.1426" style="stop-color:#008CF1"/>
			<stop  offset="0.4111" style="stop-color:#0176CD"/>
			<stop  offset="0.7736" style="stop-color:#025393"/>
			<stop  offset="1" style="stop-color:#033B6B"/>
		</linearGradient>
		<rect x="180.17" y="210.79" class="st15" width="90.28" height="121.41"/>
	</g>
	<g>
		<defs>
			<path id="SVGID_1_" d="M258.01,249.3c6.97,0.78,12.43,6.74,12.43,13.91v50.39c0,7.7-6.3,14-14,14h-62.29c-7.7,0-14-6.3-14-14
				v-50.39c0-6.93,5.1-12.72,11.73-13.81v-11.84l0.01-0.29c0.83-17.57,15.59-31.08,33.06-31.08c17.48,0,32.2,13.53,33.03,31.08
				l0,0.05c0.02,0.5,0.04,0.99,0.04,1.49c0,0.39-0.01,0.79-0.02,1.18V249.3z M225.31,264.22c7.77,0,14.07,6.3,14.07,14.07
				c0,5.4-3.05,10.1-7.52,12.45V314h-13.11v-23.26c-4.47-2.36-7.52-7.05-7.52-12.45C211.24,270.52,217.54,264.22,225.31,264.22z
				 M203.96,249.21h41.99v-9.47c0.01-0.31,0.02-0.62,0.02-0.93c0-0.31-0.01-0.63-0.02-0.94v-0.03h0
				c-0.52-10.9-9.71-19.59-20.98-19.59c-11.03,0-20.48,8.45-21.01,19.59v0.97V249.21z"/>
		</defs>
		<clipPath id="SVGID_17_">
			<use xlink:href="#SVGID_1_"  style="overflow:visible;"/>
		</clipPath>
		<linearGradient id="SVGID_18_" gradientUnits="userSpaceOnUse" x1="225.3057" y1="254.386" x2="225.3057" y2="339.0106">
			<stop  offset="0" style="stop-color:#0094FF"/>
			<stop  offset="0.1765" style="stop-color:#008BF1"/>
			<stop  offset="0.5111" style="stop-color:#0074CC"/>
			<stop  offset="0.9653" style="stop-color:#004E90"/>
			<stop  offset="1" style="stop-color:#004B8B"/>
		</linearGradient>
		<rect x="180.17" y="206.19" class="st16" width="90.28" height="121.41"/>
	</g>
	<rect x="346.72" y="385.41" class="st14" width="29.43" height="5.76"/>
	<rect x="346.72" y="352.47" class="st14" width="29.43" height="5.76"/>
	<rect x="346.72" y="316.91" class="st14" width="29.43" height="5.76"/>
	<path class="st17" d="M345.62,85.82L345.62,85.82c0.67,0,1.23,0.55,1.23,1.23v10.71c0,0.67-0.55,1.23-1.23,1.23
		c-0.67,0-1.22-0.55-1.22-1.23V87.04C344.39,86.37,344.95,85.82,345.62,85.82"/>
	<path class="st17" d="M352.2,92.4L352.2,92.4c0,0.67-0.55,1.23-1.23,1.23h-10.71c-0.67,0-1.22-0.55-1.22-1.23
		c0-0.67,0.55-1.23,1.22-1.23h10.71C351.65,91.17,352.2,91.72,352.2,92.4"/>
	<path class="st17" d="M214.86,100.59L214.86,100.59c0.76,0,1.39,0.62,1.39,1.39v12.13c0,0.76-0.62,1.39-1.39,1.39
		c-0.76,0-1.39-0.62-1.39-1.39v-12.13C213.48,101.21,214.1,100.59,214.86,100.59"/>
	<path class="st17" d="M222.31,108.04L222.31,108.04c0,0.76-0.62,1.39-1.39,1.39H208.8c-0.76,0-1.39-0.62-1.39-1.39
		c0-0.76,0.62-1.39,1.39-1.39h12.13C221.69,106.65,222.31,107.28,222.31,108.04"/>
	<path class="st18" d="M263.79,62.67c-0.87-0.87-2.07-1.4-3.39-1.4c-1.33,0-2.53,0.53-3.39,1.4l-0.01,0
		c-0.86,0.86-1.4,2.06-1.4,3.39c0,1.32,0.54,2.52,1.4,3.39v0c0.86,0.86,2.06,1.4,3.39,1.4c1.32,0,2.52-0.54,3.39-1.4
		c0.87-0.87,1.4-2.07,1.4-3.39C265.2,64.74,264.66,63.54,263.79,62.67L263.79,62.67z M260.4,58.6c2.06,0,3.93,0.84,5.28,2.19l0,0
		c1.35,1.35,2.19,3.22,2.19,5.28c0,2.06-0.84,3.93-2.19,5.28c-1.35,1.35-3.22,2.19-5.28,2.19c-2.06,0-3.92-0.84-5.28-2.19l0,0
		c-1.35-1.35-2.19-3.22-2.19-5.28c0-2.06,0.84-3.92,2.19-5.28l0,0l0,0C256.48,59.43,258.34,58.6,260.4,58.6z"/>
	<path class="st18" d="M306.69,119.44c-0.6-0.59-1.42-0.96-2.33-0.96c-0.91,0-1.73,0.37-2.32,0.96l0,0
		c-0.59,0.59-0.96,1.41-0.96,2.33c0,0.91,0.37,1.73,0.96,2.33v0c0.59,0.59,1.41,0.96,2.32,0.96c0.91,0,1.73-0.37,2.33-0.96
		c0.59-0.6,0.96-1.42,0.96-2.33C307.65,120.86,307.28,120.03,306.69,119.44L306.69,119.44z M304.36,116.64
		c1.41,0,2.69,0.57,3.62,1.5l0,0c0.93,0.93,1.5,2.21,1.5,3.62c0,1.41-0.57,2.69-1.5,3.62c-0.93,0.93-2.21,1.5-3.62,1.5
		c-1.41,0-2.69-0.57-3.62-1.5l0,0c-0.93-0.93-1.5-2.21-1.5-3.62c0-1.41,0.57-2.69,1.5-3.62l0,0l0,0
		C301.67,117.22,302.95,116.64,304.36,116.64z"/>
	<path class="st18" d="M415.21,100.55c-0.49-0.49-1.16-0.79-1.9-0.79c-0.75,0-1.42,0.3-1.9,0.79l0,0c-0.49,0.49-0.79,1.16-0.79,1.9
		c0,0.74,0.3,1.42,0.79,1.9v0c0.49,0.49,1.16,0.79,1.9,0.79c0.74,0,1.42-0.3,1.9-0.79c0.49-0.49,0.79-1.16,0.79-1.9
		C416,101.71,415.7,101.04,415.21,100.55L415.21,100.55z M413.31,98.26c1.16,0,2.21,0.47,2.96,1.23l0,0
		c0.76,0.76,1.23,1.81,1.23,2.96c0,1.16-0.47,2.21-1.23,2.97c-0.76,0.76-1.81,1.23-2.96,1.23c-1.16,0-2.2-0.47-2.96-1.23l0,0
		c-0.76-0.76-1.23-1.81-1.23-2.97c0-1.15,0.47-2.2,1.23-2.96l0,0l0,0C411.1,98.73,412.15,98.26,413.31,98.26z"/>
	<path class="st18" d="M166.19,96.56c-0.49-0.49-1.16-0.79-1.9-0.79c-0.75,0-1.42,0.3-1.9,0.79l0,0c-0.49,0.48-0.79,1.16-0.79,1.9
		c0,0.74,0.3,1.42,0.79,1.9v0c0.48,0.49,1.16,0.79,1.9,0.79c0.74,0,1.42-0.3,1.9-0.79c0.49-0.49,0.79-1.16,0.79-1.9
		C166.98,97.72,166.68,97.05,166.19,96.56L166.19,96.56z M164.29,94.27c1.16,0,2.21,0.47,2.97,1.23l0,0
		c0.76,0.76,1.23,1.81,1.23,2.96c0,1.16-0.47,2.21-1.23,2.96c-0.76,0.76-1.81,1.23-2.97,1.23c-1.16,0-2.2-0.47-2.96-1.23l0,0
		c-0.76-0.76-1.23-1.81-1.23-2.96c0-1.15,0.47-2.2,1.23-2.96l0,0l0,0C162.08,94.74,163.13,94.27,164.29,94.27z"/>
	<path class="st17" d="M132.55,128.37L132.55,128.37c0.7,0,1.28,0.58,1.28,1.28v11.19c0,0.7-0.58,1.28-1.28,1.28h0
		c-0.7,0-1.28-0.58-1.28-1.28v-11.19C131.27,128.94,131.85,128.37,132.55,128.37"/>
	<path class="st17" d="M139.43,135.24L139.43,135.24c0,0.7-0.58,1.28-1.28,1.28h-11.19c-0.7,0-1.28-0.58-1.28-1.28l0,0
		c0-0.7,0.58-1.28,1.28-1.28h11.19C138.85,133.96,139.43,134.54,139.43,135.24"/>
	<path class="st17" d="M378.36,123.91L378.36,123.91c0.48,0,0.87,0.39,0.87,0.87v7.61c0,0.48-0.39,0.87-0.87,0.87h0
		c-0.48,0-0.87-0.39-0.87-0.87v-7.61C377.49,124.3,377.89,123.91,378.36,123.91"/>
	<path class="st17" d="M383.04,128.59L383.04,128.59c0,0.48-0.39,0.87-0.87,0.87h-7.61c-0.48,0-0.87-0.39-0.87-0.87v0
		c0-0.48,0.39-0.87,0.87-0.87h7.61C382.65,127.72,383.04,128.11,383.04,128.59"/>
</g>
</svg>
