<?xml version="1.0" encoding="utf-8"?>
<!-- Generator: Adobe Illustrator 24.1.2, SVG Export Plug-In . SVG Version: 6.00 Build 0)  -->
<svg version="1.1" id="Capa_1" xmlns="http://www.w3.org/2000/svg" xmlns:xlink="http://www.w3.org/1999/xlink" x="0px" y="0px"
	 viewBox="0 0 500 500" style="enable-background:new 0 0 500 500;" xml:space="preserve">
<style type="text/css">
	.st0{fill-rule:evenodd;clip-rule:evenodd;fill:#DBDBDB;}
	.st1{fill:#FFFFFF;}
	.st2{fill-rule:evenodd;clip-rule:evenodd;fill:#CCCCCC;}
	.st3{fill-rule:evenodd;clip-rule:evenodd;fill:#E2E2E2;}
	.st4{fill-rule:evenodd;clip-rule:evenodd;fill:#3B347A;}
	.st5{fill-rule:evenodd;clip-rule:evenodd;fill:#534D8C;}
	.st6{fill-rule:evenodd;clip-rule:evenodd;fill:#BFD2FC;}
	.st7{fill-rule:evenodd;clip-rule:evenodd;fill:#1D0E83;}
	.st8{fill:#5848C2;}
	.st9{fill-rule:evenodd;clip-rule:evenodd;fill:#FFFFFF;}
	.st10{fill-rule:evenodd;clip-rule:evenodd;fill:#E6E6E6;}
	.st11{fill-rule:evenodd;clip-rule:evenodd;fill:#F9BFB3;}
	.st12{fill-rule:evenodd;clip-rule:evenodd;fill:#E8A597;}
	.st13{fill:#E8A597;}
	.st14{fill-rule:evenodd;clip-rule:evenodd;fill:#1F6FD9;}
	.st15{fill-rule:evenodd;clip-rule:evenodd;fill:#1860BD;}
	.st16{fill:#1860BD;}
	.st17{fill:#D18C84;}
	.st18{fill:#342D6E;}
	.st19{fill-rule:evenodd;clip-rule:evenodd;fill:#FAEDE5;}
	.st20{fill-rule:evenodd;clip-rule:evenodd;fill:#F5F7FF;}
	.st21{fill-rule:evenodd;clip-rule:evenodd;fill:#748493;}
	.st22{fill:#5F4534;}
	.st23{fill-rule:evenodd;clip-rule:evenodd;fill:#513B2D;}
	.st24{fill:#534D8C;}
	.st25{fill-rule:evenodd;clip-rule:evenodd;fill:#301D4A;}
	.st26{fill-rule:evenodd;clip-rule:evenodd;fill:#00202B;}
	.st27{fill:#00202B;}
	.st28{fill:#D66D50;}
	.st29{fill-rule:evenodd;clip-rule:evenodd;fill:#9EA7DB;}
	.st30{fill:#ED986B;}
	.st31{fill:#9EA7DB;}
	.st32{fill:#D7DCF7;}
	.st33{fill-rule:evenodd;clip-rule:evenodd;fill:#347DF0;}
	.st34{fill-rule:evenodd;clip-rule:evenodd;fill:#CF6557;}
	.st35{fill-rule:evenodd;clip-rule:evenodd;fill:#FFF9EF;}
	.st36{fill-rule:evenodd;clip-rule:evenodd;fill:#413A80;}
	.st37{fill-rule:evenodd;clip-rule:evenodd;fill:#342D6E;}
	.st38{fill:#D18B7D;}
	.st39{fill-rule:evenodd;clip-rule:evenodd;fill:#FEC961;}
	.st40{fill-rule:evenodd;clip-rule:evenodd;fill:#EBB64D;}
	.st41{fill:#EBB64D;}
	.st42{fill-rule:evenodd;clip-rule:evenodd;fill:#995D51;}
	.st43{fill:#D99182;}
	.st44{fill-rule:evenodd;clip-rule:evenodd;fill:#B6BEED;}
	.st45{fill-rule:evenodd;clip-rule:evenodd;fill:#FAAAAB;}
	.st46{fill-rule:evenodd;clip-rule:evenodd;fill:#D9D9D9;}
</style>
<g>
	<path class="st0" d="M168.36,376.28c0,0-7.47,17.99-1.88,25.79c2.85,3.97,11.09,7.48,18.5,9.97h-65.86
		c-5.25-2.2-9.86-4.49-10.83-6.06c-2.5-4.03-1.73-8.99,1.18-17.54c2.9-8.55,4.02-12.2,4.02-12.2L168.36,376.28L168.36,376.28z"/>
	<path class="st1" d="M116.53,375.11c-0.02,0.05-6.53,16.19-6.98,20.85c-0.07,0.73-0.15,1.27-0.23,1.82
		c-0.53,3.67-1.11,7.59,9.73,11.71l6.71,2.55h-11.78c-10.45-4.92-9.71-10.03-9.01-14.86c0.09-0.61,0.18-1.21,0.22-1.62
		c0.51-5.3,7.25-21.99,7.27-22.04L116.53,375.11L116.53,375.11z"/>
	<path class="st2" d="M47.35,195.19c0,0,0.15-6.58,7.7-6.09c7.55,0.49,200.04,16.07,200.04,16.07s10.23-0.48,11.27,10.18
		c1.03,10.66,6.34,155.33,6.34,155.33s0.37,7.47-12.76,7.76c-13.14,0.29-197.2,0.26-197.2,0.26s-10.43,1.19-11.16-11.75
		C48.38,310.83,47.46,251.69,47.35,195.19L47.35,195.19z"/>
	<path class="st3" d="M52.28,195.51c0,0,0.15-6.58,7.7-6.09c7.55,0.49,200.04,16.07,200.04,16.07s10.23-0.48,11.27,10.18
		c1.03,10.66,6.34,155.33,6.34,155.33s0.37,7.47-12.76,7.76c-13.14,0.29-197.2,0.26-197.2,0.26s-10.43,1.19-11.16-11.75
		C53.31,311.15,52.4,252.01,52.28,195.51L52.28,195.51z"/>
	<polygon class="st4" points="62.94,197.44 264.19,212.98 268.94,341.99 65.75,339.74 62.94,197.44 	"/>
	<path class="st5" d="M165.04,199.62c0.96,0.06,1.81,1.11,1.88,2.34c0.08,1.23-0.64,2.18-1.6,2.12c-0.96-0.06-1.81-1.11-1.88-2.34
		C163.36,200.5,164.07,199.56,165.04,199.62L165.04,199.62z"/>
	<path class="st6" d="M99.06,203.04c13.27,1.12,26.61,2.22,39.91,3.32c13.28,1.09,26.59,2.17,39.91,3.25
		c0.41,10.6,0.87,21.18,1.22,31.74c0.35,10.56,0.64,21.15,0.93,31.71c-13.45-0.65-26.92-1.3-40.37-1.98
		c-13.43-0.67-26.92-1.36-40.36-2.07c-0.14-10.99-0.28-21.99-0.47-32.97C99.63,225.06,99.32,214.06,99.06,203.04L99.06,203.04z"/>
	<path class="st7" d="M142.64,211.06c-6.36-3.66-13.17,1.71-13.36,9.42c-0.37,1.44-0.61,3.21-0.55,5.34
		c0.07,2.39-0.25,4.59-0.66,6.4c-1.06,1.85-2.76,5.11-2.63,8.48c-0.12,0.8-0.15,1.57-0.09,2.27c0.21,2.38,1.31,4.1,2.26,5.09
		c0.07-0.09,0.12-0.18,0.21-0.27c-0.92-0.93-1.95-2.56-2.18-4.81c0-0.24-0.03-0.49-0.01-0.76c0.32,1.46-0.99,0.9,2.32,4.18
		c3.31,3.28,25.56,2.97,26.58,0.48c1.02-2.49,0.35-0.94,0.47-1.4c0.98-1.53,1.24-3.9,1.03-6.35c-0.23-3.03-1.21-6.22-2.45-8.12
		c-0.85-1.29-1.41-3.14-1.77-4.95C152.18,219.83,149.49,210.57,142.64,211.06L142.64,211.06z M155.27,244.23
		c0.53-3.84-1.19-9.09-2.39-12.14c-1.2-3.04-1.04-3.44-1.07-4.78c0.36,1.46,0.85,2.84,1.55,3.88c1.23,1.85,2.17,4.96,2.4,7.93
		C155.92,241,155.78,242.83,155.27,244.23L155.27,244.23z M129.32,221.89c0.02,0.38-0.28-1.68,0.09,1.14
		c0.37,2.82,0.55,6.05-0.83,8.37c0.3-1.65,0.53-3.54,0.48-5.56C129.01,224.35,129.12,223.03,129.32,221.89L129.32,221.89z"/>
	<path class="st8" d="M141.58,211.47c-0.02,0-7.52,0.33-9.77,5.95c-1.35,3.39-1.22,6.36-1.07,8.8c0.1,1.63,0.13,3.03-0.26,4.15
		c-0.2,0.56-0.54,1.17-0.96,1.87c-1.65,2.87-4.19,7.25-0.04,14.63c-0.07,0.05-0.13,0.07-0.17,0.11c-4.24-7.52-1.65-11.97,0.04-14.89
		c0.4-0.7,0.77-1.29,0.96-1.83c0.38-1.08,0.31-2.46,0.23-4.05c-0.13-2.46-0.28-5.47,1.08-8.92c2.3-5.73,9.92-6.07,9.94-6.07
		C141.55,211.3,141.56,211.38,141.58,211.47L141.58,211.47z M135.35,231.99c-0.02,0.01-5.02,3.78-1.91,12.9
		c-0.06,0.02-0.13,0.05-0.19,0.07c-3.17-9.29,1.95-13.14,1.97-13.15C135.27,231.88,135.31,231.95,135.35,231.99L135.35,231.99z
		 M143.6,213.24c0.02,0,3.51,0.12,5.2,7.85c-0.08,0.02-0.15,0.03-0.19,0.04c-1.64-7.55-4.98-7.67-5-7.67
		C143.61,213.4,143.62,213.32,143.6,213.24L143.6,213.24z M141.44,212.87c-0.02,0-6.95,1.43-8.82,6.63
		c-0.06-0.03-0.12-0.06-0.16-0.12c1.85-5.28,8.89-6.73,8.91-6.73C141.39,212.73,141.42,212.8,141.44,212.87L141.44,212.87z
		 M149.72,249.61c0.11-0.01,0.19-0.03,0.27-0.05c0.95-0.78,4.64-4.25,2.39-10.74c-2.14-6.23-2.04-7.51-1.77-10.65
		c0.04-0.54,0.08-1.15,0.15-1.83c0.11-2.21-0.09-4.32-0.52-6.23c-0.48-2.16-1.27-4.06-2.2-5.64c-1.76-3-4.96-2.76-4.96-2.76
		c0,0.08,0.01,0.16,0.03,0.23c0,0,3.08-0.23,4.78,2.64c0.89,1.56,1.69,3.43,2.15,5.57c0.46,1.87,0.65,3.97,0.52,6.15
		c-0.05,0.7-0.11,1.29-0.14,1.83c-0.25,3.16-0.38,4.47,1.8,10.76c2.49,7.25-2.52,10.63-2.55,10.64
		C149.68,249.57,149.7,249.6,149.72,249.61L149.72,249.61z M143.75,214.48c0,0.01,1.97,4.8,4.29,7.68c1.98,2.48,1.5,7.07,1.09,11.06
		c-0.09,0.74-0.16,1.45-0.22,2.1c-0.35,4.3,1.13,12.03,1.13,12.04c-0.06,0.02-0.13,0.03-0.19,0.04c0-0.03-1.5-7.8-1.14-12.12
		c0.07-0.69,0.16-1.38,0.22-2.11c0.43-3.92,0.88-8.47-1.04-10.87c-2.35-2.91-4.31-7.72-4.33-7.74
		C143.62,214.54,143.68,214.51,143.75,214.48L143.75,214.48z M141.69,214.46c0,0,0.09,2.08-4.81,4.39c-2.13,1-3.48,2.28-4.28,3.61
		c-1.01,1.67-1.15,3.46-0.9,5c0.47,2.98-0.54,4.91-1.56,6.82c-1.55,2.96-3.08,5.86,1.08,12.69c-0.06,0.05-0.11,0.09-0.13,0.13
		c-4.28-6.96-2.71-9.92-1.13-12.95c1-1.87,1.98-3.76,1.53-6.66c-0.25-1.6-0.1-3.45,0.95-5.19c0.8-1.36,2.16-2.64,4.33-3.67
		c4.8-2.25,4.72-4.18,4.72-4.19C141.52,214.45,141.61,214.46,141.69,214.46L141.69,214.46z"/>
	<path class="st9" d="M133.17,246.51c0,0,0.14,6.45,7.53,6.89c7.39,0.44,9.97-5.76,10.38-4.82c0.42,0.93,1.69,3.72,2.56,5.58
		c0,0,1.05,9.21,1.69,17.65c-8.03-0.4-16.04-0.8-24.08-1.21C131.9,262.56,132.52,254.52,133.17,246.51L133.17,246.51z"/>
	<path class="st10" d="M131.26,270.6c0.03-0.51,0.09-1.02,0.14-1.52c3.43,0.68,6.35,1.38,9.66,1.22c3.31-0.16,8.64,0.94,12.59,1.42
		C146.18,271.35,138.71,270.99,131.26,270.6L131.26,270.6z"/>
	<path class="st10" d="M133.25,247.16c0.26,1.66,1.6,5.89,7.45,6.24c5.85,0.35,8.85-2.78,9.94-4.18c0.32,0.12,0.65,0.26,0.93,0.41
		c0.32,0.78,0.69,1.57,1.07,2.36c-0.28,0.46,3.62-2.12-1.58,1.48c-5.2,3.6-17.9,0.14-18.43-0.29c0.15-2.01,0.31-4.03,0.47-6.05
		C133.14,247.14,133.19,247.16,133.25,247.16L133.25,247.16z"/>
	<path class="st11" d="M136.82,235.47c0,0,0.23,7.68-0.83,9.61c-1.07,1.93-3.9,2.63-3.9,2.63s0.26,5.47,5.66,6.82
		c5.41,1.36,9.53,0.04,11.48-1.25c1.94-1.29,1.88-3.47,1.88-3.47s-5.19-2.1-5.87-5.55c-0.68-3.45-0.98-7.74-0.98-7.74
		S140.72,238.76,136.82,235.47L136.82,235.47z"/>
	<path class="st12" d="M136.82,235.47c0,0,0.03,1.14,0.03,2.68c0.62,0.62,1.34,1.11,2.11,1.41c0.57,0.22,1.1,0.35,1.62,0.43
		c1.53,0.22,2.78-0.16,3.83-0.94c-0.13-1.47-0.17-2.51-0.17-2.51S140.72,238.76,136.82,235.47L136.82,235.47z"/>
	<path class="st11" d="M138.99,237.61c0.57,0.22,1.1,0.34,1.62,0.42c3.13,0.46,5.22-1.62,6.51-4.6c0.85-1.97,1.09-5.02,0.92-7.86
		c-1.32-1.14-3.79-3.79-5.39-8.42l0,0c-0.01,0.09,0.09,1.16-0.85,2.15c-0.66,1.07-1.77,2.11-3.69,2.56
		c-2.31,0.6-3.57,1.03-4.31,1.59c-0.09,0.06-0.15,0.13-0.2,0.19c-0.02,0.01-0.02,0.03-0.02,0.04
		C132.11,227.81,134.38,235.86,138.99,237.61L138.99,237.61z M140.5,220.3c-0.19,0.12,0.61-0.17-0.73,0.35
		c-1.34,0.52-4.46,1.28-5.52,2.12c0.8-0.41,1.97-0.78,3.77-1.24C139.09,221.27,139.93,220.83,140.5,220.3L140.5,220.3z"/>
	<path class="st13" d="M139.74,249.47c0-0.01-0.55-0.79-2.66-1.4c0.01-0.12,0.04-0.24,0.04-0.35c2.25,0.65,2.83,1.52,2.83,1.52
		C139.89,249.31,139.8,249.39,139.74,249.47L139.74,249.47z M142.26,249.39c0,0,0.55-0.8,2.77-1.19c0.01,0.12,0.03,0.23,0.06,0.36
		c-2.09,0.35-2.59,1.06-2.59,1.08C142.42,249.55,142.34,249.46,142.26,249.39L142.26,249.39z"/>
	<path class="st14" d="M165.81,272.33c-0.13-0.51-0.06,0.44-0.3-1.67c-0.25-2.11-0.76-5.67-1.31-8.44
		c-0.55-2.76-3.71-11.92-5.59-13.87c-1.88-1.96-9.76-3.16-13.47-4.45c0.26,0.46,2.04,1.9,2.29,3.49c0.25,1.59-0.45,12.14-0.08,14.28
		c0.37,2.14,0.45,5.67,0.59,9.77C153.9,271.74,159.86,272.02,165.81,272.33L165.81,272.33z"/>
	<path class="st15" d="M149.87,271.54c0.13-1.05-0.15-0.9,0.68-2.93c0.82-2.03,3.06-5.76,2.94-3.86c-0.12,1.9-1.5,5.24-0.06,5.86
		c1.44,0.62,2.83-3.91,3.44-2.9c0.61,1.01,0.9,2.35,1.13,4.24C155.29,271.81,152.57,271.67,149.87,271.54L149.87,271.54z"/>
	<path class="st15" d="M149.11,271.5c-0.19-5.59-0.27-9.51-0.52-11.13c-0.26-1.63-0.6-4.38-0.67-8.71
		c-0.06-4.33-0.69-6.77-1.25-7.49c-0.94-0.24-0.84-0.14-1.52-0.38c0,0.88,0.73,2.89,0.99,4.48c0.26,1.59,0.84,11.26,1.2,13.4
		c0.37,2.14,0.45,5.67,0.59,9.77C148.32,271.46,148.71,271.48,149.11,271.5L149.11,271.5z"/>
	<path class="st14" d="M136.41,243.82c-2.14,0.19-6.32,1.64-9.82,3.25c-3.5,1.61-5,4.19-5.98,6.8c-0.97,2.6-0.9,5.47-1.85,8.31
		c-0.95,2.84-2.34,5.39-3.22,7.63c6.81,0.35,13.62,0.68,20.42,1.04c0.1-1.1-0.03-0.58,0.35-3.02c0.38-2.45-0.65-7.35-1.71-11.73
		C133.54,251.73,136.15,245.23,136.41,243.82L136.41,243.82z"/>
	<path class="st15" d="M125.88,264.46c0,0,1.15,3.32,2.93,6.02c-1.76-0.09-3.55-0.19-5.33-0.28c-0.01-0.81-0.02-0.23,0.01-2.35
		C123.52,265.73,124.48,260.24,125.88,264.46L125.88,264.46z"/>
	<path class="st15" d="M136.41,243.82c-0.52,0.03-1.07,0.16-1.77,0.33c-0.83,1.56-2.58,4.56-1.93,8.98
		c0.64,4.42,1.97,8.06,2.01,8.52c0.04,0.46,0.59,3.99,0.49,6.11c-0.1,2.12-0.13,1.97-0.22,3.02c0.33,0.02,0.66,0.03,0.99,0.06
		c0.1-1.1-0.03-0.58,0.35-3.02c0.38-2.45-0.65-7.35-1.71-11.73C133.54,251.73,136.03,245.44,136.41,243.82L136.41,243.82z"/>
	<path class="st16" d="M123.16,259.34c0,0.03-0.54,5.56-0.52,10.82c-0.12-0.01-0.23-0.01-0.31-0.01c0-5.29,0.52-10.85,0.52-10.86
		C122.96,259.32,123.06,259.32,123.16,259.34L123.16,259.34z M132.15,270.65c-0.14-0.01-0.31-0.02-0.46-0.02
		c-4.4-5.16-4.59-19.37-4.61-19.43c0.1,0.01,0.21,0.01,0.29,0.02C127.39,251.28,127.6,265.87,132.15,270.65L132.15,270.65z"/>
	<path class="st16" d="M157.6,262.59c0,0,0,0,0.02,0l0,0c0.25,0.06,0.62,1.39,0.92,3.42c0.24,1.64,0.46,3.73,0.56,5.98
		c-0.13,0.01-0.23,0-0.31-0.01c-0.1-2.24-0.31-4.33-0.54-5.94c-0.29-1.89-0.54-3.09-0.67-3.1c0-0.03,0-0.05,0-0.08
		C157.58,262.77,157.57,262.68,157.6,262.59L157.6,262.59z M154.15,250.33c0,0.03-0.23,9.7-2.57,13.72
		c-0.1-0.06-0.18-0.12-0.26-0.19c2.28-3.95,2.53-13.54,2.53-13.56C153.94,250.32,154.05,250.33,154.15,250.33L154.15,250.33z
		 M157.35,254.41c0,0.03-1.03,10.78-3.32,14.35c-0.1-0.06-0.18-0.13-0.26-0.22c2.23-3.5,3.24-14.18,3.25-14.21
		C157.13,254.37,157.23,254.39,157.35,254.41L157.35,254.41z"/>
	<path class="st17" d="M138.68,232.96c0,0,1.89,1.96,4.26,0.18c0.07,0.14,0.17,0.27,0.22,0.39c-2.59,1.98-4.73-0.25-4.75-0.25
		C138.5,233.17,138.59,233.07,138.68,232.96L138.68,232.96z"/>
	<path class="st10" d="M145.87,257.35c0,0.01-0.65,2.27-4.03,5.14c-3.44,2.89-4.67,2.57-4.67,2.57c0.01-0.11,0.02-0.23,0.04-0.35
		c0,0,1.11,0.3,4.42-2.5c3.36-2.81,3.96-4.98,3.96-5C145.69,257.26,145.77,257.29,145.87,257.35L145.87,257.35z"/>
	<path class="st10" d="M146.73,259.14c0,0.01-0.02,2.42-2.47,6.35c-2.45,3.96-3.69,4.05-3.71,4.05c-0.03-0.11-0.05-0.22-0.06-0.34
		c0,0,1.13-0.09,3.53-3.91c2.38-3.85,2.39-6.19,2.39-6.19C146.52,259.11,146.63,259.12,146.73,259.14L146.73,259.14z"/>
	<path class="st17" d="M134.84,224.91c0,0,1.64-1.72,4.17-0.03c-0.05,0.11-0.08,0.21-0.12,0.3c-2.35-1.56-3.79,0.01-3.81,0.01
		C134.98,225.12,134.92,225.02,134.84,224.91L134.84,224.91z"/>
	<path class="st17" d="M145.91,225.99c0,0-1.57-1.79-3.83-0.59c-0.06-0.09-0.11-0.2-0.15-0.31c2.46-1.33,4.16,0.65,4.16,0.65
		C146.05,225.82,145.96,225.91,145.91,225.99L145.91,225.99z"/>
	<path class="st18" d="M137.44,225.89c0.35,0.02,0.65,0.61,0.66,1.29c0.04,0.68-0.25,1.22-0.6,1.19c-0.35-0.02-0.63-0.6-0.64-1.27
		C136.85,226.42,137.09,225.86,137.44,225.89L137.44,225.89z"/>
	<path class="st18" d="M143.17,226.18c0.35,0.03,0.63,0.6,0.66,1.27c0.02,0.69-0.25,1.22-0.6,1.19c-0.33-0.02-0.65-0.6-0.66-1.29
		C142.54,226.68,142.82,226.15,143.17,226.18L143.17,226.18z"/>
	<path class="st17" d="M139.83,226.66c0,0.01,0.35,3.47-0.55,4.17c-0.46,0.38,1.47,0.76,1.49,0.76c-0.01,0.13-0.02,0.26-0.02,0.36
		c0,0-2.8-0.53-1.65-1.45c0.73-0.59,0.42-3.82,0.42-3.83C139.6,226.69,139.7,226.68,139.83,226.66L139.83,226.66z"/>
	<path class="st9" d="M137.32,226.46c0.13,0.01,0.22,0.15,0.21,0.28c0.01,0.15-0.08,0.24-0.2,0.23c-0.12-0.01-0.22-0.11-0.23-0.26
		C137.11,226.57,137.19,226.45,137.32,226.46L137.32,226.46z"/>
	<path class="st9" d="M143,226.64c0.12,0.01,0.22,0.11,0.21,0.26c0.01,0.15-0.1,0.25-0.2,0.24c-0.14-0.01-0.22-0.14-0.23-0.29
		C142.76,226.72,142.87,226.62,143,226.64L143,226.64z"/>
	<path class="st19" d="M181.17,209.78c13.28,1.06,26.59,2.14,39.9,3.17c13.26,1.02,26.58,2.01,39.91,3
		c0.59,10.16,1.18,20.33,1.68,30.46c0.51,10.14,0.97,20.29,1.44,30.43c-13.48-0.6-26.95-1.18-40.4-1.79
		c-13.41-0.61-26.88-1.25-40.33-1.9c-0.29-10.55-0.6-21.12-0.96-31.67C182.05,230.94,181.61,220.37,181.17,209.78L181.17,209.78z"/>
	<path class="st20" d="M100.34,270.77c13.45,0.7,26.94,1.37,40.37,2.03c13.45,0.66,26.92,1.3,40.39,1.94
		c0.29,10.58,0.58,21.16,0.89,31.73c0.31,10.57,0.69,21.13,1.08,31.68c-13.56-0.22-27.15-0.42-40.71-0.66
		c-13.54-0.24-27.12-0.52-40.7-0.8c-0.32-10.99-0.63-21.97-0.83-32.96C100.64,292.76,100.48,281.75,100.34,270.77L100.34,270.77z"/>
	<path class="st21" d="M183.43,274.84c13.43,0.64,26.9,1.26,40.34,1.85c13.45,0.59,26.93,1.18,40.41,1.76
		c0.44,10.14,0.85,20.29,1.29,30.43c0.43,10.13,0.89,20.27,1.35,30.4c-13.59-0.19-27.17-0.35-40.72-0.53
		c-13.55-0.18-27.13-0.38-40.68-0.58c-0.41-10.55-0.78-21.1-1.1-31.65C184,295.98,183.72,285.4,183.43,274.84L183.43,274.84z"/>
	<path class="st11" d="M221.97,235.85c0.18,1.65,0.47,5.88-1.61,7.25c-4.19,2.76,12.3,5.74,11.25,1.85c0,0-2.83-1.64-2.47-8.57
		c0-0.05,0.03-0.12,0.01-0.18C226.25,236.88,223.82,236.52,221.97,235.85L221.97,235.85z"/>
	<path class="st12" d="M221.97,235.85c0.06,0.65,0.18,1.7,0.14,2.83c2.05,2.1,5.53,1.94,7.05,0.4c-0.07-0.79-0.07-1.7-0.03-2.7
		c0-0.05,0.03-0.12,0.01-0.18C226.25,236.88,223.82,236.52,221.97,235.85L221.97,235.85z"/>
	<path class="st11" d="M220.46,223.93c0,0-0.31,1.59-0.42,3.78c-0.48-0.33-1.13-0.93-1.99,0.16c-0.85,1.09,1.1,4.73,2.03,3.85l0,0
		c0.13,0.92-0.29-0.05,0.51,2.69c0.79,2.74,7.19,4.34,8.58,2.79c1.4-1.55,1.58-2.48,2.07-4.12c0,0.01,0,0.01,0.02,0.01
		c0.95,1.12,2.88-2.16,2.2-3.27c-0.69-1.11-0.92-0.84-1.36-0.83c0.07-0.46-0.01,0.51,0.17-1.33c0.19-1.84-0.4-6.33-3.7-7.25
		C225.26,219.48,220.24,220.31,220.46,223.93L220.46,223.93z"/>
	<path class="st11" d="M204.41,236.18c0.64-2.73,1.15-4.8,1.15-4.8s1.07,1.64,2.86,0.86c1.84-0.8,1.83-2.6,1.07-3.22
		c-0.76-0.62-1.25,1.37-2.14,1.43c-0.89,0.06-2.11-1.57-1.39-3.2c0.72-1.63,1.92-1.86,2.21-1.03c0.3,0.82-0.31,1.2,0.41,1.69
		c0.72,0.49,1.44,0.07,1.24-1.73c-0.2-1.8-0.92-3.1-2.07-2.71c-1.15,0.39-1.94,1.58-2.21,1.6c-0.27,0.02-0.07-0.77,0.55-2.58
		c0.62-1.81,0.52-5.1-0.34-4.27c-0.86,0.83-1.63,6.8-2.02,6.56c-0.39-0.25,0.76-6.22,0.19-6.85c-0.57-0.63-1.61-1.06-1.81,2.73
		c-0.2,3.78,0,5.13-0.4,4.43c-0.4-0.7,0.05-6.05-0.47-7.02c-0.52-0.96-1.37-0.79-1.61,1.41c-0.24,2.2,0.11,5.15,0.92,7.45
		c0.8,2.3,1.56,2.77,1.3,4.19c-0.26,1.41-0.67,2.28-1.4,4.5C201.75,235.8,203.09,236,204.41,236.18L204.41,236.18z"/>
	<path class="st7" d="M228.72,222.48c0,0-0.19,1.25-3.01,1.98c-2.82,0.73-4.68,0.51-4.68,0.51c-0.29,0.98-0.61,1.98-0.93,2.95
		c-0.48-0.57-1.09-0.79-1.7-0.41c0,0-0.8-4.37,0.04-7.1c0.84-2.73,4.62-4.62,7.07-3.54c2.45,1.09,2.49,1.66,2.49,1.66
		s4.37-0.22,5.25,3.99c0.88,4.21-1.16,6.45-1.16,6.45S228.35,224.5,228.72,222.48L228.72,222.48z"/>
	<path class="st22" d="M225.9,229.1c-0.18,1.14-0.38,2.26-0.56,3.39c0.3,0.13,0.61,0.24,0.91,0.34c-0.05,0.16-0.08,0.31-0.13,0.45
		c-0.37-0.12-0.73-0.26-1.1-0.4c-0.08-0.02-0.18-0.05-0.24-0.08c0-0.07,0.01-0.15,0.03-0.21c0.21-1.2,0.41-2.42,0.64-3.64
		C225.59,229.01,225.76,229.05,225.9,229.1L225.9,229.1z"/>
	<path class="st23" d="M227.6,228.34c0.39,0.03,0.72,0.41,0.76,0.85c0.01,0.42-0.26,0.78-0.68,0.74c-0.39-0.03-0.74-0.41-0.76-0.83
		C226.89,228.66,227.2,228.32,227.6,228.34L227.6,228.34z"/>
	<path class="st22" d="M221.97,228.64c-0.09,0.08-0.23,0.09-0.29,0.02c-0.1-0.09-0.13-0.22-0.06-0.33c0.02,0,1.22-1.76,3.03,0.21
		c0.04,0.08,0.05,0.22-0.02,0.31c-0.09,0.06-0.23,0.05-0.31-0.05C222.92,227.25,221.97,228.63,221.97,228.64L221.97,228.64z"/>
	<path class="st22" d="M222.41,232.36c-0.01-0.11,0.02-0.23,0.16-0.23c0.13-0.02,0.22,0.07,0.26,0.18c0,0.01,0.59,2.65,3.57,2.3
		c0.11-0.02,0.22,0.07,0.26,0.19c0.03,0.11-0.06,0.23-0.16,0.25C223.14,235.44,222.41,232.38,222.41,232.36L222.41,232.36z"/>
	<path class="st4" d="M220.07,242.66c0,0-3.1-0.34-7,1.86c-3.92,2.22-6.11,4.92-8.59,4.78c-2.48-0.14,0.75-13.07,0.75-13.07
		s-5.8-1-5.83-0.69c-0.03,0.31-6.16,15.65-3.83,22.3c2.33,6.66,17.55-0.19,17.55-0.19s0.16,8.85,0.05,16.9
		c9.4,0.45,18.79,0.85,28.21,1.27c-0.17-2.04-0.25-3.5-0.17-3.68c0.08-0.18,0.58,1.31,1.29,3.74c3.05,0.13,6.13,0.27,9.22,0.41
		c-1.78-10.99-3.13-20.31-4.46-23.57c-1.33-3.26-11.85-9.12-13.74-9.77c-1.88-0.65-3.48,0-3.48,0s2.12,3.89-3.9,3.54
		C220.14,246.14,220.07,242.66,220.07,242.66L220.07,242.66z"/>
	<path class="st24" d="M240.46,255.76c0.32,5.08,0.67,10.16,1.02,15.23c-0.16,0-0.31-0.01-0.48-0.02
		c-0.33-5.07-0.67-10.13-1.02-15.23C240.15,255.77,240.29,255.76,240.46,255.76L240.46,255.76z"/>
	<path class="st6" d="M220.87,242.59c1.44,4.05,5.17,3.9,5.17,3.9s-1.83,3.74-3.82,3.84C220.24,250.43,215.86,241.24,220.87,242.59
		L220.87,242.59z"/>
	<path class="st6" d="M230.07,242.96c-1.04,3.66-4.13,3.52-4.13,3.52s3.4,4.04,5.41,4.37C233.36,251.19,235.03,242.24,230.07,242.96
		L230.07,242.96z"/>
	<path class="st8" d="M227.06,221.44c0,0.01-2.36,2.27-5.71,2.16c-0.03-0.16-0.04-0.33-0.05-0.49c3.16,0.1,5.41-2.05,5.41-2.05
		C226.8,221.2,226.92,221.33,227.06,221.44L227.06,221.44z"/>
	<path class="st8" d="M225.68,219.96c-0.02,0.01-2.38,1.32-4.77,1.52c-0.03-0.15-0.06-0.32-0.11-0.48c2.3-0.22,4.6-1.48,4.62-1.49
		C225.49,219.66,225.59,219.8,225.68,219.96L225.68,219.96z"/>
	<path class="st8" d="M229.73,221.41c0,0,1.12,2.85,2.77,4.86c0.13-0.07,0.22-0.18,0.33-0.29c-1.6-1.94-2.66-4.71-2.66-4.72
		C230.02,221.32,229.85,221.37,229.73,221.41L229.73,221.41z"/>
	<path class="st25" d="M122.98,298.72c0,0-1.79,1.97-1.59,4.74c0.2,2.77-0.78,3.11-0.94,6.21c-0.16,3.1-2.67,6.56,0.25,6.54
		c2.92-0.01,11.65-0.09,17.48-0.15c0,0,0.61-1.92-0.26-6.62c-0.87-4.7-2.04-5-1.53-7.04c0.51-2.04,0.52-5.75-1.47-5.46
		C132.94,297.24,126.95,298.14,122.98,298.72L122.98,298.72z"/>
	<path class="st12" d="M124.14,296.84c0,0-1.42-0.99-2.01,0.78c-0.59,1.76,1.39,3.62,2.04,3.11
		C124.82,300.22,124.14,296.84,124.14,296.84L124.14,296.84z"/>
	<path class="st12" d="M133.84,297.03c0,0,1.35-0.89,2.02,0.9c0.67,1.79-1.21,3.52-1.89,2.96
		C133.29,300.34,133.84,297.03,133.84,297.03L133.84,297.03z"/>
	<path class="st11" d="M127.16,306.85c0,0,0.01,3.68-0.32,4.74c-0.23,0.76-0.52,1.16-0.77,1.3c-0.11,0.06-0.36,0.36-0.36,0.36
		c2.49,3.21,9.06,0.6,8.38-0.05c0,0-1.56-1.02-1.91-4.17c-0.35-3.15-0.37-3.16-0.37-3.16C130.24,306.19,128.7,306.51,127.16,306.85
		L127.16,306.85z"/>
	<path class="st9" d="M126.38,312.6c-0.09,0.13-0.2,0.23-0.31,0.29c-0.11,0.06-0.36,0.36-0.36,0.36c2.49,3.21,9.06,0.6,8.38-0.05
		c0,0-0.26-0.18-0.63-0.62c-0.78,0.49-2.63,1.1-4.37,0.8C127.36,313.07,126.88,312.84,126.38,312.6L126.38,312.6z"/>
	<path class="st12" d="M127.16,306.85c0,0,0.01,0.8-0.03,1.76c1.6,0.75,3.56,0.61,4.98-0.11c-0.09-0.87-0.19-1.75-0.3-2.63
		C130.24,306.19,128.7,306.51,127.16,306.85L127.16,306.85z"/>
	<path class="st11" d="M152.51,300.2c0,0,0.25,5.53-0.6,6.11c-0.85,0.58-1.75,0.69-1.75,0.69c3.63,3.85,8.01,2.5,10.43,0.38
		c0,0-1.87-0.24-2.15-1.8c-0.28-1.56-0.4-4.83-0.4-4.83C156.19,300.56,154.35,300.39,152.51,300.2L152.51,300.2z"/>
	<path class="st12" d="M152.51,300.2c0,0,0.07,1.49,0.01,3.02c1.8,1.13,3.98,0.88,5.65-0.37c-0.11-1.14,0.79-2.03-0.13-2.12
		C157.11,300.65,154.35,300.39,152.51,300.2L152.51,300.2z"/>
	<path class="st12" d="M149.21,291.37c0,0-0.89-0.96-1.64,0.19c-0.74,1.15,0.18,3.57,1.27,3.7
		C149.94,295.38,149.21,291.37,149.21,291.37L149.21,291.37z"/>
	<path class="st12" d="M160.29,291.62c0,0,0.81-0.92,1.63,0.25c0.82,1.17,0.11,3.55-0.99,3.63
		C159.83,295.59,160.29,291.62,160.29,291.62L160.29,291.62z"/>
	<path class="st11" d="M148.92,286.14c0,0-0.34,4.39,0.33,9.36c1.33,9.85,10.61,7.97,11.32,1.07c0.49-4.8,1.21-11.05-0.17-11.71
		C159.01,284.21,149.21,283.95,148.92,286.14L148.92,286.14z"/>
	<path class="st26" d="M152.5,290.4c0.29,0.02,0.57,0.37,0.59,0.82c0.02,0.45-0.22,0.82-0.53,0.82c-0.31-0.01-0.54-0.39-0.55-0.83
		C152,290.76,152.21,290.38,152.5,290.4L152.5,290.4z"/>
	<path class="st26" d="M157.22,290.53c0.3,0.01,0.57,0.39,0.59,0.84c0.02,0.45-0.22,0.8-0.51,0.79c-0.29-0.01-0.56-0.37-0.57-0.82
		C156.72,290.89,156.92,290.53,157.22,290.53L157.22,290.53z"/>
	<path class="st27" d="M151.46,290.19c-0.16,0.14-0.34,0.11-0.46-0.03c-0.14-0.16-0.14-0.37,0.01-0.5c0,0,1.21-1.22,2.65-0.06
		c0.14,0.12,0.19,0.34,0.07,0.48c-0.09,0.16-0.28,0.18-0.46,0.06C152.28,289.35,151.46,290.19,151.46,290.19L151.46,290.19z"/>
	<path class="st27" d="M158.38,290.36c0.14,0.13,0.37,0.12,0.44-0.01c0.13-0.14,0.11-0.36-0.03-0.5c-0.02,0-1.29-1.27-2.65-0.19
		c-0.13,0.11-0.17,0.34-0.05,0.48c0.11,0.16,0.32,0.2,0.45,0.08C157.48,289.48,158.38,290.36,158.38,290.36L158.38,290.36z"/>
	<path class="st28" d="M154.95,292.15c0,0,0.19,0.93-0.41,1.81c-0.28,0.4-0.49,0.77-0.51,1.09c0,0.28,0.19,0.53,0.72,0.7
		c-0.05,0.09-0.05,0.17-0.08,0.25c-0.65-0.2-0.9-0.56-0.89-0.98c0.03-0.38,0.24-0.81,0.54-1.24c0.53-0.79,0.38-1.61,0.38-1.61
		C154.78,292.16,154.86,292.15,154.95,292.15L154.95,292.15z"/>
	<path class="st9" d="M152.96,297.53c1.13-0.09,5.05-1.41,4.4-0.45C155,300.59,152.35,297.58,152.96,297.53L152.96,297.53z"/>
	<path class="st4" d="M148.9,292.02c0,0-1.66-1.52-1.76-3.96c-0.1-2.44,0.93-3.36,0.93-3.36c2.57-6.89,12.86-3.3,13.01-0.2
		c0,0,0.38-0.33,0.71,2.83c0.33,3.17-0.72,3.96-0.72,3.96c-0.27-1.24-0.52-2.5-0.77-3.76c-2.74-1.4-8.95-1.95-11.07,0.19
		C149.11,289.15,149.01,290.6,148.9,292.02L148.9,292.02z"/>
	<path class="st6" d="M150.14,306.71c0,0-0.78,0.75-2.8,1.08c-2.02,0.32-5.16,1.7-6.19,3.86c-1.03,2.16-2.9,5.44-2.9,5.44
		c0.5,6.52,1.02,13.01,1.59,19.49c-0.07-2.35-0.12-4.69-0.17-7.05c0,0,3.63-4.25,4.41-5.14c0.78-0.89,0.72,6.36,0.78,13.14
		c9.53,0.17,19.05,0.33,28.6,0.47c-0.58-6.54-1.01-11.33-1.56-15.93c-0.55-4.59-2.14-8.24-4.53-10.72
		c-2.39-2.48-6.57-4.15-6.57-4.15s-3.48,1.78-5.48,1.88C153.31,309.19,150.14,306.71,150.14,306.71L150.14,306.71z"/>
	<path class="st11" d="M123.69,293.32c0,0-0.51,4.88,0.18,8.84c1.37,7.75,9.1,7.1,10.15,0.78c0.46-2.85,0.63-6.61,0.47-8.61
		C134.3,291.69,127.03,288.62,123.69,293.32L123.69,293.32z"/>
	<path class="st26" d="M126.46,297.12c0.3,0.01,0.54,0.4,0.57,0.86c0.03,0.46-0.22,0.83-0.53,0.82c-0.31-0.01-0.55-0.39-0.57-0.85
		C125.9,297.49,126.16,297.12,126.46,297.12L126.46,297.12z"/>
	<path class="st28" d="M128.64,297.86c0,0.01-0.73,3.68-0.24,4.21c0.47,0.53,0.79,0.34,0.79,0.34c0.04,0.08,0.07,0.14,0.13,0.21
		c-0.02,0-0.5,0.29-1.1-0.36c-0.56-0.65,0.21-4.45,0.21-4.45C128.47,297.82,128.56,297.84,128.64,297.86L128.64,297.86z"/>
	<path class="st28" d="M126.62,303.4c-0.1-0.09-0.13-0.25-0.06-0.37c0.11-0.1,0.24-0.12,0.36-0.03c0,0,1.51,1.4,3.59,0.26
		c0.11-0.05,0.25,0,0.32,0.13c0.05,0.13,0.04,0.29-0.09,0.35C128.38,305.02,126.62,303.41,126.62,303.4L126.62,303.4z"/>
	<path class="st28" d="M125.16,295.98c-0.07,0.06-0.19,0.01-0.25-0.08c-0.06-0.1-0.05-0.22,0.06-0.29c0,0,1.48-1.01,2.37,0.36
		c0.06,0.11,0.05,0.25-0.04,0.31c-0.09,0.06-0.21,0.03-0.27-0.07C126.36,295.15,125.18,295.97,125.16,295.98L125.16,295.98z"/>
	<path class="st28" d="M132.25,296.13c0.1,0.05,0.21,0.04,0.25-0.07c0.07-0.1,0.04-0.23-0.06-0.3c-0.02,0-1.57-1.08-2.35,0.27
		c-0.09,0.09-0.04,0.23,0.04,0.3c0.1,0.06,0.2,0.04,0.27-0.05C131.02,295.27,132.25,296.13,132.25,296.13L132.25,296.13z"/>
	<path class="st29" d="M111.32,336.89c-0.32-6.67,5.13-16.24,6.88-19.39c1.75-3.14,7.58-4.61,7.58-4.61s3.29,2.31,5.81,1.24
		c2.52-1.07,2.58-1.19,2.58-1.19s5.49,1.84,7.01,4.43c1.52,2.6,2.11,9.86,2.18,11.34c0.07,1.47,0.27,5.88,0.43,8.8
		c-7.4-0.14-14.81-0.28-22.21-0.42c-0.03-0.23-0.05-0.36,0-1c0.05-0.64,0.12-1.55,0.13-2.18c-0.31-2.84-0.58-5.3-1.13-5.5
		c-0.55-0.2-2.09,4.52-2.56,7.35c0.16,0.17,0.31,0.42,0.2,0.68c-0.1,0.26-0.09,0.45-0.06,0.61
		C115.87,336.98,113.58,336.94,111.32,336.89L111.32,336.89z"/>
	<path class="st25" d="M128.9,291.42c0.16,0.38,0.59,1.34,2.74,2.6c2.15,1.26,2.78,5.35,2.78,5.35s1.8-0.22,1.78-2.27
		c-0.04-3.59-1.28-7.86-5.06-8.96c-3.41-1-4.3,0.51-4.3,0.51c-4.51-0.16-4.86,4.37-4.16,7.92c0.12,0.6,0.81,0.62,0.81,0.62
		C123.98,293.35,125.76,291.99,128.9,291.42L128.9,291.42z"/>
	<path class="st30" d="M156.6,296.12c0,0,1.34-0.44,1.8,1.17c-0.06,0.02-0.15,0.04-0.23,0.05c-0.39-1.35-1.5-0.99-1.5-0.99
		C156.65,296.28,156.61,296.21,156.6,296.12L156.6,296.12z"/>
	<path class="st24" d="M123.23,302.64c0,0-0.89,1.74-0.33,4.34c0.59,2.68-0.72,5.84-0.71,5.86c-0.1-0.03-0.18-0.08-0.24-0.11
		c0-0.01,1.31-3.11,0.76-5.7c-0.61-2.69,0.3-4.52,0.3-4.52C123.1,302.55,123.15,302.59,123.23,302.64L123.23,302.64z"/>
	<path class="st24" d="M124.22,305.36c0,0.01-0.19,1.22,0.15,3.06c0.39,1.91-0.24,3.56-0.24,3.56c-0.08-0.02-0.16-0.05-0.22-0.1
		c0-0.01,0.63-1.6,0.25-3.42c-0.37-1.88-0.17-3.14-0.17-3.14C124.05,305.33,124.14,305.35,124.22,305.36L124.22,305.36z"/>
	<path class="st24" d="M134.92,302.86c0,0,1.01,1.77,0.63,4.33c-0.39,2.66,1.17,5.83,1.19,5.84c0.06-0.02,0.13-0.06,0.21-0.09
		c0-0.01-1.54-3.12-1.16-5.71c0.38-2.64-0.66-4.48-0.68-4.5C135.03,302.78,134.99,302.82,134.92,302.86L134.92,302.86z"/>
	<path class="st24" d="M134.14,305.55c0,0,0.29,1.21,0.07,3.02c-0.25,1.88,0.53,3.54,0.55,3.56c0.04-0.02,0.11-0.06,0.17-0.1
		c0-0.01-0.72-1.6-0.5-3.42c0.25-1.87-0.06-3.12-0.06-3.12C134.29,305.52,134.22,305.53,134.14,305.55L134.14,305.55z"/>
	<path class="st26" d="M131.18,297.24c0.31,0.01,0.6,0.37,0.61,0.84c0.01,0.47-0.22,0.84-0.54,0.83c-0.31-0.01-0.58-0.39-0.59-0.85
		C130.65,297.6,130.86,297.23,131.18,297.24L131.18,297.24z"/>
	<path class="st31" d="M166.37,337.9c-0.26-6.11-1.02-21.12-2.52-22.95c0.07-0.06,0.13-0.14,0.2-0.22
		c1.58,1.92,2.36,17.03,2.63,23.17C166.58,337.9,166.47,337.89,166.37,337.9L166.37,337.9z"/>
	<path class="st31" d="M144.94,315.02c-0.13,2.96-0.29,5.92-0.45,8.89c-0.08-0.01-0.19,0-0.29-0.02c0.16-2.97,0.3-5.94,0.45-8.9
		C144.75,315,144.83,315.02,144.94,315.02L144.94,315.02z"/>
	<path class="st11" d="M118.51,314.37c2.01-1.36,4.27-2.08,4.41,1.61c0.07,1.83,0.06,2.29-0.74,2.31c-0.79,0.02-0.5-0.3-1.46,1.52
		c-0.95,1.82-1.25,2.04-2.4,0.99C116.79,319.39,116.5,315.73,118.51,314.37L118.51,314.37z"/>
	<path class="st31" d="M150.07,307.71c0.02,0.01,4.51,4.76,10.63,0.15c0.04,0.06,0.08,0.11,0.15,0.19
		c-6.27,4.75-10.92-0.15-10.96-0.17C149.94,307.82,150,307.77,150.07,307.71L150.07,307.71z"/>
	<path class="st13" d="M119.68,320.85c0-0.01-2.11-1.15-2.1-3.53c0.08,0.01,0.15,0.01,0.23,0.01c0,2.21,1.96,3.31,1.96,3.31
		C119.73,320.7,119.71,320.78,119.68,320.85L119.68,320.85z M121.25,318.81c0,0-1.35-0.99-1.47-2.26c-0.11-1.21,0.22-2.3,0.22-2.3
		c0.06,0.03,0.14,0.06,0.22,0.1c0,0-0.3,1.04-0.19,2.21c0.11,1.13,1.34,2.04,1.34,2.05C121.35,318.67,121.3,318.73,121.25,318.81
		L121.25,318.81z M121.39,314.66c0.02,0,0.67,2.45,0.32,3.34c-0.08-0.03-0.14-0.08-0.2-0.11c0.32-0.79-0.33-3.18-0.33-3.19
		C121.24,314.69,121.32,314.69,121.39,314.66L121.39,314.66z M120.33,319.93c-0.02,0-1.35-0.98-1.47-2.23
		c-0.13-1.23,0.22-2.31,0.22-2.31c0.06,0.02,0.14,0.05,0.22,0.08c0,0-0.32,1.04-0.21,2.21c0.11,1.13,1.34,2.06,1.34,2.06
		C120.4,319.8,120.37,319.86,120.33,319.93L120.33,319.93z"/>
	<path class="st32" d="M120.66,322.06c0,0.01,0.66,4.08-0.1,5.79c-0.06-0.03-0.14-0.08-0.2-0.12c0.73-1.63,0.06-5.63,0.07-5.64
		C120.51,322.08,120.58,322.07,120.66,322.06L120.66,322.06z M125.21,313.26c0,0,1.31,2.2,4.84,2.09c3.51-0.12,4.86-1.96,4.86-1.97
		c0.08,0.06,0.14,0.1,0.2,0.16c-0.02,0.01-1.42,1.93-5.05,2.07c-3.65,0.12-5.02-2.21-5.04-2.22
		C125.08,313.34,125.14,313.31,125.21,313.26L125.21,313.26z M120.93,327.34c0.02-0.01,1.76-2.61,1.87-5.55
		c0.06,0,0.14,0.01,0.23,0.01c-0.1,3.04-1.9,5.68-1.9,5.68C121.05,327.45,120.99,327.39,120.93,327.34L120.93,327.34z
		 M138.59,322.64c0.32,2.08,0.64,4.16,0.98,6.22c-0.08,0.02-0.15,0.03-0.21,0.03c-0.34-2.07-0.68-4.13-1-6.21
		C138.45,322.67,138.51,322.65,138.59,322.64L138.59,322.64z M137.59,326.49c0,0-4.15,2.32-11.28,1.42
		c0.01-0.08,0.01-0.16,0.02-0.26c7.06,0.9,11.13-1.39,11.15-1.39C137.49,326.35,137.53,326.42,137.59,326.49L137.59,326.49z"/>
	<path class="st31" d="M161.59,328.2c-0.04,0.02-8.79,5.28-10.94,9.43c-0.08-0.01-0.17-0.01-0.21,0c2.1-4.3,11-9.64,11.02-9.66
		C161.51,328.06,161.55,328.13,161.59,328.2L161.59,328.2z"/>
	<path class="st24" d="M132.83,293.46c0,0,1.65,0.22,2.06,3.37c-0.08,0.01-0.17,0.02-0.23,0.01c-0.37-2.93-1.85-3.14-1.87-3.13
		C132.77,293.63,132.8,293.54,132.83,293.46L132.83,293.46z M128.84,289.28c0-0.01,2.93-1.46,5.4,2.69
		c-0.07,0.06-0.13,0.1-0.19,0.12c-2.36-3.96-5.09-2.6-5.09-2.6C128.89,289.43,128.85,289.35,128.84,289.28L128.84,289.28z
		 M127.29,290.94c-0.02,0-3.24-0.43-3.57,3.6c-0.08,0.01-0.17-0.01-0.25-0.03c0.37-4.25,3.82-3.81,3.82-3.81
		C127.28,290.79,127.27,290.87,127.29,290.94L127.29,290.94z"/>
	<path class="st24" d="M149.08,285.55c0.02-0.01,4.78-3.52,9.8-1.14c-0.03,0.08-0.05,0.16-0.08,0.25c-4.9-2.33-9.57,1.09-9.57,1.09
		C149.17,285.68,149.14,285.62,149.08,285.55L149.08,285.55z M149.01,283.85c0.11-0.06,4.86-3.5,9.88-1.11
		c0.02,0.03,0.06,0.04,0.1,0.05c-0.05,0.16-0.08,0.32-0.16,0.45c-0.04-0.02-0.08-0.03-0.12-0.05c-4.78-2.29-9.36,1.02-9.44,1.09
		c-0.04,0.02-0.09,0.05-0.11,0.06c-0.12-0.14-0.17-0.28-0.26-0.42C148.92,283.92,148.96,283.89,149.01,283.85L149.01,283.85z
		 M158.57,282.86c-0.04-0.02-0.12-0.03-0.16-0.06C158.45,282.83,158.53,282.85,158.57,282.86L158.57,282.86z M158.33,282.77
		c-4.38-1.79-8.45,0.78-9.1,1.24C149.9,283.55,153.95,280.98,158.33,282.77L158.33,282.77z"/>
	<path class="st33" d="M76.34,207.02c4.62,0.38,8.45,5.07,8.59,10.46c0.1,5.41-3.57,9.52-8.2,9.18c-4.64-0.36-8.45-5.06-8.54-10.5
		C68.07,210.73,71.72,206.64,76.34,207.02L76.34,207.02z"/>
	<path class="st33" d="M76.85,234.83c4.64,0.33,8.45,4.96,8.53,10.37c0.05,5.39-3.64,9.55-8.31,9.26
		c-4.65-0.29-8.46-4.95-8.51-10.38C68.51,238.64,72.21,234.51,76.85,234.83L76.85,234.83z"/>
	<path class="st34" d="M77.16,262.77c4.66,0.27,8.48,4.85,8.56,10.25c0.07,5.41-3.69,9.6-8.35,9.37c-4.69-0.24-8.48-4.84-8.54-10.29
		C68.78,266.66,72.5,262.5,77.16,262.77L77.16,262.77z"/>
	<path class="st9" d="M73.33,239.53c2.86,0.2,5.72,0.4,8.6,0.58c0,0.31,0.02,0.61,0.02,0.91c-2.86-0.19-5.74-0.39-8.6-0.58
		C73.35,240.14,73.33,239.85,73.33,239.53L73.33,239.53z M72.9,248.35c-0.31-0.01-0.62-0.03-0.91-0.05c0,0.3,0,0.6,0,0.89
		c0.29,0.02,0.6,0.05,0.91,0.06C72.9,248.95,72.9,248.66,72.9,248.35L72.9,248.35z M72.88,246.14c-0.31-0.02-0.62-0.04-0.91-0.06
		c0,0.31,0,0.61,0,0.91c0.29,0.02,0.6,0.04,0.91,0.06C72.88,246.75,72.88,246.45,72.88,246.14L72.88,246.14z M72.86,243.92
		c-0.31-0.02-0.62-0.04-0.91-0.06c0,0.31,0,0.61,0,0.91c0.29,0.02,0.6,0.04,0.91,0.06C72.87,244.53,72.87,244.23,72.86,243.92
		L72.86,243.92z M72.83,241.69c-0.31-0.01-0.62-0.04-0.91-0.06c0.02,0.31,0.02,0.62,0.02,0.92c0.29,0.02,0.6,0.05,0.91,0.06
		C72.85,242.32,72.85,242.01,72.83,241.69L72.83,241.69z M72.81,239.5c-0.31-0.02-0.62-0.04-0.91-0.06c0,0.31,0.02,0.61,0.02,0.91
		c0.29,0.02,0.6,0.04,0.91,0.06C72.83,240.11,72.81,239.81,72.81,239.5L72.81,239.5z M73.42,248.39c2.86,0.19,5.74,0.37,8.63,0.55
		c0,0.31,0,0.61,0,0.91c-2.88-0.17-5.76-0.37-8.63-0.55C73.42,249,73.42,248.7,73.42,248.39L73.42,248.39z M73.4,246.17
		c2.86,0.19,5.74,0.39,8.63,0.56c0,0.31,0,0.61,0,0.91c-2.88-0.19-5.77-0.37-8.63-0.56C73.4,246.78,73.4,246.48,73.4,246.17
		L73.4,246.17z M73.38,243.95c2.86,0.2,5.74,0.4,8.62,0.57c0,0.31,0,0.61,0,0.91c-2.88-0.19-5.76-0.39-8.62-0.57
		C73.38,244.56,73.38,244.26,73.38,243.95L73.38,243.95z M73.34,241.74c2.86,0.19,5.74,0.39,8.6,0.57c0.02,0.31,0.02,0.62,0.02,0.92
		c-2.86-0.19-5.74-0.39-8.6-0.57C73.36,242.37,73.36,242.05,73.34,241.74L73.34,241.74z"/>
	<path class="st35" d="M71.85,269.34c1.27,0.07,2.55,0.15,3.82,0.22c0-0.28,0-0.57-0.01-0.85c-1.26-0.07-2.55-0.15-3.82-0.22
		c0-0.3,0-0.6,0-0.89c1.51,0.08,3.03,0.18,4.54,0.27c0.01,0.14,0,0.27,0.01,0.41c0.01,0.16,0.02,0.33,0.01,0.47
		c0,0.28,0,0.57,0.01,0.85c0.64,0.04,1.31,0.08,1.97,0.11c0.01,1.96,0.05,3.92,0.07,5.85c-2.2-0.12-4.36-0.23-6.54-0.36
		C71.9,273.26,71.86,271.3,71.85,269.34L71.85,269.34z M82.61,268.2c-1.24,0.52-2.5,1.03-3.73,1.55c0.01,1.95,0.05,3.9,0.07,5.85
		c1.25,0.64,2.5,1.29,3.76,1.92C82.67,274.43,82.63,271.31,82.61,268.2L82.61,268.2z"/>
	<path class="st33" d="M77.45,290.69c4.68,0.22,8.53,4.75,8.63,10.16c0.1,5.39-3.65,9.65-8.34,9.48c-4.69-0.18-8.53-4.76-8.62-10.2
		C69.04,294.68,72.77,290.47,77.45,290.69L77.45,290.69z"/>
	<path class="st9" d="M77.27,293.79c1.22,0.06,2.25,1.97,2.28,3.56c0.03,1.59-0.39,2.34-1.03,2.92c1.45,0.39,3.72,1.12,3.89,1.9
		c0.09,0.45,0,1.85-0.08,3.42c-3.24-0.13-6.48-0.26-9.72-0.4c-0.19-1.57-0.28-3-0.23-3.44c0.16-0.77,2.42-1.32,3.83-1.58
		c-0.64-0.65-1.06-1.43-1.09-3.02C75.09,295.56,76.04,293.73,77.27,293.79L77.27,293.79z M81.13,300.06
		c-0.01-0.46-0.02-0.92-0.01-1.38c-0.39-0.01-0.77-0.04-1.16-0.05c-0.01-0.19-0.02-0.38-0.02-0.57c0.39,0.01,0.77,0.04,1.16,0.05
		c0.01-0.43,0-0.89-0.01-1.35c0.17,0,0.33,0.01,0.52,0.02c0.01,0.45,0.02,0.91,0.01,1.35c0.39,0.03,0.79,0.04,1.18,0.05
		c0.01,0.19,0.02,0.38,0.02,0.57c-0.39-0.01-0.79-0.04-1.18-0.05c-0.01,0.46,0,0.91,0.01,1.37
		C81.47,300.07,81.3,300.06,81.13,300.06L81.13,300.06z"/>
	<path class="st35" d="M73.71,209.57c1.78,0.14,3.56,0.29,5.36,0.43c0.29,0.02,0.59,0.36,0.6,0.74c0.08,4.23,0.17,8.47,0.25,12.7
		c0.01,0.39-0.25,0.66-0.56,0.64c-1.78-0.14-3.58-0.26-5.37-0.4c-0.31-0.02-0.59-0.34-0.6-0.73c-0.06-4.26-0.17-8.5-0.25-12.74
		C73.14,209.84,73.38,209.55,73.71,209.57L73.71,209.57z M76.64,222.38c0.24,0.02,0.43,0.24,0.44,0.52s-0.19,0.46-0.43,0.45
		c-0.24-0.02-0.39-0.23-0.4-0.5C76.24,222.57,76.4,222.37,76.64,222.38L76.64,222.38z M74.01,211.42c1.62,0.13,3.21,0.25,4.85,0.4
		c0.08,3.48,0.16,6.95,0.19,10.44c-1.62-0.13-3.23-0.25-4.83-0.37C74.16,218.4,74.08,214.92,74.01,211.42L74.01,211.42z"/>
	<path class="st5" d="M244.13,312.41c0,0-4.86,1.1-8.48,1.54c-6.7,0.81-7.95,16.33-8,24.84c12.13,0.15,24.26,0.3,36.39,0.46
		c-0.16-7.28-0.08-14.13-1.45-19.4c-1.36-5.27-9.42-5.03-12.78-7.28C246.47,310.3,244.13,312.41,244.13,312.41L244.13,312.41z"/>
	<path class="st36" d="M242,313.72c0,0,0.83,3.19,2.79,4.01c1.96,0.82,2.51-0.76,2.51-0.76s0.72,1.04,2.11,1.07
		c1.39,0.03,2.23-1.89,2.65-3.81C252.49,312.31,242.78,312.05,242,313.72L242,313.72z"/>
	<path class="st36" d="M244.13,312.41c0,0-4.86,1.1-8.48,1.54c-2.14,0.26-3.74,2-4.89,4.57c3.24-3.63,8.06-4.72,13.02-4.14
		c1.65-0.07,3.26-0.14,4.91-0.2c0,0,2.67,0.83,6.71,1.44c4.04,0.61,5.24,1.68,6.63,2.65c-2.47-5.06-8.99-3.55-12.22-5.71
		C246.6,310.4,244.13,312.41,244.13,312.41L244.13,312.41z"/>
	<path class="st37" d="M247.58,288.66c-0.3-0.14-3.16-1.42-5.84,0.46c-1.44,1.01-2.53,2.16-3.29,3.69
		c-0.66,1.33-1.06,2.96-1.27,5.05c-0.04,0.35-0.07,0.67-0.09,1.01c-1.09,4.1-1.93,10.47,3.02,11.73c1.19,0.58,2.75,0.94,4.65,1.42
		c1.08-6.74,2.17-13.45,3.27-20.15c0.52,0.59,3.64,3.58,3.79,7.66c0.15,4.08-2.86,7.88-2.86,7.88c0.15,1.42,0.09,2.89,0.55,4.27
		c0.39,1.17,8.53,0.12,6.23-10.22c-0.89-4.19-2.17-9.78-4.51-11.65C248.89,287.94,247.79,288.55,247.58,288.66L247.58,288.66z
		 M236.98,300.15c-0.42,5.92,0.25,8.44,2.07,9.81C235.91,308.3,236.17,303.74,236.98,300.15L236.98,300.15z"/>
	<path class="st11" d="M244.62,306.71c0,0-0.14,5.49-1.14,6.45c-0.98,0.97,3.09,1.7,5.22,1.01c2.13-0.69,1.91-1.07,1.91-1.07
		s-1.19-1.28-1.52-6.27c0-0.01,0-0.04,0-0.05c-2.09,0.99-3.53,0.48-4.43-0.15C244.66,306.66,244.64,306.69,244.62,306.71
		L244.62,306.71z"/>
	<path class="st12" d="M244.62,306.71c0,0-0.04,1.2-0.17,2.55c1.75,1.47,3.58,0.98,4.91,0.09c-0.12-0.7-0.23-1.53-0.27-2.51
		c0-0.01,0-0.04,0-0.05c-2.09,0.99-3.53,0.48-4.43-0.15C244.66,306.66,244.64,306.69,244.62,306.71L244.62,306.71z"/>
	<path class="st36" d="M257.12,339.14c-0.16-4.09-0.43-7.51-0.43-7.51s-4-0.76-6.39-0.09c-2.39,0.67-5.05,0.78-7.86-0.12
		c-2.81-0.9-7.43-0.13-7.43-0.13s-0.88,5.42-1.05,7.32c-0.17,1.91-0.01,0.16,0,0.24C241.68,338.96,249.4,339.05,257.12,339.14
		L257.12,339.14z"/>
	<path class="st12" d="M200.85,295.52c0,0-1.5-1.06-2.05,0.73c-0.55,1.79,2.22,4.71,2.17,3.01
		C200.92,297.57,200.85,295.52,200.85,295.52L200.85,295.52z"/>
	<path class="st12" d="M211.92,295.92c0,0,1.46-0.93,2.13,0.88c0.67,1.82-1.94,4.54-2,2.85
		C211.98,297.95,211.92,295.92,211.92,295.92L211.92,295.92z"/>
	<path class="st11" d="M203.58,304.11c0,0,0.43,3.76-0.5,6.6c-0.94,2.84-1.02,2.75-1.02,2.75s1.91,2.26,5.24,1.67
		c3.33-0.6,3.88-1.97,3.88-1.97s-1.41-1.86-1.77-4.31c-0.37-2.45,0.63-4.54-0.3-4.57C208.19,304.25,205.41,304.17,203.58,304.11
		L203.58,304.11z"/>
	<path class="st12" d="M203.58,304.11c0,0,0.18,1.68,0.03,3.6c1.77,1.25,3.99,1.3,5.71,0.53c-0.29-2.16,0.71-3.94-0.21-3.97
		C208.19,304.25,205.41,304.17,203.58,304.11L203.58,304.11z"/>
	<path class="st37" d="M209.28,285.3c0,0-3.77-2.46-7.17-0.46c-3.4,1.99-3.72,6.76-3.47,8.67c0.25,1.9,0.11,5.87,2.05,5.99
		c1.95,0.12,7.78,0.46,11.7,0.68c0,0,0.96-2.04,1-6.57C213.43,289.07,212.67,285.11,209.28,285.3L209.28,285.3z"/>
	<path class="st11" d="M201.35,301.93c1.95,5.56,8.54,4.8,10.08,1.49c1.37-2.95,1.77-9.78-0.08-12.74c-0.4-0.64-2.44-2.09-2.44-2.09
		c-1.91,1.18-5.59,1.98-7.78,2.11c-0.04,0.01-0.09,0.02-0.11,0.03C200.33,295.11,199.74,297.35,201.35,301.93L201.35,301.93z"/>
	<path class="st4" d="M208.59,294.09c-0.26-0.01-0.47,0.48-0.45,1.09c0.02,0.62,0.27,1.11,0.53,1.12c0.26,0.01,0.44-0.47,0.43-1.08
		C209.08,294.6,208.85,294.1,208.59,294.09L208.59,294.09z"/>
	<path class="st4" d="M203.72,293.91c-0.27-0.01-0.47,0.48-0.45,1.09c0.02,0.62,0.27,1.12,0.53,1.13c0.26,0.01,0.44-0.48,0.43-1.1
		C204.22,294.42,203.99,293.92,203.72,293.91L203.72,293.91z"/>
	<path class="st37" d="M210.54,292.86c0,0-1.93-1.94-3.44,0.03c0.16,0.16,0.33,0.32,0.51,0.48c1.09-1.42,2.52,0,2.52,0
		C210.25,293.2,210.39,293.03,210.54,292.86L210.54,292.86z"/>
	<path class="st37" d="M205.25,292.86c0,0-1.93-1.95-3.42,0.02c0.13,0.16,0.31,0.32,0.49,0.48c1.1-1.42,2.5,0.01,2.5,0.01
		C204.98,293.21,205.09,293.02,205.25,292.86L205.25,292.86z"/>
	<path class="st38" d="M206.15,294.93c0,0.01,1.45,4.13,0.93,4.51c-0.59,0.44-1.82,0.18-1.82,0.18c-0.01,0.13-0.04,0.26-0.04,0.38
		c0.02,0,1.38,0.28,2.08-0.22c0.72-0.55-0.81-4.97-0.83-4.98C206.35,294.85,206.24,294.9,206.15,294.93L206.15,294.93z"/>
	<path class="st38" d="M208.18,301.63c0,0.01-1.52,1.5-3.58-0.08c-0.12,0.15-0.21,0.31-0.3,0.45c2.44,1.85,4.24,0.07,4.24,0.07
		C208.41,301.93,208.28,301.79,208.18,301.63L208.18,301.63z"/>
	<path class="st39" d="M202.92,311.23c0.63,3.33,8.18,1.96,6.96-0.62c0,0,6.45,2.07,11.6,4.96c5.15,2.89,4.34,9.66,5.03,11.39
		c0.69,1.73,1.32,8.51,1.64,11.83c-13.36-0.17-26.72-0.36-40.07-0.56c0.49-3.95,2.35-18.26,3.81-20.69
		C193.33,315.09,197.93,312.01,202.92,311.23L202.92,311.23z"/>
	<path class="st40" d="M220.21,319.41c0,0,0.83,2.73,2.81,7.42c1.99,4.7,2.06,8.01-0.9,8.16c-2.96,0.15-5.46,1.22-5.57-1.46
		c-0.1-2.67-1.49-14.03-0.77-14.05C216.51,319.48,218.73,319.45,220.21,319.41L220.21,319.41z"/>
	<path class="st40" d="M202.92,311.23c0.14,0.94,0.86,1.49,1.76,1.76c-0.58,0,0.32-0.13-1.63,0.08c-1.95,0.22-7.88,2.58-11.17,4.49
		c0-0.01-0.79,1.28,0-0.04C192.67,316.21,197.93,312.01,202.92,311.23L202.92,311.23z M207.31,313.11c1.71-0.3,3.15-1.26,2.56-2.5
		c0,0,8.3,3.1,11.6,4.96c3.3,1.87,2.45,1.92,3.08,3.14C222.2,316.2,213.75,313.66,207.31,313.11L207.31,313.11z"/>
	<path class="st40" d="M194.04,328.09c0.43,1.98,0.45,2.02,0.45,2.02c-0.1,1.23-0.21,2.46-0.33,3.69c0.39,0.03,0.79,0.04,1.19,0.04
		c0.06-1.46,0.15-2.94,0.23-4.41c0,0-0.56-2.68-0.67-5.24c-0.11-2.57-0.18-4.8-0.18-4.8C194.06,321.9,193.48,325.52,194.04,328.09
		L194.04,328.09z"/>
	<path class="st40" d="M216.15,338.62c0.3-2.01,0.52-4.26,1.82-5.34c1.3-1.08,6.53-0.51,7.27,1.5c0.74,2.01,1.33,2.79,2.13,4
		C223.62,338.73,219.88,338.68,216.15,338.62L216.15,338.62z"/>
	<path class="st20" d="M202.92,311.23c0.63,3.33,8.18,1.96,6.96-0.62c0,0,0.41,0.13,1.12,0.4c-0.24,1.37-1.3,3.27-4.33,3.43
		c-3.03,0.16-4.17-1.77-4.67-3.02C202.3,311.35,202.58,311.3,202.92,311.23L202.92,311.23z"/>
	<path class="st41" d="M200.37,323.76c0.02,0.03,0.07,9.13,3.74,14.7c-0.1-0.01-0.19-0.01-0.29-0.01c-3.64-5.68-3.7-14.7-3.72-14.71
		C200.18,323.76,200.26,323.75,200.37,323.76L200.37,323.76z M197.64,318.84c-0.02,0.04-3.06,9.63-1.66,19.49
		c-0.1,0.01-0.19,0-0.27,0c-0.43-2.95-0.44-5.89-0.26-8.57c-0.56-3.39-0.76-6.13-0.83-8.14c-0.09-2.74,0.13-4.15,0.13-4.16
		c0.08,0.03,0.16,0.04,0.25,0.06c0,0.01-0.55,3.86,0.54,11.12c0.51-5.69,1.83-9.89,1.83-9.91
		C197.43,318.78,197.53,318.82,197.64,318.84L197.64,318.84z M200.99,318.87c0,0.04,1.33,14.34,8.91,18.38
		c-0.05,0.09-0.07,0.17-0.12,0.25c-7.68-4.13-9.06-18.58-9.06-18.62C200.8,318.89,200.88,318.88,200.99,318.87L200.99,318.87z
		 M215.93,317.14c0,0.04,0.51,12-2.4,17.09c-0.1-0.06-0.18-0.11-0.24-0.16c2.88-5.01,2.38-16.89,2.36-16.93
		C215.74,317.15,215.82,317.15,215.93,317.14L215.93,317.14z"/>
	<path class="st11" d="M220.55,322.18c0,0,3.01,10.42,4.74,16.56c-2.06-0.01-4.08-0.05-6.14-0.09c-1.9-7.42-2.61-15.78-2.61-15.78
		s-0.28-3-1.16-4.08c-0.88-1.09-1.12-3.48-1.48-4.58c-0.36-1.09-0.41-2.57,0.33-2.42c0.74,0.16,0.85,1.44,1.13,2.35
		c0.28,0.9,0.27,0.96,0.39,0.93c0.13-0.03,0.32-1.69,0.19-4c-0.14-2.3-0.15-4.8,0.09-5.06c0.23-0.26,0.52-0.69,0.82,0.51
		c0.21,0.83,0.19,5.59,0.79,5.86c0.32,0.14-0.34-5.99,0.35-6.77c0.37-0.42,0.61-0.19,0.74,0.45c0.09,0.45,0.25,6.1,0.36,6.13
		c0.3,0.07,0.11-5.68,0.35-6.19c0.22-0.48,0.61-0.64,0.76,0.12c0.1,0.5,0.14,6.04,0.27,5.97c0.41-0.21,0.13-3.86,0.18-4.48
		c0.04-0.55-0.11-1.77,0.53-1.32c0.66,0.46,0.45,5.35,0.91,6.58c0.35,0.92,0.41,4.34-0.35,6.46
		C220.98,321.49,220.23,321.02,220.55,322.18L220.55,322.18z"/>
	<path class="st13" d="M216.55,315.33c0,0,2.73-1.29,4.49,0.72c-0.09,0.06-0.11,0.11-0.2,0.19c-1.65-1.84-4.17-0.64-4.19-0.64
		C216.62,315.51,216.56,315.44,216.55,315.33L216.55,315.33z"/>
	<path class="st11" d="M241,295.8c-0.17,2.17-0.68,5.78,2.04,9.87c4.99,7.52,14.81-4.94,5.04-13.94c-0.56,0.9-2.06,2.47-5.65,3.21
		C241.61,295.35,241.03,295.68,241,295.8L241,295.8z M247.69,291.97c-0.97,0.8-3,1.81-4.57,2.61
		C245.77,293.9,247.07,292.78,247.69,291.97L247.69,291.97z"/>
	<path class="st38" d="M246.34,297.47c0,0.01,0.28,3-0.29,3.76c-0.05,0.06-0.09,0.14-0.1,0.2c-0.03,0.11,0.01,0.19,0.07,0.26
		c0.08,0.1,0.2,0.19,0.34,0.27c0.24,0.12,0.53,0.2,0.78,0.21c0.01,0.12,0,0.24,0.02,0.37c-0.29-0.02-0.64-0.12-0.92-0.25
		c-0.2-0.11-0.36-0.21-0.48-0.37c-0.13-0.17-0.18-0.36-0.15-0.58c0.05-0.12,0.08-0.24,0.17-0.34c0.48-0.66,0.21-3.49,0.21-3.49
		C246.11,297.5,246.22,297.49,246.34,297.47L246.34,297.47z"/>
	<path class="st38" d="M244.91,303.35c0,0.01,1.32,2.09,3.09,0.16c0.06,0.08,0.16,0.17,0.25,0.27c-2.07,2.24-3.61-0.22-3.63-0.22
		C244.71,303.5,244.82,303.42,244.91,303.35L244.91,303.35z"/>
	<path class="st38" d="M242.18,297.75c0.02-0.01,1.56-1.86,2.96-0.04c-0.11,0.09-0.22,0.16-0.29,0.24c-1.11-1.49-2.4,0.05-2.4,0.06
		C242.35,297.94,242.28,297.86,242.18,297.75L242.18,297.75z"/>
	<path class="st38" d="M247.76,297.83c0,0,1.17-1.94,2.84,0.21c-0.09,0.09-0.2,0.16-0.25,0.23c-1.36-1.75-2.3-0.2-2.3-0.2
		C247.95,297.99,247.85,297.91,247.76,297.83L247.76,297.83z"/>
	<path class="st42" d="M242.2,295.54c0,0,1.25-0.96,2.96-0.02c-0.05,0.17-0.13,0.33-0.2,0.49c-1.45-0.77-2.44,0-2.46,0
		C242.39,295.85,242.32,295.71,242.2,295.54L242.2,295.54z"/>
	<path class="st42" d="M250.58,295.82c0,0-1.3-1.05-2.98-0.23c0.09,0.18,0.19,0.35,0.28,0.52c1.36-0.67,2.42,0.17,2.42,0.17
		C250.37,296.12,250.48,295.98,250.58,295.82L250.58,295.82z"/>
	<path class="st18" d="M238.02,315.98c0,0.01,0.69,5.2-1.17,11.16c-0.08-0.02-0.16-0.04-0.22-0.1c1.79-5.91,1.09-11.03,1.1-11.06
		C237.81,315.99,237.91,315.98,238.02,315.98L238.02,315.98z"/>
	<path class="st37" d="M257.04,339.14c0.04-8.42,0.72-16.71,0.72-16.71c-1.16,4.54-1.89,10.87-2.29,16.69
		C256,339.13,256.5,339.14,257.04,339.14L257.04,339.14z"/>
	<path class="st18" d="M255.66,318.12c-0.02,0.01-2.83,6.76-7.65,10.96c-0.06-0.06-0.11-0.14-0.17-0.21
		c4.78-4.17,7.54-10.84,7.56-10.87C255.48,318.05,255.58,318.09,255.66,318.12L255.66,318.12z M262.52,324.79
		c0.02,0.03,0.41,6.62-1.7,14.4c-0.1-0.01-0.21,0-0.29-0.01c2.17-7.77,1.76-14.37,1.74-14.4
		C262.35,324.79,262.44,324.8,262.52,324.79L262.52,324.79z M262.66,339.22c0.07-1.08,0.08-2.15-0.02-3.13
		c0.08,0.01,0.17,0,0.27-0.02c0.1,1.01,0.09,2.09,0,3.15C262.8,339.23,262.74,339.22,262.66,339.22L262.66,339.22z M240.2,318.57
		c0,0.03-0.3,8.5,4.33,11.52c-0.05,0.08-0.09,0.17-0.12,0.24c-4.81-3.1-4.5-11.74-4.5-11.77
		C239.99,318.57,240.09,318.57,240.2,318.57L240.2,318.57z M253.36,316.42c0,0.01-0.83,5.16-5.09,8.87
		c-0.06-0.07-0.12-0.13-0.17-0.21c4.18-3.68,5.02-8.72,5.02-8.73C253.17,316.38,253.26,316.39,253.36,316.42L253.36,316.42z"/>
	<path class="st11" d="M236.39,329.73c0.98-0.72,2.31-1.19,2.38-2.96c0.07-1.66,1.42-3.94,2.46-4.97c0.23-0.22-0.93-0.93-1.5-0.03
		c-0.57,0.9-1.29,2.14-1.69,1.85c-0.36-0.25,0.89-6.62,0.27-7.48c-0.33-0.46-0.67-0.52-0.96,1.01c-0.02,0.11-0.41,5.79-0.72,5.44
		c-0.37-0.42,0.15-5.21-0.27-6.49c-0.25-0.76-0.78-0.59-0.91,0.2c-0.11,0.67-0.22,6.08-0.27,6.13c-0.56,0.57-0.15-6.84-0.79-6.86
		c-0.4-0.01-0.69,0.24-0.62,2.02c0.08,1.78,0.35,5.15-0.12,4.54c-0.47-0.61-0.54-3.98-0.91-5.08c-0.39-1.18-0.95-0.31-0.88,0.38
		c0.18,1.66,0.55,3.88,0.57,5.42c0.01,0.8-0.28,1.81-0.21,3.75c0.07,1.94,0.58,1.76,0.36,2.12c-0.22,0.36-3.98,6.86-5.84,10.05
		c1.54,0.03,3.08,0.05,4.6,0.07C233.17,335.48,236.04,329.99,236.39,329.73L236.39,329.73z"/>
	<path class="st43" d="M233.25,323.42c0.02,0,2.28-1.08,4.42,0.81c-0.07,0.06-0.11,0.14-0.16,0.21c-2.02-1.78-4.13-0.78-4.13-0.77
		C233.34,323.61,233.29,323.51,233.25,323.42L233.25,323.42z"/>
	<path class="st44" d="M247.19,314.39c0,0-0.01,2.64-1.19,2.86c-1.18,0.22-2.7-1.8-3.08-3.38c-0.38-1.58,1.08-1.78,1.08-1.78
		S243.66,313.26,247.19,314.39L247.19,314.39z"/>
	<path class="st44" d="M247.19,314.39c0,0,0.6,2.8,1.81,3.08c1.21,0.28,2.06-1.97,2.32-3.52c0.26-1.55-1.23-1.83-1.23-1.83
		S250.62,313.44,247.19,314.39L247.19,314.39z"/>
	<path class="st9" d="M203.54,294.43c0.06,0,0.13,0.08,0.13,0.17c0.01,0.1-0.06,0.14-0.13,0.14c-0.07,0-0.15-0.07-0.16-0.16
		C203.38,294.49,203.48,294.42,203.54,294.43L203.54,294.43z"/>
	<path class="st9" d="M208.36,294.59c0.07,0,0.13,0.08,0.13,0.17c0.01,0.09-0.06,0.15-0.13,0.15c-0.07,0-0.13-0.07-0.14-0.16
		C208.22,294.67,208.29,294.59,208.36,294.59L208.36,294.59z"/>
	<path class="st45" d="M243.46,299.41c0.68,0.02,1.24,0.3,1.25,0.62c0.01,0.32-0.53,0.6-1.21,0.57c-0.68-0.02-1.22-0.32-1.23-0.65
		C242.27,299.63,242.79,299.38,243.46,299.41L243.46,299.41z"/>
	<path class="st45" d="M249.51,299.61c0.67,0.02,1.24,0.29,1.25,0.61c0.01,0.32-0.53,0.59-1.21,0.57c-0.67-0.02-1.24-0.31-1.25-0.64
		C248.3,299.83,248.83,299.59,249.51,299.61L249.51,299.61z"/>
	<path class="st45" d="M203.29,297c0.69,0.02,1.22,0.33,1.23,0.66c0.01,0.33-0.53,0.57-1.2,0.54c-0.67-0.02-1.22-0.3-1.23-0.63
		C202.08,297.23,202.6,296.97,203.29,297L203.29,297z"/>
	<path class="st45" d="M209.58,297.21c0.69,0.02,1.24,0.33,1.25,0.66c0.01,0.33-0.53,0.57-1.2,0.54c-0.68-0.02-1.22-0.3-1.23-0.63
		C208.39,297.45,208.9,297.19,209.58,297.21L209.58,297.21z"/>
	<path class="st40" d="M222.17,321.61c0,0,1.87,0.01,4.01,5.09c-0.06,0.04-0.11,0.05-0.15,0.06c-2.06-4.99-3.83-5.01-3.83-5.01
		C222.18,321.71,222.17,321.66,222.17,321.61L222.17,321.61z"/>
	<path class="st41" d="M213.64,322.7c0,0.01-0.82,3.49-6.55,4.54c-0.04-0.06-0.03-0.14-0.05-0.21c5.61-1.02,6.4-4.39,6.4-4.4
		C213.5,322.66,213.58,322.68,213.64,322.7L213.64,322.7z"/>
	<polygon class="st10" points="22.12,404.63 484.09,404.63 484.09,416.91 22.12,416.91 22.12,404.63 	"/>
	<path class="st46" d="M157.33,404.63h199.99v12.28h-75.21c-0.17-0.39-0.36-0.74-0.57-1.05c-3.79-5.49-79.82,1.76-101.62,0
		C165.29,414.68,159.53,408.54,157.33,404.63L157.33,404.63z"/>
	<path class="st11" d="M316.82,170.82c0,0-12.03,55.65,19.8,76.83c31.83,21.18,68.93-37.67,44.61-71.66
		C356.92,142.01,326.1,152.85,316.82,170.82L316.82,170.82z"/>
	<path class="st12" d="M316.82,170.82c0,0-2.93,13.55-2.07,29.82c1.13,0.27,2.28,0.44,3.45,0.47c34.58,0.99,21.62,24.48,12.39,41.63
		c1.81,1.78,3.81,3.43,6.03,4.91c31.83,21.18,68.93-37.67,44.61-71.66C356.92,142.01,326.1,152.85,316.82,170.82L316.82,170.82z"/>
	<path class="st39" d="M343.82,261.04c0,0-29-1.3-42.66,29.65c-13.66,30.95-7.67,73.34-16.19,77.11c-8.52,3.77-69.4,1.85-77.17,4
		c-7.77,2.15-7.77,15.88-8.27,21.26c-0.5,5.38,0,12.2,0,12.2l105.15-0.63c0.01,4.5-0.08,8.58-0.25,12.28h144.88
		c-0.1-9.81-0.62-20.41-1.64-31.93c1.03-39.86,4.72-67.58-7.02-95.23C428.91,262.11,386.5,260.95,343.82,261.04L343.82,261.04z"/>
	<path class="st40" d="M449.3,416.91c-0.09-9.07-0.56-18.85-1.44-29.37c-5.09,8.82-11.5,18.78-19.48,29.37H449.3L449.3,416.91z"/>
	<path class="st40" d="M343.82,261.04c0,0-11.49-0.51-23.41,6.83c1.65,12.3,11.59,37.52,64.5,44.15
		c24.82,3.11,44.4-2.97,59.38-12.16c-1-3.38-2.2-6.74-3.63-10.11C428.91,262.11,386.5,260.95,343.82,261.04L343.82,261.04z"/>
	<path class="st40" d="M304.68,404.63c0.01,4.5-0.08,8.57-0.25,12.28h26.46c0.77-0.89,1.62-1.68,2.56-2.34
		c14.29-9.87,12.12-83.47,8.86-99.72c-3.26-16.25-13.88-18.1-13.88-18.1s7.27,5.17,5.01,23.15c-2.25,17.97-3.38,82.4-18.3,84.74
		H304.68L304.68,404.63z"/>
	<path class="st11" d="M201.72,379.17c-6.13-0.3-15.99,0.39-25.22,6.11c-14.84,9.19-17.1,17.6-14.04,18.86
		c2.58,1.07,28.83,1.12,37.07,1.11c0-0.05-0.5-6.21,0-11.57C199.83,390.44,199.95,384.13,201.72,379.17L201.72,379.17z"/>
	<path class="st12" d="M201.72,378.54c-1.82-0.09-3.96-0.09-6.33,0.1c-2.53,5.63-6.21,16.55-5.24,26.6
		c3.88,0.02,7.22,0.03,9.38,0.02c0-0.05-0.4-7.89,0-12.2C199.93,388.75,199.95,383.49,201.72,378.54L201.72,378.54z"/>
	<path class="st36" d="M404.79,153.34c0,0-32.08-34.97-73.44-12.56c-41.36,22.41-26.57,50.48-9.27,50.97
		c12.41,0.35,18.69,3.61,21.23,8.43c0.34,5.76-1.63,15.23-11.5,29.47c-4.51,6.5-7.24,12.67-8.53,18.38
		c-1.58,7.02-0.97,13.34,1.23,18.7c1.27,3.09,3.06,5.86,5.27,8.27c7.08,14.74,26.43,27.45,68.68,29.79
		C469.78,308.73,477.23,236.81,404.79,153.34L404.79,153.34z M344.37,210.02c-1.99,11.67-12.36,26.12-15.27,34.43
		c-2.36,6.75-3.5,14.42-2.11,21.99c-0.09-0.19-0.17-0.38-0.25-0.58c-2.03-4.95-2.59-10.79-1.12-17.31
		c1.22-5.42,3.84-11.32,8.17-17.56C339.66,222.53,342.82,215.59,344.37,210.02L344.37,210.02z"/>
	<path class="st40" d="M289.03,367.17c0.04,0,12.65,0.66,21.38,14.38l-1.28,0.79c-8.31-13.07-20.15-13.68-20.19-13.69L289.03,367.17
		L289.03,367.17z M287.57,368.97c0.04,0.03,14.37,9.97,12.7,25.43l-1.5-0.16c1.58-14.59-12.04-24.04-12.08-24.06L287.57,368.97
		L287.57,368.97z"/>
	<path class="st41" d="M439.71,364.7c-0.05,0.11-12.07,25.8-44.72,52.21h-4.29c34.09-26.69,46.51-53.23,46.56-53.34L439.71,364.7
		L439.71,364.7z M347,416.91c14.67-5.83,66.62-28.34,81.86-60.26l2.45,1.13c-13.97,29.27-57.54,50.67-77.31,59.13H347L347,416.91z"
		/>
</g>
</svg>
